%TF.GenerationSoftware,KiCad,Pcbnew,(5.1.5)-3*%
%TF.CreationDate,2020-03-09T23:17:30+02:00*%
%TF.ProjectId,iaq_device,6961715f-6465-4766-9963-652e6b696361,rev?*%
%TF.SameCoordinates,Original*%
%TF.FileFunction,Paste,Top*%
%TF.FilePolarity,Positive*%
%FSLAX46Y46*%
G04 Gerber Fmt 4.6, Leading zero omitted, Abs format (unit mm)*
G04 Created by KiCad (PCBNEW (5.1.5)-3) date 2020-03-09 23:17:30*
%MOMM*%
%LPD*%
G04 APERTURE LIST*
%ADD10R,1.300000X1.550000*%
%ADD11R,1.900000X1.000000*%
%ADD12R,1.300000X0.700000*%
%ADD13R,1.000000X2.510000*%
%ADD14R,0.900000X1.700000*%
%ADD15C,0.100000*%
%ADD16R,1.500000X1.000000*%
G04 APERTURE END LIST*
D10*
X143165000Y-113957000D03*
X143165000Y-106007000D03*
X147665000Y-113957000D03*
X147665000Y-106007000D03*
D11*
X139762500Y-101473000D03*
X139762500Y-96393000D03*
X139762500Y-91313000D03*
X139762500Y-86233000D03*
X136462500Y-98933000D03*
X136462500Y-93853000D03*
X136462500Y-88773000D03*
X136462500Y-83693000D03*
D12*
X109200000Y-109400000D03*
X109200000Y-110350000D03*
X109200000Y-111300000D03*
X105900000Y-111300000D03*
X105900000Y-110350000D03*
X105900000Y-109400000D03*
D13*
X121539000Y-77090000D03*
X116459000Y-77090000D03*
X108839000Y-80390000D03*
X113919000Y-80390000D03*
X118999000Y-80390000D03*
X124079000Y-80390000D03*
X111379000Y-77090000D03*
X126619000Y-77090000D03*
X111379000Y-99950000D03*
X113919000Y-103250000D03*
X116459000Y-99950000D03*
X121539000Y-99950000D03*
X124079000Y-103250000D03*
X108839000Y-103250000D03*
X126619000Y-99950000D03*
X118999000Y-103250000D03*
D14*
X139495000Y-77597000D03*
X136095000Y-77597000D03*
D15*
G36*
X136511642Y-105473174D02*
G01*
X136535303Y-105476684D01*
X136558507Y-105482496D01*
X136581029Y-105490554D01*
X136602653Y-105500782D01*
X136623170Y-105513079D01*
X136642383Y-105527329D01*
X136660107Y-105543393D01*
X136676171Y-105561117D01*
X136690421Y-105580330D01*
X136702718Y-105600847D01*
X136712946Y-105622471D01*
X136721004Y-105644993D01*
X136726816Y-105668197D01*
X136730326Y-105691858D01*
X136731500Y-105715750D01*
X136731500Y-106628250D01*
X136730326Y-106652142D01*
X136726816Y-106675803D01*
X136721004Y-106699007D01*
X136712946Y-106721529D01*
X136702718Y-106743153D01*
X136690421Y-106763670D01*
X136676171Y-106782883D01*
X136660107Y-106800607D01*
X136642383Y-106816671D01*
X136623170Y-106830921D01*
X136602653Y-106843218D01*
X136581029Y-106853446D01*
X136558507Y-106861504D01*
X136535303Y-106867316D01*
X136511642Y-106870826D01*
X136487750Y-106872000D01*
X136000250Y-106872000D01*
X135976358Y-106870826D01*
X135952697Y-106867316D01*
X135929493Y-106861504D01*
X135906971Y-106853446D01*
X135885347Y-106843218D01*
X135864830Y-106830921D01*
X135845617Y-106816671D01*
X135827893Y-106800607D01*
X135811829Y-106782883D01*
X135797579Y-106763670D01*
X135785282Y-106743153D01*
X135775054Y-106721529D01*
X135766996Y-106699007D01*
X135761184Y-106675803D01*
X135757674Y-106652142D01*
X135756500Y-106628250D01*
X135756500Y-105715750D01*
X135757674Y-105691858D01*
X135761184Y-105668197D01*
X135766996Y-105644993D01*
X135775054Y-105622471D01*
X135785282Y-105600847D01*
X135797579Y-105580330D01*
X135811829Y-105561117D01*
X135827893Y-105543393D01*
X135845617Y-105527329D01*
X135864830Y-105513079D01*
X135885347Y-105500782D01*
X135906971Y-105490554D01*
X135929493Y-105482496D01*
X135952697Y-105476684D01*
X135976358Y-105473174D01*
X136000250Y-105472000D01*
X136487750Y-105472000D01*
X136511642Y-105473174D01*
G37*
G36*
X134636642Y-105473174D02*
G01*
X134660303Y-105476684D01*
X134683507Y-105482496D01*
X134706029Y-105490554D01*
X134727653Y-105500782D01*
X134748170Y-105513079D01*
X134767383Y-105527329D01*
X134785107Y-105543393D01*
X134801171Y-105561117D01*
X134815421Y-105580330D01*
X134827718Y-105600847D01*
X134837946Y-105622471D01*
X134846004Y-105644993D01*
X134851816Y-105668197D01*
X134855326Y-105691858D01*
X134856500Y-105715750D01*
X134856500Y-106628250D01*
X134855326Y-106652142D01*
X134851816Y-106675803D01*
X134846004Y-106699007D01*
X134837946Y-106721529D01*
X134827718Y-106743153D01*
X134815421Y-106763670D01*
X134801171Y-106782883D01*
X134785107Y-106800607D01*
X134767383Y-106816671D01*
X134748170Y-106830921D01*
X134727653Y-106843218D01*
X134706029Y-106853446D01*
X134683507Y-106861504D01*
X134660303Y-106867316D01*
X134636642Y-106870826D01*
X134612750Y-106872000D01*
X134125250Y-106872000D01*
X134101358Y-106870826D01*
X134077697Y-106867316D01*
X134054493Y-106861504D01*
X134031971Y-106853446D01*
X134010347Y-106843218D01*
X133989830Y-106830921D01*
X133970617Y-106816671D01*
X133952893Y-106800607D01*
X133936829Y-106782883D01*
X133922579Y-106763670D01*
X133910282Y-106743153D01*
X133900054Y-106721529D01*
X133891996Y-106699007D01*
X133886184Y-106675803D01*
X133882674Y-106652142D01*
X133881500Y-106628250D01*
X133881500Y-105715750D01*
X133882674Y-105691858D01*
X133886184Y-105668197D01*
X133891996Y-105644993D01*
X133900054Y-105622471D01*
X133910282Y-105600847D01*
X133922579Y-105580330D01*
X133936829Y-105561117D01*
X133952893Y-105543393D01*
X133970617Y-105527329D01*
X133989830Y-105513079D01*
X134010347Y-105500782D01*
X134031971Y-105490554D01*
X134054493Y-105482496D01*
X134077697Y-105476684D01*
X134101358Y-105473174D01*
X134125250Y-105472000D01*
X134612750Y-105472000D01*
X134636642Y-105473174D01*
G37*
G36*
X126759642Y-105473174D02*
G01*
X126783303Y-105476684D01*
X126806507Y-105482496D01*
X126829029Y-105490554D01*
X126850653Y-105500782D01*
X126871170Y-105513079D01*
X126890383Y-105527329D01*
X126908107Y-105543393D01*
X126924171Y-105561117D01*
X126938421Y-105580330D01*
X126950718Y-105600847D01*
X126960946Y-105622471D01*
X126969004Y-105644993D01*
X126974816Y-105668197D01*
X126978326Y-105691858D01*
X126979500Y-105715750D01*
X126979500Y-106628250D01*
X126978326Y-106652142D01*
X126974816Y-106675803D01*
X126969004Y-106699007D01*
X126960946Y-106721529D01*
X126950718Y-106743153D01*
X126938421Y-106763670D01*
X126924171Y-106782883D01*
X126908107Y-106800607D01*
X126890383Y-106816671D01*
X126871170Y-106830921D01*
X126850653Y-106843218D01*
X126829029Y-106853446D01*
X126806507Y-106861504D01*
X126783303Y-106867316D01*
X126759642Y-106870826D01*
X126735750Y-106872000D01*
X126248250Y-106872000D01*
X126224358Y-106870826D01*
X126200697Y-106867316D01*
X126177493Y-106861504D01*
X126154971Y-106853446D01*
X126133347Y-106843218D01*
X126112830Y-106830921D01*
X126093617Y-106816671D01*
X126075893Y-106800607D01*
X126059829Y-106782883D01*
X126045579Y-106763670D01*
X126033282Y-106743153D01*
X126023054Y-106721529D01*
X126014996Y-106699007D01*
X126009184Y-106675803D01*
X126005674Y-106652142D01*
X126004500Y-106628250D01*
X126004500Y-105715750D01*
X126005674Y-105691858D01*
X126009184Y-105668197D01*
X126014996Y-105644993D01*
X126023054Y-105622471D01*
X126033282Y-105600847D01*
X126045579Y-105580330D01*
X126059829Y-105561117D01*
X126075893Y-105543393D01*
X126093617Y-105527329D01*
X126112830Y-105513079D01*
X126133347Y-105500782D01*
X126154971Y-105490554D01*
X126177493Y-105482496D01*
X126200697Y-105476684D01*
X126224358Y-105473174D01*
X126248250Y-105472000D01*
X126735750Y-105472000D01*
X126759642Y-105473174D01*
G37*
G36*
X124884642Y-105473174D02*
G01*
X124908303Y-105476684D01*
X124931507Y-105482496D01*
X124954029Y-105490554D01*
X124975653Y-105500782D01*
X124996170Y-105513079D01*
X125015383Y-105527329D01*
X125033107Y-105543393D01*
X125049171Y-105561117D01*
X125063421Y-105580330D01*
X125075718Y-105600847D01*
X125085946Y-105622471D01*
X125094004Y-105644993D01*
X125099816Y-105668197D01*
X125103326Y-105691858D01*
X125104500Y-105715750D01*
X125104500Y-106628250D01*
X125103326Y-106652142D01*
X125099816Y-106675803D01*
X125094004Y-106699007D01*
X125085946Y-106721529D01*
X125075718Y-106743153D01*
X125063421Y-106763670D01*
X125049171Y-106782883D01*
X125033107Y-106800607D01*
X125015383Y-106816671D01*
X124996170Y-106830921D01*
X124975653Y-106843218D01*
X124954029Y-106853446D01*
X124931507Y-106861504D01*
X124908303Y-106867316D01*
X124884642Y-106870826D01*
X124860750Y-106872000D01*
X124373250Y-106872000D01*
X124349358Y-106870826D01*
X124325697Y-106867316D01*
X124302493Y-106861504D01*
X124279971Y-106853446D01*
X124258347Y-106843218D01*
X124237830Y-106830921D01*
X124218617Y-106816671D01*
X124200893Y-106800607D01*
X124184829Y-106782883D01*
X124170579Y-106763670D01*
X124158282Y-106743153D01*
X124148054Y-106721529D01*
X124139996Y-106699007D01*
X124134184Y-106675803D01*
X124130674Y-106652142D01*
X124129500Y-106628250D01*
X124129500Y-105715750D01*
X124130674Y-105691858D01*
X124134184Y-105668197D01*
X124139996Y-105644993D01*
X124148054Y-105622471D01*
X124158282Y-105600847D01*
X124170579Y-105580330D01*
X124184829Y-105561117D01*
X124200893Y-105543393D01*
X124218617Y-105527329D01*
X124237830Y-105513079D01*
X124258347Y-105500782D01*
X124279971Y-105490554D01*
X124302493Y-105482496D01*
X124325697Y-105476684D01*
X124349358Y-105473174D01*
X124373250Y-105472000D01*
X124860750Y-105472000D01*
X124884642Y-105473174D01*
G37*
G36*
X117466642Y-105473174D02*
G01*
X117490303Y-105476684D01*
X117513507Y-105482496D01*
X117536029Y-105490554D01*
X117557653Y-105500782D01*
X117578170Y-105513079D01*
X117597383Y-105527329D01*
X117615107Y-105543393D01*
X117631171Y-105561117D01*
X117645421Y-105580330D01*
X117657718Y-105600847D01*
X117667946Y-105622471D01*
X117676004Y-105644993D01*
X117681816Y-105668197D01*
X117685326Y-105691858D01*
X117686500Y-105715750D01*
X117686500Y-106628250D01*
X117685326Y-106652142D01*
X117681816Y-106675803D01*
X117676004Y-106699007D01*
X117667946Y-106721529D01*
X117657718Y-106743153D01*
X117645421Y-106763670D01*
X117631171Y-106782883D01*
X117615107Y-106800607D01*
X117597383Y-106816671D01*
X117578170Y-106830921D01*
X117557653Y-106843218D01*
X117536029Y-106853446D01*
X117513507Y-106861504D01*
X117490303Y-106867316D01*
X117466642Y-106870826D01*
X117442750Y-106872000D01*
X116955250Y-106872000D01*
X116931358Y-106870826D01*
X116907697Y-106867316D01*
X116884493Y-106861504D01*
X116861971Y-106853446D01*
X116840347Y-106843218D01*
X116819830Y-106830921D01*
X116800617Y-106816671D01*
X116782893Y-106800607D01*
X116766829Y-106782883D01*
X116752579Y-106763670D01*
X116740282Y-106743153D01*
X116730054Y-106721529D01*
X116721996Y-106699007D01*
X116716184Y-106675803D01*
X116712674Y-106652142D01*
X116711500Y-106628250D01*
X116711500Y-105715750D01*
X116712674Y-105691858D01*
X116716184Y-105668197D01*
X116721996Y-105644993D01*
X116730054Y-105622471D01*
X116740282Y-105600847D01*
X116752579Y-105580330D01*
X116766829Y-105561117D01*
X116782893Y-105543393D01*
X116800617Y-105527329D01*
X116819830Y-105513079D01*
X116840347Y-105500782D01*
X116861971Y-105490554D01*
X116884493Y-105482496D01*
X116907697Y-105476684D01*
X116931358Y-105473174D01*
X116955250Y-105472000D01*
X117442750Y-105472000D01*
X117466642Y-105473174D01*
G37*
G36*
X115591642Y-105473174D02*
G01*
X115615303Y-105476684D01*
X115638507Y-105482496D01*
X115661029Y-105490554D01*
X115682653Y-105500782D01*
X115703170Y-105513079D01*
X115722383Y-105527329D01*
X115740107Y-105543393D01*
X115756171Y-105561117D01*
X115770421Y-105580330D01*
X115782718Y-105600847D01*
X115792946Y-105622471D01*
X115801004Y-105644993D01*
X115806816Y-105668197D01*
X115810326Y-105691858D01*
X115811500Y-105715750D01*
X115811500Y-106628250D01*
X115810326Y-106652142D01*
X115806816Y-106675803D01*
X115801004Y-106699007D01*
X115792946Y-106721529D01*
X115782718Y-106743153D01*
X115770421Y-106763670D01*
X115756171Y-106782883D01*
X115740107Y-106800607D01*
X115722383Y-106816671D01*
X115703170Y-106830921D01*
X115682653Y-106843218D01*
X115661029Y-106853446D01*
X115638507Y-106861504D01*
X115615303Y-106867316D01*
X115591642Y-106870826D01*
X115567750Y-106872000D01*
X115080250Y-106872000D01*
X115056358Y-106870826D01*
X115032697Y-106867316D01*
X115009493Y-106861504D01*
X114986971Y-106853446D01*
X114965347Y-106843218D01*
X114944830Y-106830921D01*
X114925617Y-106816671D01*
X114907893Y-106800607D01*
X114891829Y-106782883D01*
X114877579Y-106763670D01*
X114865282Y-106743153D01*
X114855054Y-106721529D01*
X114846996Y-106699007D01*
X114841184Y-106675803D01*
X114837674Y-106652142D01*
X114836500Y-106628250D01*
X114836500Y-105715750D01*
X114837674Y-105691858D01*
X114841184Y-105668197D01*
X114846996Y-105644993D01*
X114855054Y-105622471D01*
X114865282Y-105600847D01*
X114877579Y-105580330D01*
X114891829Y-105561117D01*
X114907893Y-105543393D01*
X114925617Y-105527329D01*
X114944830Y-105513079D01*
X114965347Y-105500782D01*
X114986971Y-105490554D01*
X115009493Y-105482496D01*
X115032697Y-105476684D01*
X115056358Y-105473174D01*
X115080250Y-105472000D01*
X115567750Y-105472000D01*
X115591642Y-105473174D01*
G37*
G36*
X108774142Y-105473174D02*
G01*
X108797803Y-105476684D01*
X108821007Y-105482496D01*
X108843529Y-105490554D01*
X108865153Y-105500782D01*
X108885670Y-105513079D01*
X108904883Y-105527329D01*
X108922607Y-105543393D01*
X108938671Y-105561117D01*
X108952921Y-105580330D01*
X108965218Y-105600847D01*
X108975446Y-105622471D01*
X108983504Y-105644993D01*
X108989316Y-105668197D01*
X108992826Y-105691858D01*
X108994000Y-105715750D01*
X108994000Y-106628250D01*
X108992826Y-106652142D01*
X108989316Y-106675803D01*
X108983504Y-106699007D01*
X108975446Y-106721529D01*
X108965218Y-106743153D01*
X108952921Y-106763670D01*
X108938671Y-106782883D01*
X108922607Y-106800607D01*
X108904883Y-106816671D01*
X108885670Y-106830921D01*
X108865153Y-106843218D01*
X108843529Y-106853446D01*
X108821007Y-106861504D01*
X108797803Y-106867316D01*
X108774142Y-106870826D01*
X108750250Y-106872000D01*
X108262750Y-106872000D01*
X108238858Y-106870826D01*
X108215197Y-106867316D01*
X108191993Y-106861504D01*
X108169471Y-106853446D01*
X108147847Y-106843218D01*
X108127330Y-106830921D01*
X108108117Y-106816671D01*
X108090393Y-106800607D01*
X108074329Y-106782883D01*
X108060079Y-106763670D01*
X108047782Y-106743153D01*
X108037554Y-106721529D01*
X108029496Y-106699007D01*
X108023684Y-106675803D01*
X108020174Y-106652142D01*
X108019000Y-106628250D01*
X108019000Y-105715750D01*
X108020174Y-105691858D01*
X108023684Y-105668197D01*
X108029496Y-105644993D01*
X108037554Y-105622471D01*
X108047782Y-105600847D01*
X108060079Y-105580330D01*
X108074329Y-105561117D01*
X108090393Y-105543393D01*
X108108117Y-105527329D01*
X108127330Y-105513079D01*
X108147847Y-105500782D01*
X108169471Y-105490554D01*
X108191993Y-105482496D01*
X108215197Y-105476684D01*
X108238858Y-105473174D01*
X108262750Y-105472000D01*
X108750250Y-105472000D01*
X108774142Y-105473174D01*
G37*
G36*
X106899142Y-105473174D02*
G01*
X106922803Y-105476684D01*
X106946007Y-105482496D01*
X106968529Y-105490554D01*
X106990153Y-105500782D01*
X107010670Y-105513079D01*
X107029883Y-105527329D01*
X107047607Y-105543393D01*
X107063671Y-105561117D01*
X107077921Y-105580330D01*
X107090218Y-105600847D01*
X107100446Y-105622471D01*
X107108504Y-105644993D01*
X107114316Y-105668197D01*
X107117826Y-105691858D01*
X107119000Y-105715750D01*
X107119000Y-106628250D01*
X107117826Y-106652142D01*
X107114316Y-106675803D01*
X107108504Y-106699007D01*
X107100446Y-106721529D01*
X107090218Y-106743153D01*
X107077921Y-106763670D01*
X107063671Y-106782883D01*
X107047607Y-106800607D01*
X107029883Y-106816671D01*
X107010670Y-106830921D01*
X106990153Y-106843218D01*
X106968529Y-106853446D01*
X106946007Y-106861504D01*
X106922803Y-106867316D01*
X106899142Y-106870826D01*
X106875250Y-106872000D01*
X106387750Y-106872000D01*
X106363858Y-106870826D01*
X106340197Y-106867316D01*
X106316993Y-106861504D01*
X106294471Y-106853446D01*
X106272847Y-106843218D01*
X106252330Y-106830921D01*
X106233117Y-106816671D01*
X106215393Y-106800607D01*
X106199329Y-106782883D01*
X106185079Y-106763670D01*
X106172782Y-106743153D01*
X106162554Y-106721529D01*
X106154496Y-106699007D01*
X106148684Y-106675803D01*
X106145174Y-106652142D01*
X106144000Y-106628250D01*
X106144000Y-105715750D01*
X106145174Y-105691858D01*
X106148684Y-105668197D01*
X106154496Y-105644993D01*
X106162554Y-105622471D01*
X106172782Y-105600847D01*
X106185079Y-105580330D01*
X106199329Y-105561117D01*
X106215393Y-105543393D01*
X106233117Y-105527329D01*
X106252330Y-105513079D01*
X106272847Y-105500782D01*
X106294471Y-105490554D01*
X106316993Y-105482496D01*
X106340197Y-105476684D01*
X106363858Y-105473174D01*
X106387750Y-105472000D01*
X106875250Y-105472000D01*
X106899142Y-105473174D01*
G37*
D16*
X132778000Y-108636000D03*
X132778000Y-111836000D03*
X137678000Y-108636000D03*
X137678000Y-111836000D03*
X123280000Y-108636000D03*
X123280000Y-111836000D03*
X128180000Y-108636000D03*
X128180000Y-111836000D03*
X113890000Y-108636000D03*
X113890000Y-111836000D03*
X118790000Y-108636000D03*
X118790000Y-111836000D03*
M02*
