%TF.GenerationSoftware,KiCad,Pcbnew,(5.1.5)-3*%
%TF.CreationDate,2020-03-09T23:17:30+02:00*%
%TF.ProjectId,iaq_device,6961715f-6465-4766-9963-652e6b696361,rev?*%
%TF.SameCoordinates,Original*%
%TF.FileFunction,Soldermask,Top*%
%TF.FilePolarity,Negative*%
%FSLAX46Y46*%
G04 Gerber Fmt 4.6, Leading zero omitted, Abs format (unit mm)*
G04 Created by KiCad (PCBNEW (5.1.5)-3) date 2020-03-09 23:17:30*
%MOMM*%
%LPD*%
G04 APERTURE LIST*
%ADD10C,0.100000*%
G04 APERTURE END LIST*
D10*
G36*
X163689512Y-113403927D02*
G01*
X163838812Y-113433624D01*
X164002784Y-113501544D01*
X164150354Y-113600147D01*
X164275853Y-113725646D01*
X164374456Y-113873216D01*
X164442376Y-114037188D01*
X164477000Y-114211259D01*
X164477000Y-114388741D01*
X164442376Y-114562812D01*
X164374456Y-114726784D01*
X164275853Y-114874354D01*
X164150354Y-114999853D01*
X164002784Y-115098456D01*
X163838812Y-115166376D01*
X163689512Y-115196073D01*
X163664742Y-115201000D01*
X163487258Y-115201000D01*
X163462488Y-115196073D01*
X163313188Y-115166376D01*
X163149216Y-115098456D01*
X163001646Y-114999853D01*
X162876147Y-114874354D01*
X162777544Y-114726784D01*
X162709624Y-114562812D01*
X162675000Y-114388741D01*
X162675000Y-114211259D01*
X162709624Y-114037188D01*
X162777544Y-113873216D01*
X162876147Y-113725646D01*
X163001646Y-113600147D01*
X163149216Y-113501544D01*
X163313188Y-113433624D01*
X163462488Y-113403927D01*
X163487258Y-113399000D01*
X163664742Y-113399000D01*
X163689512Y-113403927D01*
G37*
G36*
X161149512Y-113403927D02*
G01*
X161298812Y-113433624D01*
X161462784Y-113501544D01*
X161610354Y-113600147D01*
X161735853Y-113725646D01*
X161834456Y-113873216D01*
X161902376Y-114037188D01*
X161937000Y-114211259D01*
X161937000Y-114388741D01*
X161902376Y-114562812D01*
X161834456Y-114726784D01*
X161735853Y-114874354D01*
X161610354Y-114999853D01*
X161462784Y-115098456D01*
X161298812Y-115166376D01*
X161149512Y-115196073D01*
X161124742Y-115201000D01*
X160947258Y-115201000D01*
X160922488Y-115196073D01*
X160773188Y-115166376D01*
X160609216Y-115098456D01*
X160461646Y-114999853D01*
X160336147Y-114874354D01*
X160237544Y-114726784D01*
X160169624Y-114562812D01*
X160135000Y-114388741D01*
X160135000Y-114211259D01*
X160169624Y-114037188D01*
X160237544Y-113873216D01*
X160336147Y-113725646D01*
X160461646Y-113600147D01*
X160609216Y-113501544D01*
X160773188Y-113433624D01*
X160922488Y-113403927D01*
X160947258Y-113399000D01*
X161124742Y-113399000D01*
X161149512Y-113403927D01*
G37*
G36*
X158609512Y-113403927D02*
G01*
X158758812Y-113433624D01*
X158922784Y-113501544D01*
X159070354Y-113600147D01*
X159195853Y-113725646D01*
X159294456Y-113873216D01*
X159362376Y-114037188D01*
X159397000Y-114211259D01*
X159397000Y-114388741D01*
X159362376Y-114562812D01*
X159294456Y-114726784D01*
X159195853Y-114874354D01*
X159070354Y-114999853D01*
X158922784Y-115098456D01*
X158758812Y-115166376D01*
X158609512Y-115196073D01*
X158584742Y-115201000D01*
X158407258Y-115201000D01*
X158382488Y-115196073D01*
X158233188Y-115166376D01*
X158069216Y-115098456D01*
X157921646Y-114999853D01*
X157796147Y-114874354D01*
X157697544Y-114726784D01*
X157629624Y-114562812D01*
X157595000Y-114388741D01*
X157595000Y-114211259D01*
X157629624Y-114037188D01*
X157697544Y-113873216D01*
X157796147Y-113725646D01*
X157921646Y-113600147D01*
X158069216Y-113501544D01*
X158233188Y-113433624D01*
X158382488Y-113403927D01*
X158407258Y-113399000D01*
X158584742Y-113399000D01*
X158609512Y-113403927D01*
G37*
G36*
X153529512Y-113403927D02*
G01*
X153678812Y-113433624D01*
X153842784Y-113501544D01*
X153990354Y-113600147D01*
X154115853Y-113725646D01*
X154214456Y-113873216D01*
X154282376Y-114037188D01*
X154317000Y-114211259D01*
X154317000Y-114388741D01*
X154282376Y-114562812D01*
X154214456Y-114726784D01*
X154115853Y-114874354D01*
X153990354Y-114999853D01*
X153842784Y-115098456D01*
X153678812Y-115166376D01*
X153529512Y-115196073D01*
X153504742Y-115201000D01*
X153327258Y-115201000D01*
X153302488Y-115196073D01*
X153153188Y-115166376D01*
X152989216Y-115098456D01*
X152841646Y-114999853D01*
X152716147Y-114874354D01*
X152617544Y-114726784D01*
X152549624Y-114562812D01*
X152515000Y-114388741D01*
X152515000Y-114211259D01*
X152549624Y-114037188D01*
X152617544Y-113873216D01*
X152716147Y-113725646D01*
X152841646Y-113600147D01*
X152989216Y-113501544D01*
X153153188Y-113433624D01*
X153302488Y-113403927D01*
X153327258Y-113399000D01*
X153504742Y-113399000D01*
X153529512Y-113403927D01*
G37*
G36*
X156069512Y-113403927D02*
G01*
X156218812Y-113433624D01*
X156382784Y-113501544D01*
X156530354Y-113600147D01*
X156655853Y-113725646D01*
X156754456Y-113873216D01*
X156822376Y-114037188D01*
X156857000Y-114211259D01*
X156857000Y-114388741D01*
X156822376Y-114562812D01*
X156754456Y-114726784D01*
X156655853Y-114874354D01*
X156530354Y-114999853D01*
X156382784Y-115098456D01*
X156218812Y-115166376D01*
X156069512Y-115196073D01*
X156044742Y-115201000D01*
X155867258Y-115201000D01*
X155842488Y-115196073D01*
X155693188Y-115166376D01*
X155529216Y-115098456D01*
X155381646Y-114999853D01*
X155256147Y-114874354D01*
X155157544Y-114726784D01*
X155089624Y-114562812D01*
X155055000Y-114388741D01*
X155055000Y-114211259D01*
X155089624Y-114037188D01*
X155157544Y-113873216D01*
X155256147Y-113725646D01*
X155381646Y-113600147D01*
X155529216Y-113501544D01*
X155693188Y-113433624D01*
X155842488Y-113403927D01*
X155867258Y-113399000D01*
X156044742Y-113399000D01*
X156069512Y-113403927D01*
G37*
G36*
X143866000Y-114783000D02*
G01*
X142464000Y-114783000D01*
X142464000Y-113131000D01*
X143866000Y-113131000D01*
X143866000Y-114783000D01*
G37*
G36*
X148366000Y-114783000D02*
G01*
X146964000Y-114783000D01*
X146964000Y-113131000D01*
X148366000Y-113131000D01*
X148366000Y-114783000D01*
G37*
G36*
X133579000Y-112387000D02*
G01*
X131977000Y-112387000D01*
X131977000Y-111285000D01*
X133579000Y-111285000D01*
X133579000Y-112387000D01*
G37*
G36*
X119591000Y-112387000D02*
G01*
X117989000Y-112387000D01*
X117989000Y-111285000D01*
X119591000Y-111285000D01*
X119591000Y-112387000D01*
G37*
G36*
X114691000Y-112387000D02*
G01*
X113089000Y-112387000D01*
X113089000Y-111285000D01*
X114691000Y-111285000D01*
X114691000Y-112387000D01*
G37*
G36*
X128981000Y-112387000D02*
G01*
X127379000Y-112387000D01*
X127379000Y-111285000D01*
X128981000Y-111285000D01*
X128981000Y-112387000D01*
G37*
G36*
X124081000Y-112387000D02*
G01*
X122479000Y-112387000D01*
X122479000Y-111285000D01*
X124081000Y-111285000D01*
X124081000Y-112387000D01*
G37*
G36*
X138479000Y-112387000D02*
G01*
X136877000Y-112387000D01*
X136877000Y-111285000D01*
X138479000Y-111285000D01*
X138479000Y-112387000D01*
G37*
G36*
X106601000Y-111701000D02*
G01*
X105199000Y-111701000D01*
X105199000Y-108999000D01*
X106601000Y-108999000D01*
X106601000Y-111701000D01*
G37*
G36*
X109901000Y-111701000D02*
G01*
X108499000Y-111701000D01*
X108499000Y-108999000D01*
X109901000Y-108999000D01*
X109901000Y-111701000D01*
G37*
G36*
X138479000Y-109187000D02*
G01*
X136877000Y-109187000D01*
X136877000Y-108085000D01*
X138479000Y-108085000D01*
X138479000Y-109187000D01*
G37*
G36*
X133579000Y-109187000D02*
G01*
X131977000Y-109187000D01*
X131977000Y-108085000D01*
X133579000Y-108085000D01*
X133579000Y-109187000D01*
G37*
G36*
X128981000Y-109187000D02*
G01*
X127379000Y-109187000D01*
X127379000Y-108085000D01*
X128981000Y-108085000D01*
X128981000Y-109187000D01*
G37*
G36*
X114691000Y-109187000D02*
G01*
X113089000Y-109187000D01*
X113089000Y-108085000D01*
X114691000Y-108085000D01*
X114691000Y-109187000D01*
G37*
G36*
X119591000Y-109187000D02*
G01*
X117989000Y-109187000D01*
X117989000Y-108085000D01*
X119591000Y-108085000D01*
X119591000Y-109187000D01*
G37*
G36*
X124081000Y-109187000D02*
G01*
X122479000Y-109187000D01*
X122479000Y-108085000D01*
X124081000Y-108085000D01*
X124081000Y-109187000D01*
G37*
G36*
X159371512Y-105529927D02*
G01*
X159520812Y-105559624D01*
X159684784Y-105627544D01*
X159832354Y-105726147D01*
X159957853Y-105851646D01*
X160056456Y-105999216D01*
X160124376Y-106163188D01*
X160159000Y-106337259D01*
X160159000Y-106514741D01*
X160124376Y-106688812D01*
X160056456Y-106852784D01*
X159957853Y-107000354D01*
X159832354Y-107125853D01*
X159684784Y-107224456D01*
X159520812Y-107292376D01*
X159371512Y-107322073D01*
X159346742Y-107327000D01*
X159169258Y-107327000D01*
X159144488Y-107322073D01*
X158995188Y-107292376D01*
X158831216Y-107224456D01*
X158683646Y-107125853D01*
X158558147Y-107000354D01*
X158459544Y-106852784D01*
X158391624Y-106688812D01*
X158357000Y-106514741D01*
X158357000Y-106337259D01*
X158391624Y-106163188D01*
X158459544Y-105999216D01*
X158558147Y-105851646D01*
X158683646Y-105726147D01*
X158831216Y-105627544D01*
X158995188Y-105559624D01*
X159144488Y-105529927D01*
X159169258Y-105525000D01*
X159346742Y-105525000D01*
X159371512Y-105529927D01*
G37*
G36*
X167779000Y-107327000D02*
G01*
X165977000Y-107327000D01*
X165977000Y-105525000D01*
X167779000Y-105525000D01*
X167779000Y-107327000D01*
G37*
G36*
X161911512Y-105529927D02*
G01*
X162060812Y-105559624D01*
X162224784Y-105627544D01*
X162372354Y-105726147D01*
X162497853Y-105851646D01*
X162596456Y-105999216D01*
X162664376Y-106163188D01*
X162699000Y-106337259D01*
X162699000Y-106514741D01*
X162664376Y-106688812D01*
X162596456Y-106852784D01*
X162497853Y-107000354D01*
X162372354Y-107125853D01*
X162224784Y-107224456D01*
X162060812Y-107292376D01*
X161911512Y-107322073D01*
X161886742Y-107327000D01*
X161709258Y-107327000D01*
X161684488Y-107322073D01*
X161535188Y-107292376D01*
X161371216Y-107224456D01*
X161223646Y-107125853D01*
X161098147Y-107000354D01*
X160999544Y-106852784D01*
X160931624Y-106688812D01*
X160897000Y-106514741D01*
X160897000Y-106337259D01*
X160931624Y-106163188D01*
X160999544Y-105999216D01*
X161098147Y-105851646D01*
X161223646Y-105726147D01*
X161371216Y-105627544D01*
X161535188Y-105559624D01*
X161684488Y-105529927D01*
X161709258Y-105525000D01*
X161886742Y-105525000D01*
X161911512Y-105529927D01*
G37*
G36*
X164451512Y-105529927D02*
G01*
X164600812Y-105559624D01*
X164764784Y-105627544D01*
X164912354Y-105726147D01*
X165037853Y-105851646D01*
X165136456Y-105999216D01*
X165204376Y-106163188D01*
X165239000Y-106337259D01*
X165239000Y-106514741D01*
X165204376Y-106688812D01*
X165136456Y-106852784D01*
X165037853Y-107000354D01*
X164912354Y-107125853D01*
X164764784Y-107224456D01*
X164600812Y-107292376D01*
X164451512Y-107322073D01*
X164426742Y-107327000D01*
X164249258Y-107327000D01*
X164224488Y-107322073D01*
X164075188Y-107292376D01*
X163911216Y-107224456D01*
X163763646Y-107125853D01*
X163638147Y-107000354D01*
X163539544Y-106852784D01*
X163471624Y-106688812D01*
X163437000Y-106514741D01*
X163437000Y-106337259D01*
X163471624Y-106163188D01*
X163539544Y-105999216D01*
X163638147Y-105851646D01*
X163763646Y-105726147D01*
X163911216Y-105627544D01*
X164075188Y-105559624D01*
X164224488Y-105529927D01*
X164249258Y-105525000D01*
X164426742Y-105525000D01*
X164451512Y-105529927D01*
G37*
G36*
X124988968Y-105425565D02*
G01*
X125027638Y-105437296D01*
X125063277Y-105456346D01*
X125094517Y-105481983D01*
X125120154Y-105513223D01*
X125139204Y-105548862D01*
X125150935Y-105587532D01*
X125155500Y-105633888D01*
X125155500Y-106710112D01*
X125150935Y-106756468D01*
X125139204Y-106795138D01*
X125120154Y-106830777D01*
X125094517Y-106862017D01*
X125063277Y-106887654D01*
X125027638Y-106906704D01*
X124988968Y-106918435D01*
X124942612Y-106923000D01*
X124291388Y-106923000D01*
X124245032Y-106918435D01*
X124206362Y-106906704D01*
X124170723Y-106887654D01*
X124139483Y-106862017D01*
X124113846Y-106830777D01*
X124094796Y-106795138D01*
X124083065Y-106756468D01*
X124078500Y-106710112D01*
X124078500Y-105633888D01*
X124083065Y-105587532D01*
X124094796Y-105548862D01*
X124113846Y-105513223D01*
X124139483Y-105481983D01*
X124170723Y-105456346D01*
X124206362Y-105437296D01*
X124245032Y-105425565D01*
X124291388Y-105421000D01*
X124942612Y-105421000D01*
X124988968Y-105425565D01*
G37*
G36*
X117570968Y-105425565D02*
G01*
X117609638Y-105437296D01*
X117645277Y-105456346D01*
X117676517Y-105481983D01*
X117702154Y-105513223D01*
X117721204Y-105548862D01*
X117732935Y-105587532D01*
X117737500Y-105633888D01*
X117737500Y-106710112D01*
X117732935Y-106756468D01*
X117721204Y-106795138D01*
X117702154Y-106830777D01*
X117676517Y-106862017D01*
X117645277Y-106887654D01*
X117609638Y-106906704D01*
X117570968Y-106918435D01*
X117524612Y-106923000D01*
X116873388Y-106923000D01*
X116827032Y-106918435D01*
X116788362Y-106906704D01*
X116752723Y-106887654D01*
X116721483Y-106862017D01*
X116695846Y-106830777D01*
X116676796Y-106795138D01*
X116665065Y-106756468D01*
X116660500Y-106710112D01*
X116660500Y-105633888D01*
X116665065Y-105587532D01*
X116676796Y-105548862D01*
X116695846Y-105513223D01*
X116721483Y-105481983D01*
X116752723Y-105456346D01*
X116788362Y-105437296D01*
X116827032Y-105425565D01*
X116873388Y-105421000D01*
X117524612Y-105421000D01*
X117570968Y-105425565D01*
G37*
G36*
X126863968Y-105425565D02*
G01*
X126902638Y-105437296D01*
X126938277Y-105456346D01*
X126969517Y-105481983D01*
X126995154Y-105513223D01*
X127014204Y-105548862D01*
X127025935Y-105587532D01*
X127030500Y-105633888D01*
X127030500Y-106710112D01*
X127025935Y-106756468D01*
X127014204Y-106795138D01*
X126995154Y-106830777D01*
X126969517Y-106862017D01*
X126938277Y-106887654D01*
X126902638Y-106906704D01*
X126863968Y-106918435D01*
X126817612Y-106923000D01*
X126166388Y-106923000D01*
X126120032Y-106918435D01*
X126081362Y-106906704D01*
X126045723Y-106887654D01*
X126014483Y-106862017D01*
X125988846Y-106830777D01*
X125969796Y-106795138D01*
X125958065Y-106756468D01*
X125953500Y-106710112D01*
X125953500Y-105633888D01*
X125958065Y-105587532D01*
X125969796Y-105548862D01*
X125988846Y-105513223D01*
X126014483Y-105481983D01*
X126045723Y-105456346D01*
X126081362Y-105437296D01*
X126120032Y-105425565D01*
X126166388Y-105421000D01*
X126817612Y-105421000D01*
X126863968Y-105425565D01*
G37*
G36*
X134740968Y-105425565D02*
G01*
X134779638Y-105437296D01*
X134815277Y-105456346D01*
X134846517Y-105481983D01*
X134872154Y-105513223D01*
X134891204Y-105548862D01*
X134902935Y-105587532D01*
X134907500Y-105633888D01*
X134907500Y-106710112D01*
X134902935Y-106756468D01*
X134891204Y-106795138D01*
X134872154Y-106830777D01*
X134846517Y-106862017D01*
X134815277Y-106887654D01*
X134779638Y-106906704D01*
X134740968Y-106918435D01*
X134694612Y-106923000D01*
X134043388Y-106923000D01*
X133997032Y-106918435D01*
X133958362Y-106906704D01*
X133922723Y-106887654D01*
X133891483Y-106862017D01*
X133865846Y-106830777D01*
X133846796Y-106795138D01*
X133835065Y-106756468D01*
X133830500Y-106710112D01*
X133830500Y-105633888D01*
X133835065Y-105587532D01*
X133846796Y-105548862D01*
X133865846Y-105513223D01*
X133891483Y-105481983D01*
X133922723Y-105456346D01*
X133958362Y-105437296D01*
X133997032Y-105425565D01*
X134043388Y-105421000D01*
X134694612Y-105421000D01*
X134740968Y-105425565D01*
G37*
G36*
X136615968Y-105425565D02*
G01*
X136654638Y-105437296D01*
X136690277Y-105456346D01*
X136721517Y-105481983D01*
X136747154Y-105513223D01*
X136766204Y-105548862D01*
X136777935Y-105587532D01*
X136782500Y-105633888D01*
X136782500Y-106710112D01*
X136777935Y-106756468D01*
X136766204Y-106795138D01*
X136747154Y-106830777D01*
X136721517Y-106862017D01*
X136690277Y-106887654D01*
X136654638Y-106906704D01*
X136615968Y-106918435D01*
X136569612Y-106923000D01*
X135918388Y-106923000D01*
X135872032Y-106918435D01*
X135833362Y-106906704D01*
X135797723Y-106887654D01*
X135766483Y-106862017D01*
X135740846Y-106830777D01*
X135721796Y-106795138D01*
X135710065Y-106756468D01*
X135705500Y-106710112D01*
X135705500Y-105633888D01*
X135710065Y-105587532D01*
X135721796Y-105548862D01*
X135740846Y-105513223D01*
X135766483Y-105481983D01*
X135797723Y-105456346D01*
X135833362Y-105437296D01*
X135872032Y-105425565D01*
X135918388Y-105421000D01*
X136569612Y-105421000D01*
X136615968Y-105425565D01*
G37*
G36*
X108878468Y-105425565D02*
G01*
X108917138Y-105437296D01*
X108952777Y-105456346D01*
X108984017Y-105481983D01*
X109009654Y-105513223D01*
X109028704Y-105548862D01*
X109040435Y-105587532D01*
X109045000Y-105633888D01*
X109045000Y-106710112D01*
X109040435Y-106756468D01*
X109028704Y-106795138D01*
X109009654Y-106830777D01*
X108984017Y-106862017D01*
X108952777Y-106887654D01*
X108917138Y-106906704D01*
X108878468Y-106918435D01*
X108832112Y-106923000D01*
X108180888Y-106923000D01*
X108134532Y-106918435D01*
X108095862Y-106906704D01*
X108060223Y-106887654D01*
X108028983Y-106862017D01*
X108003346Y-106830777D01*
X107984296Y-106795138D01*
X107972565Y-106756468D01*
X107968000Y-106710112D01*
X107968000Y-105633888D01*
X107972565Y-105587532D01*
X107984296Y-105548862D01*
X108003346Y-105513223D01*
X108028983Y-105481983D01*
X108060223Y-105456346D01*
X108095862Y-105437296D01*
X108134532Y-105425565D01*
X108180888Y-105421000D01*
X108832112Y-105421000D01*
X108878468Y-105425565D01*
G37*
G36*
X107003468Y-105425565D02*
G01*
X107042138Y-105437296D01*
X107077777Y-105456346D01*
X107109017Y-105481983D01*
X107134654Y-105513223D01*
X107153704Y-105548862D01*
X107165435Y-105587532D01*
X107170000Y-105633888D01*
X107170000Y-106710112D01*
X107165435Y-106756468D01*
X107153704Y-106795138D01*
X107134654Y-106830777D01*
X107109017Y-106862017D01*
X107077777Y-106887654D01*
X107042138Y-106906704D01*
X107003468Y-106918435D01*
X106957112Y-106923000D01*
X106305888Y-106923000D01*
X106259532Y-106918435D01*
X106220862Y-106906704D01*
X106185223Y-106887654D01*
X106153983Y-106862017D01*
X106128346Y-106830777D01*
X106109296Y-106795138D01*
X106097565Y-106756468D01*
X106093000Y-106710112D01*
X106093000Y-105633888D01*
X106097565Y-105587532D01*
X106109296Y-105548862D01*
X106128346Y-105513223D01*
X106153983Y-105481983D01*
X106185223Y-105456346D01*
X106220862Y-105437296D01*
X106259532Y-105425565D01*
X106305888Y-105421000D01*
X106957112Y-105421000D01*
X107003468Y-105425565D01*
G37*
G36*
X115695968Y-105425565D02*
G01*
X115734638Y-105437296D01*
X115770277Y-105456346D01*
X115801517Y-105481983D01*
X115827154Y-105513223D01*
X115846204Y-105548862D01*
X115857935Y-105587532D01*
X115862500Y-105633888D01*
X115862500Y-106710112D01*
X115857935Y-106756468D01*
X115846204Y-106795138D01*
X115827154Y-106830777D01*
X115801517Y-106862017D01*
X115770277Y-106887654D01*
X115734638Y-106906704D01*
X115695968Y-106918435D01*
X115649612Y-106923000D01*
X114998388Y-106923000D01*
X114952032Y-106918435D01*
X114913362Y-106906704D01*
X114877723Y-106887654D01*
X114846483Y-106862017D01*
X114820846Y-106830777D01*
X114801796Y-106795138D01*
X114790065Y-106756468D01*
X114785500Y-106710112D01*
X114785500Y-105633888D01*
X114790065Y-105587532D01*
X114801796Y-105548862D01*
X114820846Y-105513223D01*
X114846483Y-105481983D01*
X114877723Y-105456346D01*
X114913362Y-105437296D01*
X114952032Y-105425565D01*
X114998388Y-105421000D01*
X115649612Y-105421000D01*
X115695968Y-105425565D01*
G37*
G36*
X148366000Y-106833000D02*
G01*
X146964000Y-106833000D01*
X146964000Y-105181000D01*
X148366000Y-105181000D01*
X148366000Y-106833000D01*
G37*
G36*
X143866000Y-106833000D02*
G01*
X142464000Y-106833000D01*
X142464000Y-105181000D01*
X143866000Y-105181000D01*
X143866000Y-106833000D01*
G37*
G36*
X114470000Y-104556000D02*
G01*
X113368000Y-104556000D01*
X113368000Y-101944000D01*
X114470000Y-101944000D01*
X114470000Y-104556000D01*
G37*
G36*
X124630000Y-104556000D02*
G01*
X123528000Y-104556000D01*
X123528000Y-101944000D01*
X124630000Y-101944000D01*
X124630000Y-104556000D01*
G37*
G36*
X109390000Y-104556000D02*
G01*
X108288000Y-104556000D01*
X108288000Y-101944000D01*
X109390000Y-101944000D01*
X109390000Y-104556000D01*
G37*
G36*
X119550000Y-104556000D02*
G01*
X118448000Y-104556000D01*
X118448000Y-101944000D01*
X119550000Y-101944000D01*
X119550000Y-104556000D01*
G37*
G36*
X150608512Y-101338927D02*
G01*
X150757812Y-101368624D01*
X150921784Y-101436544D01*
X151069354Y-101535147D01*
X151194853Y-101660646D01*
X151293456Y-101808216D01*
X151361376Y-101972188D01*
X151396000Y-102146259D01*
X151396000Y-102323741D01*
X151361376Y-102497812D01*
X151293456Y-102661784D01*
X151194853Y-102809354D01*
X151069354Y-102934853D01*
X150921784Y-103033456D01*
X150757812Y-103101376D01*
X150608512Y-103131073D01*
X150583742Y-103136000D01*
X150406258Y-103136000D01*
X150381488Y-103131073D01*
X150232188Y-103101376D01*
X150068216Y-103033456D01*
X149920646Y-102934853D01*
X149795147Y-102809354D01*
X149696544Y-102661784D01*
X149628624Y-102497812D01*
X149594000Y-102323741D01*
X149594000Y-102146259D01*
X149628624Y-101972188D01*
X149696544Y-101808216D01*
X149795147Y-101660646D01*
X149920646Y-101535147D01*
X150068216Y-101436544D01*
X150232188Y-101368624D01*
X150381488Y-101338927D01*
X150406258Y-101334000D01*
X150583742Y-101334000D01*
X150608512Y-101338927D01*
G37*
G36*
X155688512Y-101338927D02*
G01*
X155837812Y-101368624D01*
X156001784Y-101436544D01*
X156149354Y-101535147D01*
X156274853Y-101660646D01*
X156373456Y-101808216D01*
X156441376Y-101972188D01*
X156476000Y-102146259D01*
X156476000Y-102323741D01*
X156441376Y-102497812D01*
X156373456Y-102661784D01*
X156274853Y-102809354D01*
X156149354Y-102934853D01*
X156001784Y-103033456D01*
X155837812Y-103101376D01*
X155688512Y-103131073D01*
X155663742Y-103136000D01*
X155486258Y-103136000D01*
X155461488Y-103131073D01*
X155312188Y-103101376D01*
X155148216Y-103033456D01*
X155000646Y-102934853D01*
X154875147Y-102809354D01*
X154776544Y-102661784D01*
X154708624Y-102497812D01*
X154674000Y-102323741D01*
X154674000Y-102146259D01*
X154708624Y-101972188D01*
X154776544Y-101808216D01*
X154875147Y-101660646D01*
X155000646Y-101535147D01*
X155148216Y-101436544D01*
X155312188Y-101368624D01*
X155461488Y-101338927D01*
X155486258Y-101334000D01*
X155663742Y-101334000D01*
X155688512Y-101338927D01*
G37*
G36*
X159016000Y-103136000D02*
G01*
X157214000Y-103136000D01*
X157214000Y-101334000D01*
X159016000Y-101334000D01*
X159016000Y-103136000D01*
G37*
G36*
X153148512Y-101338927D02*
G01*
X153297812Y-101368624D01*
X153461784Y-101436544D01*
X153609354Y-101535147D01*
X153734853Y-101660646D01*
X153833456Y-101808216D01*
X153901376Y-101972188D01*
X153936000Y-102146259D01*
X153936000Y-102323741D01*
X153901376Y-102497812D01*
X153833456Y-102661784D01*
X153734853Y-102809354D01*
X153609354Y-102934853D01*
X153461784Y-103033456D01*
X153297812Y-103101376D01*
X153148512Y-103131073D01*
X153123742Y-103136000D01*
X152946258Y-103136000D01*
X152921488Y-103131073D01*
X152772188Y-103101376D01*
X152608216Y-103033456D01*
X152460646Y-102934853D01*
X152335147Y-102809354D01*
X152236544Y-102661784D01*
X152168624Y-102497812D01*
X152134000Y-102323741D01*
X152134000Y-102146259D01*
X152168624Y-101972188D01*
X152236544Y-101808216D01*
X152335147Y-101660646D01*
X152460646Y-101535147D01*
X152608216Y-101436544D01*
X152772188Y-101368624D01*
X152921488Y-101338927D01*
X152946258Y-101334000D01*
X153123742Y-101334000D01*
X153148512Y-101338927D01*
G37*
G36*
X140763500Y-102024000D02*
G01*
X138761500Y-102024000D01*
X138761500Y-100922000D01*
X140763500Y-100922000D01*
X140763500Y-102024000D01*
G37*
G36*
X127170000Y-101256000D02*
G01*
X126068000Y-101256000D01*
X126068000Y-98644000D01*
X127170000Y-98644000D01*
X127170000Y-101256000D01*
G37*
G36*
X122090000Y-101256000D02*
G01*
X120988000Y-101256000D01*
X120988000Y-98644000D01*
X122090000Y-98644000D01*
X122090000Y-101256000D01*
G37*
G36*
X117010000Y-101256000D02*
G01*
X115908000Y-101256000D01*
X115908000Y-98644000D01*
X117010000Y-98644000D01*
X117010000Y-101256000D01*
G37*
G36*
X111930000Y-101256000D02*
G01*
X110828000Y-101256000D01*
X110828000Y-98644000D01*
X111930000Y-98644000D01*
X111930000Y-101256000D01*
G37*
G36*
X137463500Y-99484000D02*
G01*
X135461500Y-99484000D01*
X135461500Y-98382000D01*
X137463500Y-98382000D01*
X137463500Y-99484000D01*
G37*
G36*
X104275199Y-95528954D02*
G01*
X104287450Y-95529556D01*
X104305869Y-95529556D01*
X104328149Y-95531750D01*
X104412233Y-95548476D01*
X104433660Y-95554976D01*
X104512858Y-95587780D01*
X104518303Y-95590691D01*
X104518309Y-95590693D01*
X104527169Y-95595429D01*
X104527173Y-95595432D01*
X104532614Y-95598340D01*
X104603899Y-95645971D01*
X104621204Y-95660172D01*
X104681828Y-95720796D01*
X104696029Y-95738101D01*
X104743660Y-95809386D01*
X104746568Y-95814827D01*
X104746571Y-95814831D01*
X104751307Y-95823691D01*
X104751309Y-95823697D01*
X104754220Y-95829142D01*
X104787024Y-95908340D01*
X104793524Y-95929767D01*
X104810250Y-96013851D01*
X104812444Y-96036131D01*
X104812444Y-96054550D01*
X104813046Y-96066801D01*
X104814852Y-96085139D01*
X104814852Y-96622860D01*
X104813263Y-96638999D01*
X104808855Y-96653528D01*
X104803394Y-96666711D01*
X104798612Y-96690745D01*
X104798611Y-96715249D01*
X104803391Y-96739282D01*
X104812768Y-96761921D01*
X104814000Y-96763765D01*
X104814000Y-97995050D01*
X104807525Y-98007164D01*
X104800412Y-98030613D01*
X104798010Y-98054999D01*
X104800412Y-98079385D01*
X104807525Y-98102834D01*
X104809848Y-98107746D01*
X104813263Y-98119001D01*
X104814852Y-98135140D01*
X104814852Y-98672862D01*
X104813046Y-98691199D01*
X104812444Y-98703450D01*
X104812444Y-98721869D01*
X104810250Y-98744149D01*
X104793524Y-98828233D01*
X104787024Y-98849660D01*
X104754220Y-98928858D01*
X104751309Y-98934303D01*
X104751307Y-98934309D01*
X104746571Y-98943169D01*
X104746568Y-98943173D01*
X104743660Y-98948614D01*
X104696029Y-99019899D01*
X104681828Y-99037204D01*
X104621204Y-99097828D01*
X104603899Y-99112029D01*
X104532614Y-99159660D01*
X104527173Y-99162568D01*
X104527169Y-99162571D01*
X104518309Y-99167307D01*
X104518303Y-99167309D01*
X104512858Y-99170220D01*
X104433660Y-99203024D01*
X104412233Y-99209524D01*
X104328149Y-99226250D01*
X104305869Y-99228444D01*
X104287450Y-99228444D01*
X104275199Y-99229046D01*
X104256862Y-99230852D01*
X103769138Y-99230852D01*
X103750801Y-99229046D01*
X103738550Y-99228444D01*
X103720131Y-99228444D01*
X103697851Y-99226250D01*
X103613767Y-99209524D01*
X103592340Y-99203024D01*
X103513142Y-99170220D01*
X103507697Y-99167309D01*
X103507691Y-99167307D01*
X103498831Y-99162571D01*
X103498827Y-99162568D01*
X103493386Y-99159660D01*
X103422101Y-99112029D01*
X103404796Y-99097828D01*
X103344172Y-99037204D01*
X103329971Y-99019899D01*
X103282340Y-98948614D01*
X103279432Y-98943173D01*
X103279429Y-98943169D01*
X103274693Y-98934309D01*
X103274691Y-98934303D01*
X103271780Y-98928858D01*
X103238976Y-98849660D01*
X103232476Y-98828233D01*
X103215750Y-98744149D01*
X103213556Y-98721869D01*
X103213556Y-98703450D01*
X103212954Y-98691199D01*
X103211148Y-98672862D01*
X103211148Y-98135140D01*
X103212737Y-98119001D01*
X103217145Y-98104472D01*
X103222606Y-98091289D01*
X103227388Y-98067255D01*
X103227389Y-98042751D01*
X103222609Y-98018718D01*
X103213232Y-97996079D01*
X103212000Y-97994235D01*
X103212000Y-96762950D01*
X103218475Y-96750836D01*
X103225588Y-96727387D01*
X103227990Y-96703001D01*
X103225588Y-96678615D01*
X103218475Y-96655166D01*
X103216152Y-96650254D01*
X103212737Y-96638999D01*
X103211148Y-96622860D01*
X103211148Y-96085139D01*
X103212954Y-96066801D01*
X103213556Y-96054550D01*
X103213556Y-96036131D01*
X103215750Y-96013851D01*
X103232476Y-95929767D01*
X103238976Y-95908340D01*
X103271780Y-95829142D01*
X103274691Y-95823697D01*
X103274693Y-95823691D01*
X103279429Y-95814831D01*
X103279432Y-95814827D01*
X103282340Y-95809386D01*
X103329971Y-95738101D01*
X103344172Y-95720796D01*
X103404796Y-95660172D01*
X103422101Y-95645971D01*
X103493386Y-95598340D01*
X103498827Y-95595432D01*
X103498831Y-95595429D01*
X103507691Y-95590693D01*
X103507697Y-95590691D01*
X103513142Y-95587780D01*
X103592340Y-95554976D01*
X103613767Y-95548476D01*
X103697851Y-95531750D01*
X103720131Y-95529556D01*
X103738550Y-95529556D01*
X103750801Y-95528954D01*
X103769139Y-95527148D01*
X104256861Y-95527148D01*
X104275199Y-95528954D01*
G37*
G36*
X140763500Y-96944000D02*
G01*
X138761500Y-96944000D01*
X138761500Y-95842000D01*
X140763500Y-95842000D01*
X140763500Y-96944000D01*
G37*
G36*
X137463500Y-94404000D02*
G01*
X135461500Y-94404000D01*
X135461500Y-93302000D01*
X137463500Y-93302000D01*
X137463500Y-94404000D01*
G37*
G36*
X140763500Y-91864000D02*
G01*
X138761500Y-91864000D01*
X138761500Y-90762000D01*
X140763500Y-90762000D01*
X140763500Y-91864000D01*
G37*
G36*
X137463500Y-89324000D02*
G01*
X135461500Y-89324000D01*
X135461500Y-88222000D01*
X137463500Y-88222000D01*
X137463500Y-89324000D01*
G37*
G36*
X106340721Y-81680174D02*
G01*
X106440995Y-81721709D01*
X106440996Y-81721710D01*
X106531242Y-81782010D01*
X106607990Y-81858758D01*
X106607991Y-81858760D01*
X106607994Y-81858763D01*
X106656068Y-81930710D01*
X106671613Y-81949652D01*
X106690555Y-81965197D01*
X106712166Y-81976748D01*
X106735615Y-81983861D01*
X106760001Y-81986263D01*
X106784387Y-81983861D01*
X106807836Y-81976748D01*
X106829446Y-81965196D01*
X106848388Y-81949651D01*
X106863932Y-81930710D01*
X106912006Y-81858763D01*
X106912009Y-81858760D01*
X106912010Y-81858758D01*
X106988758Y-81782010D01*
X107079004Y-81721710D01*
X107079005Y-81721709D01*
X107179279Y-81680174D01*
X107285730Y-81659000D01*
X107394270Y-81659000D01*
X107500721Y-81680174D01*
X107600995Y-81721709D01*
X107600996Y-81721710D01*
X107691242Y-81782010D01*
X107767990Y-81858758D01*
X107767991Y-81858760D01*
X107828291Y-81949005D01*
X107869826Y-82049279D01*
X107891000Y-82155730D01*
X107891000Y-82264270D01*
X107869826Y-82370721D01*
X107828291Y-82470995D01*
X107798345Y-82515812D01*
X107767990Y-82561242D01*
X107691242Y-82637990D01*
X107645812Y-82668345D01*
X107600995Y-82698291D01*
X107525611Y-82729516D01*
X107504000Y-82741067D01*
X107485059Y-82756612D01*
X107469513Y-82775554D01*
X107457962Y-82797165D01*
X107450849Y-82820614D01*
X107448447Y-82845000D01*
X107450849Y-82869386D01*
X107457962Y-82892835D01*
X107469513Y-82914446D01*
X107485058Y-82933387D01*
X107504000Y-82948933D01*
X107525611Y-82960484D01*
X107600995Y-82991709D01*
X107600996Y-82991710D01*
X107691242Y-83052010D01*
X107767990Y-83128758D01*
X107767991Y-83128760D01*
X107828291Y-83219005D01*
X107869826Y-83319279D01*
X107891000Y-83425730D01*
X107891000Y-83534270D01*
X107869826Y-83640721D01*
X107828291Y-83740995D01*
X107798345Y-83785812D01*
X107767990Y-83831242D01*
X107691242Y-83907990D01*
X107645812Y-83938345D01*
X107600995Y-83968291D01*
X107525611Y-83999516D01*
X107504000Y-84011067D01*
X107485059Y-84026612D01*
X107469513Y-84045554D01*
X107457962Y-84067165D01*
X107450849Y-84090614D01*
X107448447Y-84115000D01*
X107450849Y-84139386D01*
X107457962Y-84162835D01*
X107469513Y-84184446D01*
X107485058Y-84203387D01*
X107504000Y-84218933D01*
X107525611Y-84230484D01*
X107600995Y-84261709D01*
X107600996Y-84261710D01*
X107691242Y-84322010D01*
X107767990Y-84398758D01*
X107767991Y-84398760D01*
X107828291Y-84489005D01*
X107869826Y-84589279D01*
X107891000Y-84695730D01*
X107891000Y-84804270D01*
X107869826Y-84910721D01*
X107828291Y-85010995D01*
X107798345Y-85055812D01*
X107767990Y-85101242D01*
X107691242Y-85177990D01*
X107645812Y-85208345D01*
X107600995Y-85238291D01*
X107525611Y-85269516D01*
X107504000Y-85281067D01*
X107485059Y-85296612D01*
X107469513Y-85315554D01*
X107457962Y-85337165D01*
X107450849Y-85360614D01*
X107448447Y-85385000D01*
X107450849Y-85409386D01*
X107457962Y-85432835D01*
X107469513Y-85454446D01*
X107485058Y-85473387D01*
X107504000Y-85488933D01*
X107525611Y-85500484D01*
X107600995Y-85531709D01*
X107600996Y-85531710D01*
X107691242Y-85592010D01*
X107767990Y-85668758D01*
X107767991Y-85668760D01*
X107828291Y-85759005D01*
X107869826Y-85859279D01*
X107891000Y-85965730D01*
X107891000Y-86074270D01*
X107869826Y-86180721D01*
X107828291Y-86280995D01*
X107798345Y-86325812D01*
X107767990Y-86371242D01*
X107691242Y-86447990D01*
X107645812Y-86478345D01*
X107600995Y-86508291D01*
X107525611Y-86539516D01*
X107504000Y-86551067D01*
X107485059Y-86566612D01*
X107469513Y-86585554D01*
X107457962Y-86607165D01*
X107450849Y-86630614D01*
X107448447Y-86655000D01*
X107450849Y-86679386D01*
X107457962Y-86702835D01*
X107469513Y-86724446D01*
X107485058Y-86743387D01*
X107504000Y-86758933D01*
X107525611Y-86770484D01*
X107600995Y-86801709D01*
X107600996Y-86801710D01*
X107691242Y-86862010D01*
X107767990Y-86938758D01*
X107767991Y-86938760D01*
X107828291Y-87029005D01*
X107869826Y-87129279D01*
X107891000Y-87235730D01*
X107891000Y-87344270D01*
X107869826Y-87450721D01*
X107828291Y-87550995D01*
X107798345Y-87595812D01*
X107767990Y-87641242D01*
X107691242Y-87717990D01*
X107645812Y-87748345D01*
X107600995Y-87778291D01*
X107500721Y-87819826D01*
X107394270Y-87841000D01*
X107285730Y-87841000D01*
X107179279Y-87819826D01*
X107079005Y-87778291D01*
X107034188Y-87748345D01*
X106988758Y-87717990D01*
X106912010Y-87641242D01*
X106912008Y-87641239D01*
X106912006Y-87641237D01*
X106863932Y-87569290D01*
X106848387Y-87550348D01*
X106829445Y-87534803D01*
X106807834Y-87523252D01*
X106784385Y-87516139D01*
X106759999Y-87513737D01*
X106735613Y-87516139D01*
X106712164Y-87523252D01*
X106690554Y-87534804D01*
X106671612Y-87550349D01*
X106656068Y-87569290D01*
X106607994Y-87641237D01*
X106607992Y-87641239D01*
X106607990Y-87641242D01*
X106531242Y-87717990D01*
X106485812Y-87748345D01*
X106440995Y-87778291D01*
X106340721Y-87819826D01*
X106234270Y-87841000D01*
X106125730Y-87841000D01*
X106019279Y-87819826D01*
X105919005Y-87778291D01*
X105874188Y-87748345D01*
X105828758Y-87717990D01*
X105752010Y-87641242D01*
X105721655Y-87595812D01*
X105691709Y-87550995D01*
X105650174Y-87450721D01*
X105629000Y-87344270D01*
X105629000Y-87235730D01*
X105650174Y-87129279D01*
X105691709Y-87029005D01*
X105752009Y-86938760D01*
X105752010Y-86938758D01*
X105828758Y-86862010D01*
X105919004Y-86801710D01*
X105919005Y-86801709D01*
X105994389Y-86770484D01*
X106016000Y-86758933D01*
X106034941Y-86743388D01*
X106050487Y-86724446D01*
X106062038Y-86702835D01*
X106069151Y-86679386D01*
X106071553Y-86655000D01*
X106288447Y-86655000D01*
X106290849Y-86679386D01*
X106297962Y-86702835D01*
X106309513Y-86724446D01*
X106325058Y-86743387D01*
X106344000Y-86758933D01*
X106365611Y-86770484D01*
X106440995Y-86801709D01*
X106440996Y-86801710D01*
X106531242Y-86862010D01*
X106607990Y-86938758D01*
X106607991Y-86938760D01*
X106607994Y-86938763D01*
X106656068Y-87010710D01*
X106671613Y-87029652D01*
X106690555Y-87045197D01*
X106712166Y-87056748D01*
X106735615Y-87063861D01*
X106760001Y-87066263D01*
X106784387Y-87063861D01*
X106807836Y-87056748D01*
X106829446Y-87045196D01*
X106848388Y-87029651D01*
X106863932Y-87010710D01*
X106912006Y-86938763D01*
X106912009Y-86938760D01*
X106912010Y-86938758D01*
X106988758Y-86862010D01*
X107079004Y-86801710D01*
X107079005Y-86801709D01*
X107154389Y-86770484D01*
X107176000Y-86758933D01*
X107194941Y-86743388D01*
X107210487Y-86724446D01*
X107222038Y-86702835D01*
X107229151Y-86679386D01*
X107231553Y-86655000D01*
X107229151Y-86630614D01*
X107222038Y-86607165D01*
X107210487Y-86585554D01*
X107194942Y-86566613D01*
X107176000Y-86551067D01*
X107154389Y-86539516D01*
X107079005Y-86508291D01*
X107034188Y-86478345D01*
X106988758Y-86447990D01*
X106912010Y-86371242D01*
X106912008Y-86371239D01*
X106912006Y-86371237D01*
X106863932Y-86299290D01*
X106848387Y-86280348D01*
X106829445Y-86264803D01*
X106807834Y-86253252D01*
X106784385Y-86246139D01*
X106759999Y-86243737D01*
X106735613Y-86246139D01*
X106712164Y-86253252D01*
X106690554Y-86264804D01*
X106671612Y-86280349D01*
X106656068Y-86299290D01*
X106607994Y-86371237D01*
X106607992Y-86371239D01*
X106607990Y-86371242D01*
X106531242Y-86447990D01*
X106485812Y-86478345D01*
X106440995Y-86508291D01*
X106365611Y-86539516D01*
X106344000Y-86551067D01*
X106325059Y-86566612D01*
X106309513Y-86585554D01*
X106297962Y-86607165D01*
X106290849Y-86630614D01*
X106288447Y-86655000D01*
X106071553Y-86655000D01*
X106069151Y-86630614D01*
X106062038Y-86607165D01*
X106050487Y-86585554D01*
X106034942Y-86566613D01*
X106016000Y-86551067D01*
X105994389Y-86539516D01*
X105919005Y-86508291D01*
X105874188Y-86478345D01*
X105828758Y-86447990D01*
X105752010Y-86371242D01*
X105721655Y-86325812D01*
X105691709Y-86280995D01*
X105650174Y-86180721D01*
X105629000Y-86074270D01*
X105629000Y-85965730D01*
X105650174Y-85859279D01*
X105691709Y-85759005D01*
X105752009Y-85668760D01*
X105752010Y-85668758D01*
X105828758Y-85592010D01*
X105919004Y-85531710D01*
X105919005Y-85531709D01*
X105994389Y-85500484D01*
X106016000Y-85488933D01*
X106034941Y-85473388D01*
X106050487Y-85454446D01*
X106062038Y-85432835D01*
X106069151Y-85409386D01*
X106071553Y-85385000D01*
X106288447Y-85385000D01*
X106290849Y-85409386D01*
X106297962Y-85432835D01*
X106309513Y-85454446D01*
X106325058Y-85473387D01*
X106344000Y-85488933D01*
X106365611Y-85500484D01*
X106440995Y-85531709D01*
X106440996Y-85531710D01*
X106531242Y-85592010D01*
X106607990Y-85668758D01*
X106607991Y-85668760D01*
X106607994Y-85668763D01*
X106656068Y-85740710D01*
X106671613Y-85759652D01*
X106690555Y-85775197D01*
X106712166Y-85786748D01*
X106735615Y-85793861D01*
X106760001Y-85796263D01*
X106784387Y-85793861D01*
X106807836Y-85786748D01*
X106829446Y-85775196D01*
X106848388Y-85759651D01*
X106863932Y-85740710D01*
X106912006Y-85668763D01*
X106912009Y-85668760D01*
X106912010Y-85668758D01*
X106988758Y-85592010D01*
X107079004Y-85531710D01*
X107079005Y-85531709D01*
X107154389Y-85500484D01*
X107176000Y-85488933D01*
X107194941Y-85473388D01*
X107210487Y-85454446D01*
X107222038Y-85432835D01*
X107229151Y-85409386D01*
X107231553Y-85385000D01*
X107229151Y-85360614D01*
X107222038Y-85337165D01*
X107210487Y-85315554D01*
X107194942Y-85296613D01*
X107176000Y-85281067D01*
X107154389Y-85269516D01*
X107079005Y-85238291D01*
X107034188Y-85208345D01*
X106988758Y-85177990D01*
X106912010Y-85101242D01*
X106912008Y-85101239D01*
X106912006Y-85101237D01*
X106863932Y-85029290D01*
X106848387Y-85010348D01*
X106829445Y-84994803D01*
X106807834Y-84983252D01*
X106784385Y-84976139D01*
X106759999Y-84973737D01*
X106735613Y-84976139D01*
X106712164Y-84983252D01*
X106690554Y-84994804D01*
X106671612Y-85010349D01*
X106656068Y-85029290D01*
X106607994Y-85101237D01*
X106607992Y-85101239D01*
X106607990Y-85101242D01*
X106531242Y-85177990D01*
X106485812Y-85208345D01*
X106440995Y-85238291D01*
X106365611Y-85269516D01*
X106344000Y-85281067D01*
X106325059Y-85296612D01*
X106309513Y-85315554D01*
X106297962Y-85337165D01*
X106290849Y-85360614D01*
X106288447Y-85385000D01*
X106071553Y-85385000D01*
X106069151Y-85360614D01*
X106062038Y-85337165D01*
X106050487Y-85315554D01*
X106034942Y-85296613D01*
X106016000Y-85281067D01*
X105994389Y-85269516D01*
X105919005Y-85238291D01*
X105874188Y-85208345D01*
X105828758Y-85177990D01*
X105752010Y-85101242D01*
X105721655Y-85055812D01*
X105691709Y-85010995D01*
X105650174Y-84910721D01*
X105629000Y-84804270D01*
X105629000Y-84695730D01*
X105650174Y-84589279D01*
X105691709Y-84489005D01*
X105752009Y-84398760D01*
X105752010Y-84398758D01*
X105828758Y-84322010D01*
X105919004Y-84261710D01*
X105919005Y-84261709D01*
X105994389Y-84230484D01*
X106016000Y-84218933D01*
X106034941Y-84203388D01*
X106050487Y-84184446D01*
X106062038Y-84162835D01*
X106069151Y-84139386D01*
X106071553Y-84115000D01*
X106288447Y-84115000D01*
X106290849Y-84139386D01*
X106297962Y-84162835D01*
X106309513Y-84184446D01*
X106325058Y-84203387D01*
X106344000Y-84218933D01*
X106365611Y-84230484D01*
X106440995Y-84261709D01*
X106440996Y-84261710D01*
X106531242Y-84322010D01*
X106607990Y-84398758D01*
X106607991Y-84398760D01*
X106607994Y-84398763D01*
X106656068Y-84470710D01*
X106671613Y-84489652D01*
X106690555Y-84505197D01*
X106712166Y-84516748D01*
X106735615Y-84523861D01*
X106760001Y-84526263D01*
X106784387Y-84523861D01*
X106807836Y-84516748D01*
X106829446Y-84505196D01*
X106848388Y-84489651D01*
X106863932Y-84470710D01*
X106912006Y-84398763D01*
X106912009Y-84398760D01*
X106912010Y-84398758D01*
X106988758Y-84322010D01*
X107079004Y-84261710D01*
X107079005Y-84261709D01*
X107154389Y-84230484D01*
X107176000Y-84218933D01*
X107194941Y-84203388D01*
X107210487Y-84184446D01*
X107222038Y-84162835D01*
X107229151Y-84139386D01*
X107231553Y-84115000D01*
X107229151Y-84090614D01*
X107222038Y-84067165D01*
X107210487Y-84045554D01*
X107194942Y-84026613D01*
X107176000Y-84011067D01*
X107154389Y-83999516D01*
X107079005Y-83968291D01*
X107034188Y-83938345D01*
X106988758Y-83907990D01*
X106912010Y-83831242D01*
X106912008Y-83831239D01*
X106912006Y-83831237D01*
X106863932Y-83759290D01*
X106848387Y-83740348D01*
X106829445Y-83724803D01*
X106807834Y-83713252D01*
X106784385Y-83706139D01*
X106759999Y-83703737D01*
X106735613Y-83706139D01*
X106712164Y-83713252D01*
X106690554Y-83724804D01*
X106671612Y-83740349D01*
X106656068Y-83759290D01*
X106607994Y-83831237D01*
X106607992Y-83831239D01*
X106607990Y-83831242D01*
X106531242Y-83907990D01*
X106485812Y-83938345D01*
X106440995Y-83968291D01*
X106365611Y-83999516D01*
X106344000Y-84011067D01*
X106325059Y-84026612D01*
X106309513Y-84045554D01*
X106297962Y-84067165D01*
X106290849Y-84090614D01*
X106288447Y-84115000D01*
X106071553Y-84115000D01*
X106069151Y-84090614D01*
X106062038Y-84067165D01*
X106050487Y-84045554D01*
X106034942Y-84026613D01*
X106016000Y-84011067D01*
X105994389Y-83999516D01*
X105919005Y-83968291D01*
X105874188Y-83938345D01*
X105828758Y-83907990D01*
X105752010Y-83831242D01*
X105721655Y-83785812D01*
X105691709Y-83740995D01*
X105650174Y-83640721D01*
X105629000Y-83534270D01*
X105629000Y-83425730D01*
X105650174Y-83319279D01*
X105691709Y-83219005D01*
X105752009Y-83128760D01*
X105752010Y-83128758D01*
X105828758Y-83052010D01*
X105919004Y-82991710D01*
X105919005Y-82991709D01*
X105994389Y-82960484D01*
X106016000Y-82948933D01*
X106034941Y-82933388D01*
X106050487Y-82914446D01*
X106062038Y-82892835D01*
X106069151Y-82869386D01*
X106071553Y-82845000D01*
X106288447Y-82845000D01*
X106290849Y-82869386D01*
X106297962Y-82892835D01*
X106309513Y-82914446D01*
X106325058Y-82933387D01*
X106344000Y-82948933D01*
X106365611Y-82960484D01*
X106440995Y-82991709D01*
X106440996Y-82991710D01*
X106531242Y-83052010D01*
X106607990Y-83128758D01*
X106607991Y-83128760D01*
X106607994Y-83128763D01*
X106656068Y-83200710D01*
X106671613Y-83219652D01*
X106690555Y-83235197D01*
X106712166Y-83246748D01*
X106735615Y-83253861D01*
X106760001Y-83256263D01*
X106784387Y-83253861D01*
X106807836Y-83246748D01*
X106829446Y-83235196D01*
X106848388Y-83219651D01*
X106863932Y-83200710D01*
X106912006Y-83128763D01*
X106912009Y-83128760D01*
X106912010Y-83128758D01*
X106988758Y-83052010D01*
X107079004Y-82991710D01*
X107079005Y-82991709D01*
X107154389Y-82960484D01*
X107176000Y-82948933D01*
X107194941Y-82933388D01*
X107210487Y-82914446D01*
X107222038Y-82892835D01*
X107229151Y-82869386D01*
X107231553Y-82845000D01*
X107229151Y-82820614D01*
X107222038Y-82797165D01*
X107210487Y-82775554D01*
X107194942Y-82756613D01*
X107176000Y-82741067D01*
X107154389Y-82729516D01*
X107079005Y-82698291D01*
X107034188Y-82668345D01*
X106988758Y-82637990D01*
X106912010Y-82561242D01*
X106912008Y-82561239D01*
X106912006Y-82561237D01*
X106863932Y-82489290D01*
X106848387Y-82470348D01*
X106829445Y-82454803D01*
X106807834Y-82443252D01*
X106784385Y-82436139D01*
X106759999Y-82433737D01*
X106735613Y-82436139D01*
X106712164Y-82443252D01*
X106690554Y-82454804D01*
X106671612Y-82470349D01*
X106656068Y-82489290D01*
X106607994Y-82561237D01*
X106607992Y-82561239D01*
X106607990Y-82561242D01*
X106531242Y-82637990D01*
X106485812Y-82668345D01*
X106440995Y-82698291D01*
X106365611Y-82729516D01*
X106344000Y-82741067D01*
X106325059Y-82756612D01*
X106309513Y-82775554D01*
X106297962Y-82797165D01*
X106290849Y-82820614D01*
X106288447Y-82845000D01*
X106071553Y-82845000D01*
X106069151Y-82820614D01*
X106062038Y-82797165D01*
X106050487Y-82775554D01*
X106034942Y-82756613D01*
X106016000Y-82741067D01*
X105994389Y-82729516D01*
X105919005Y-82698291D01*
X105874188Y-82668345D01*
X105828758Y-82637990D01*
X105752010Y-82561242D01*
X105721655Y-82515812D01*
X105691709Y-82470995D01*
X105650174Y-82370721D01*
X105629000Y-82264270D01*
X105629000Y-82155730D01*
X105650174Y-82049279D01*
X105691709Y-81949005D01*
X105752009Y-81858760D01*
X105752010Y-81858758D01*
X105828758Y-81782010D01*
X105919004Y-81721710D01*
X105919005Y-81721709D01*
X106019279Y-81680174D01*
X106125730Y-81659000D01*
X106234270Y-81659000D01*
X106340721Y-81680174D01*
G37*
G36*
X140763500Y-86784000D02*
G01*
X138761500Y-86784000D01*
X138761500Y-85682000D01*
X140763500Y-85682000D01*
X140763500Y-86784000D01*
G37*
G36*
X161149512Y-83863927D02*
G01*
X161298812Y-83893624D01*
X161462784Y-83961544D01*
X161610354Y-84060147D01*
X161735853Y-84185646D01*
X161834456Y-84333216D01*
X161902376Y-84497188D01*
X161937000Y-84671259D01*
X161937000Y-84848741D01*
X161902376Y-85022812D01*
X161834456Y-85186784D01*
X161735853Y-85334354D01*
X161610354Y-85459853D01*
X161462784Y-85558456D01*
X161298812Y-85626376D01*
X161149512Y-85656073D01*
X161124742Y-85661000D01*
X160947258Y-85661000D01*
X160922488Y-85656073D01*
X160773188Y-85626376D01*
X160609216Y-85558456D01*
X160461646Y-85459853D01*
X160336147Y-85334354D01*
X160237544Y-85186784D01*
X160169624Y-85022812D01*
X160135000Y-84848741D01*
X160135000Y-84671259D01*
X160169624Y-84497188D01*
X160237544Y-84333216D01*
X160336147Y-84185646D01*
X160461646Y-84060147D01*
X160609216Y-83961544D01*
X160773188Y-83893624D01*
X160922488Y-83863927D01*
X160947258Y-83859000D01*
X161124742Y-83859000D01*
X161149512Y-83863927D01*
G37*
G36*
X163689512Y-83863927D02*
G01*
X163838812Y-83893624D01*
X164002784Y-83961544D01*
X164150354Y-84060147D01*
X164275853Y-84185646D01*
X164374456Y-84333216D01*
X164442376Y-84497188D01*
X164477000Y-84671259D01*
X164477000Y-84848741D01*
X164442376Y-85022812D01*
X164374456Y-85186784D01*
X164275853Y-85334354D01*
X164150354Y-85459853D01*
X164002784Y-85558456D01*
X163838812Y-85626376D01*
X163689512Y-85656073D01*
X163664742Y-85661000D01*
X163487258Y-85661000D01*
X163462488Y-85656073D01*
X163313188Y-85626376D01*
X163149216Y-85558456D01*
X163001646Y-85459853D01*
X162876147Y-85334354D01*
X162777544Y-85186784D01*
X162709624Y-85022812D01*
X162675000Y-84848741D01*
X162675000Y-84671259D01*
X162709624Y-84497188D01*
X162777544Y-84333216D01*
X162876147Y-84185646D01*
X163001646Y-84060147D01*
X163149216Y-83961544D01*
X163313188Y-83893624D01*
X163462488Y-83863927D01*
X163487258Y-83859000D01*
X163664742Y-83859000D01*
X163689512Y-83863927D01*
G37*
G36*
X158609512Y-83863927D02*
G01*
X158758812Y-83893624D01*
X158922784Y-83961544D01*
X159070354Y-84060147D01*
X159195853Y-84185646D01*
X159294456Y-84333216D01*
X159362376Y-84497188D01*
X159397000Y-84671259D01*
X159397000Y-84848741D01*
X159362376Y-85022812D01*
X159294456Y-85186784D01*
X159195853Y-85334354D01*
X159070354Y-85459853D01*
X158922784Y-85558456D01*
X158758812Y-85626376D01*
X158609512Y-85656073D01*
X158584742Y-85661000D01*
X158407258Y-85661000D01*
X158382488Y-85656073D01*
X158233188Y-85626376D01*
X158069216Y-85558456D01*
X157921646Y-85459853D01*
X157796147Y-85334354D01*
X157697544Y-85186784D01*
X157629624Y-85022812D01*
X157595000Y-84848741D01*
X157595000Y-84671259D01*
X157629624Y-84497188D01*
X157697544Y-84333216D01*
X157796147Y-84185646D01*
X157921646Y-84060147D01*
X158069216Y-83961544D01*
X158233188Y-83893624D01*
X158382488Y-83863927D01*
X158407258Y-83859000D01*
X158584742Y-83859000D01*
X158609512Y-83863927D01*
G37*
G36*
X156069512Y-83863927D02*
G01*
X156218812Y-83893624D01*
X156382784Y-83961544D01*
X156530354Y-84060147D01*
X156655853Y-84185646D01*
X156754456Y-84333216D01*
X156822376Y-84497188D01*
X156857000Y-84671259D01*
X156857000Y-84848741D01*
X156822376Y-85022812D01*
X156754456Y-85186784D01*
X156655853Y-85334354D01*
X156530354Y-85459853D01*
X156382784Y-85558456D01*
X156218812Y-85626376D01*
X156069512Y-85656073D01*
X156044742Y-85661000D01*
X155867258Y-85661000D01*
X155842488Y-85656073D01*
X155693188Y-85626376D01*
X155529216Y-85558456D01*
X155381646Y-85459853D01*
X155256147Y-85334354D01*
X155157544Y-85186784D01*
X155089624Y-85022812D01*
X155055000Y-84848741D01*
X155055000Y-84671259D01*
X155089624Y-84497188D01*
X155157544Y-84333216D01*
X155256147Y-84185646D01*
X155381646Y-84060147D01*
X155529216Y-83961544D01*
X155693188Y-83893624D01*
X155842488Y-83863927D01*
X155867258Y-83859000D01*
X156044742Y-83859000D01*
X156069512Y-83863927D01*
G37*
G36*
X150735512Y-83177927D02*
G01*
X150884812Y-83207624D01*
X151048784Y-83275544D01*
X151196354Y-83374147D01*
X151321853Y-83499646D01*
X151420456Y-83647216D01*
X151488376Y-83811188D01*
X151518073Y-83960488D01*
X151523000Y-83985258D01*
X151523000Y-84162742D01*
X151518683Y-84184446D01*
X151488376Y-84336812D01*
X151420456Y-84500784D01*
X151321853Y-84648354D01*
X151196354Y-84773853D01*
X151048784Y-84872456D01*
X150884812Y-84940376D01*
X150735512Y-84970073D01*
X150710742Y-84975000D01*
X150533258Y-84975000D01*
X150508488Y-84970073D01*
X150359188Y-84940376D01*
X150195216Y-84872456D01*
X150047646Y-84773853D01*
X149922147Y-84648354D01*
X149823544Y-84500784D01*
X149755624Y-84336812D01*
X149725317Y-84184446D01*
X149721000Y-84162742D01*
X149721000Y-83985258D01*
X149725927Y-83960488D01*
X149755624Y-83811188D01*
X149823544Y-83647216D01*
X149922147Y-83499646D01*
X150047646Y-83374147D01*
X150195216Y-83275544D01*
X150359188Y-83207624D01*
X150508488Y-83177927D01*
X150533258Y-83173000D01*
X150710742Y-83173000D01*
X150735512Y-83177927D01*
G37*
G36*
X137463500Y-84244000D02*
G01*
X135461500Y-84244000D01*
X135461500Y-83142000D01*
X137463500Y-83142000D01*
X137463500Y-84244000D01*
G37*
G36*
X150735512Y-80637927D02*
G01*
X150884812Y-80667624D01*
X151048784Y-80735544D01*
X151196354Y-80834147D01*
X151321853Y-80959646D01*
X151420456Y-81107216D01*
X151488376Y-81271188D01*
X151523000Y-81445259D01*
X151523000Y-81622741D01*
X151488376Y-81796812D01*
X151420456Y-81960784D01*
X151321853Y-82108354D01*
X151196354Y-82233853D01*
X151048784Y-82332456D01*
X150884812Y-82400376D01*
X150735512Y-82430073D01*
X150710742Y-82435000D01*
X150533258Y-82435000D01*
X150508488Y-82430073D01*
X150359188Y-82400376D01*
X150195216Y-82332456D01*
X150047646Y-82233853D01*
X149922147Y-82108354D01*
X149823544Y-81960784D01*
X149755624Y-81796812D01*
X149721000Y-81622741D01*
X149721000Y-81445259D01*
X149755624Y-81271188D01*
X149823544Y-81107216D01*
X149922147Y-80959646D01*
X150047646Y-80834147D01*
X150195216Y-80735544D01*
X150359188Y-80667624D01*
X150508488Y-80637927D01*
X150533258Y-80633000D01*
X150710742Y-80633000D01*
X150735512Y-80637927D01*
G37*
G36*
X109390000Y-81696000D02*
G01*
X108288000Y-81696000D01*
X108288000Y-79084000D01*
X109390000Y-79084000D01*
X109390000Y-81696000D01*
G37*
G36*
X124630000Y-81696000D02*
G01*
X123528000Y-81696000D01*
X123528000Y-79084000D01*
X124630000Y-79084000D01*
X124630000Y-81696000D01*
G37*
G36*
X119550000Y-81696000D02*
G01*
X118448000Y-81696000D01*
X118448000Y-79084000D01*
X119550000Y-79084000D01*
X119550000Y-81696000D01*
G37*
G36*
X114470000Y-81696000D02*
G01*
X113368000Y-81696000D01*
X113368000Y-79084000D01*
X114470000Y-79084000D01*
X114470000Y-81696000D01*
G37*
G36*
X150735512Y-78097927D02*
G01*
X150884812Y-78127624D01*
X151048784Y-78195544D01*
X151196354Y-78294147D01*
X151321853Y-78419646D01*
X151420456Y-78567216D01*
X151488376Y-78731188D01*
X151523000Y-78905259D01*
X151523000Y-79082741D01*
X151488376Y-79256812D01*
X151420456Y-79420784D01*
X151321853Y-79568354D01*
X151196354Y-79693853D01*
X151048784Y-79792456D01*
X150884812Y-79860376D01*
X150735512Y-79890073D01*
X150710742Y-79895000D01*
X150533258Y-79895000D01*
X150508488Y-79890073D01*
X150359188Y-79860376D01*
X150195216Y-79792456D01*
X150047646Y-79693853D01*
X149922147Y-79568354D01*
X149823544Y-79420784D01*
X149755624Y-79256812D01*
X149721000Y-79082741D01*
X149721000Y-78905259D01*
X149755624Y-78731188D01*
X149823544Y-78567216D01*
X149922147Y-78419646D01*
X150047646Y-78294147D01*
X150195216Y-78195544D01*
X150359188Y-78127624D01*
X150508488Y-78097927D01*
X150533258Y-78093000D01*
X150710742Y-78093000D01*
X150735512Y-78097927D01*
G37*
G36*
X136596000Y-78498000D02*
G01*
X135594000Y-78498000D01*
X135594000Y-76696000D01*
X136596000Y-76696000D01*
X136596000Y-78498000D01*
G37*
G36*
X139996000Y-78498000D02*
G01*
X138994000Y-78498000D01*
X138994000Y-76696000D01*
X139996000Y-76696000D01*
X139996000Y-78498000D01*
G37*
G36*
X127170000Y-78396000D02*
G01*
X126068000Y-78396000D01*
X126068000Y-75784000D01*
X127170000Y-75784000D01*
X127170000Y-78396000D01*
G37*
G36*
X122090000Y-78396000D02*
G01*
X120988000Y-78396000D01*
X120988000Y-75784000D01*
X122090000Y-75784000D01*
X122090000Y-78396000D01*
G37*
G36*
X117010000Y-78396000D02*
G01*
X115908000Y-78396000D01*
X115908000Y-75784000D01*
X117010000Y-75784000D01*
X117010000Y-78396000D01*
G37*
G36*
X111930000Y-78396000D02*
G01*
X110828000Y-78396000D01*
X110828000Y-75784000D01*
X111930000Y-75784000D01*
X111930000Y-78396000D01*
G37*
G36*
X151523000Y-77355000D02*
G01*
X149721000Y-77355000D01*
X149721000Y-75553000D01*
X151523000Y-75553000D01*
X151523000Y-77355000D01*
G37*
M02*
