%TF.GenerationSoftware,KiCad,Pcbnew,(5.1.5)-3*%
%TF.CreationDate,2020-03-09T23:17:30+02:00*%
%TF.ProjectId,iaq_device,6961715f-6465-4766-9963-652e6b696361,rev?*%
%TF.SameCoordinates,Original*%
%TF.FileFunction,Copper,L1,Top*%
%TF.FilePolarity,Positive*%
%FSLAX46Y46*%
G04 Gerber Fmt 4.6, Leading zero omitted, Abs format (unit mm)*
G04 Created by KiCad (PCBNEW (5.1.5)-3) date 2020-03-09 23:17:30*
%MOMM*%
%LPD*%
G04 APERTURE LIST*
%ADD10O,1.700000X1.700000*%
%ADD11R,1.700000X1.700000*%
%ADD12C,1.700000*%
%ADD13R,1.300000X1.550000*%
%ADD14R,1.500000X1.000000*%
%ADD15C,0.100000*%
%ADD16R,1.900000X1.000000*%
%ADD17R,1.300000X0.700000*%
%ADD18R,1.000000X2.510000*%
%ADD19R,0.900000X1.700000*%
%ADD20C,1.000000*%
%ADD21C,0.800000*%
%ADD22C,0.254000*%
G04 APERTURE END LIST*
D10*
X164338000Y-106426000D03*
D11*
X166878000Y-106426000D03*
D10*
X159258000Y-106426000D03*
X161798000Y-106426000D03*
D12*
X150495000Y-102235000D03*
X153035000Y-102235000D03*
X155575000Y-102235000D03*
D11*
X158115000Y-102235000D03*
D12*
X163576000Y-84760000D03*
X161036000Y-84760000D03*
X158496000Y-84760000D03*
X155956000Y-84760000D03*
X153416000Y-114300000D03*
X155956000Y-114300000D03*
X158496000Y-114300000D03*
X161036000Y-114300000D03*
X163576000Y-114300000D03*
D13*
X143165000Y-113957000D03*
X143165000Y-106007000D03*
X147665000Y-113957000D03*
X147665000Y-106007000D03*
D14*
X104013000Y-97379000D03*
%TA.AperFunction,SMDPad,CuDef*%
D15*
G36*
X103263602Y-96079000D02*
G01*
X103263602Y-96054466D01*
X103268412Y-96005635D01*
X103277984Y-95957510D01*
X103292228Y-95910555D01*
X103311005Y-95865222D01*
X103334136Y-95821949D01*
X103361396Y-95781150D01*
X103392524Y-95743221D01*
X103427221Y-95708524D01*
X103465150Y-95677396D01*
X103505949Y-95650136D01*
X103549222Y-95627005D01*
X103594555Y-95608228D01*
X103641510Y-95593984D01*
X103689635Y-95584412D01*
X103738466Y-95579602D01*
X103763000Y-95579602D01*
X103763000Y-95579000D01*
X104263000Y-95579000D01*
X104263000Y-95579602D01*
X104287534Y-95579602D01*
X104336365Y-95584412D01*
X104384490Y-95593984D01*
X104431445Y-95608228D01*
X104476778Y-95627005D01*
X104520051Y-95650136D01*
X104560850Y-95677396D01*
X104598779Y-95708524D01*
X104633476Y-95743221D01*
X104664604Y-95781150D01*
X104691864Y-95821949D01*
X104714995Y-95865222D01*
X104733772Y-95910555D01*
X104748016Y-95957510D01*
X104757588Y-96005635D01*
X104762398Y-96054466D01*
X104762398Y-96079000D01*
X104763000Y-96079000D01*
X104763000Y-96629000D01*
X103263000Y-96629000D01*
X103263000Y-96079000D01*
X103263602Y-96079000D01*
G37*
%TD.AperFunction*%
%TA.AperFunction,SMDPad,CuDef*%
G36*
X104763000Y-98129000D02*
G01*
X104763000Y-98679000D01*
X104762398Y-98679000D01*
X104762398Y-98703534D01*
X104757588Y-98752365D01*
X104748016Y-98800490D01*
X104733772Y-98847445D01*
X104714995Y-98892778D01*
X104691864Y-98936051D01*
X104664604Y-98976850D01*
X104633476Y-99014779D01*
X104598779Y-99049476D01*
X104560850Y-99080604D01*
X104520051Y-99107864D01*
X104476778Y-99130995D01*
X104431445Y-99149772D01*
X104384490Y-99164016D01*
X104336365Y-99173588D01*
X104287534Y-99178398D01*
X104263000Y-99178398D01*
X104263000Y-99179000D01*
X103763000Y-99179000D01*
X103763000Y-99178398D01*
X103738466Y-99178398D01*
X103689635Y-99173588D01*
X103641510Y-99164016D01*
X103594555Y-99149772D01*
X103549222Y-99130995D01*
X103505949Y-99107864D01*
X103465150Y-99080604D01*
X103427221Y-99049476D01*
X103392524Y-99014779D01*
X103361396Y-98976850D01*
X103334136Y-98936051D01*
X103311005Y-98892778D01*
X103292228Y-98847445D01*
X103277984Y-98800490D01*
X103268412Y-98752365D01*
X103263602Y-98703534D01*
X103263602Y-98679000D01*
X103263000Y-98679000D01*
X103263000Y-98129000D01*
X104763000Y-98129000D01*
G37*
%TD.AperFunction*%
D16*
X139762500Y-101473000D03*
X139762500Y-96393000D03*
X139762500Y-91313000D03*
X139762500Y-86233000D03*
X136462500Y-98933000D03*
X136462500Y-93853000D03*
X136462500Y-88773000D03*
X136462500Y-83693000D03*
D17*
X109200000Y-109400000D03*
X109200000Y-110350000D03*
X109200000Y-111300000D03*
X105900000Y-111300000D03*
X105900000Y-110350000D03*
X105900000Y-109400000D03*
D18*
X121539000Y-77090000D03*
X116459000Y-77090000D03*
X108839000Y-80390000D03*
X113919000Y-80390000D03*
X118999000Y-80390000D03*
X124079000Y-80390000D03*
X111379000Y-77090000D03*
X126619000Y-77090000D03*
X111379000Y-99950000D03*
X113919000Y-103250000D03*
X116459000Y-99950000D03*
X121539000Y-99950000D03*
X124079000Y-103250000D03*
X108839000Y-103250000D03*
X126619000Y-99950000D03*
X118999000Y-103250000D03*
D12*
X150622000Y-84074000D03*
X150622000Y-81534000D03*
X150622000Y-78994000D03*
D11*
X150622000Y-76454000D03*
D19*
X139495000Y-77597000D03*
X136095000Y-77597000D03*
%TA.AperFunction,SMDPad,CuDef*%
D15*
G36*
X136511642Y-105473174D02*
G01*
X136535303Y-105476684D01*
X136558507Y-105482496D01*
X136581029Y-105490554D01*
X136602653Y-105500782D01*
X136623170Y-105513079D01*
X136642383Y-105527329D01*
X136660107Y-105543393D01*
X136676171Y-105561117D01*
X136690421Y-105580330D01*
X136702718Y-105600847D01*
X136712946Y-105622471D01*
X136721004Y-105644993D01*
X136726816Y-105668197D01*
X136730326Y-105691858D01*
X136731500Y-105715750D01*
X136731500Y-106628250D01*
X136730326Y-106652142D01*
X136726816Y-106675803D01*
X136721004Y-106699007D01*
X136712946Y-106721529D01*
X136702718Y-106743153D01*
X136690421Y-106763670D01*
X136676171Y-106782883D01*
X136660107Y-106800607D01*
X136642383Y-106816671D01*
X136623170Y-106830921D01*
X136602653Y-106843218D01*
X136581029Y-106853446D01*
X136558507Y-106861504D01*
X136535303Y-106867316D01*
X136511642Y-106870826D01*
X136487750Y-106872000D01*
X136000250Y-106872000D01*
X135976358Y-106870826D01*
X135952697Y-106867316D01*
X135929493Y-106861504D01*
X135906971Y-106853446D01*
X135885347Y-106843218D01*
X135864830Y-106830921D01*
X135845617Y-106816671D01*
X135827893Y-106800607D01*
X135811829Y-106782883D01*
X135797579Y-106763670D01*
X135785282Y-106743153D01*
X135775054Y-106721529D01*
X135766996Y-106699007D01*
X135761184Y-106675803D01*
X135757674Y-106652142D01*
X135756500Y-106628250D01*
X135756500Y-105715750D01*
X135757674Y-105691858D01*
X135761184Y-105668197D01*
X135766996Y-105644993D01*
X135775054Y-105622471D01*
X135785282Y-105600847D01*
X135797579Y-105580330D01*
X135811829Y-105561117D01*
X135827893Y-105543393D01*
X135845617Y-105527329D01*
X135864830Y-105513079D01*
X135885347Y-105500782D01*
X135906971Y-105490554D01*
X135929493Y-105482496D01*
X135952697Y-105476684D01*
X135976358Y-105473174D01*
X136000250Y-105472000D01*
X136487750Y-105472000D01*
X136511642Y-105473174D01*
G37*
%TD.AperFunction*%
%TA.AperFunction,SMDPad,CuDef*%
G36*
X134636642Y-105473174D02*
G01*
X134660303Y-105476684D01*
X134683507Y-105482496D01*
X134706029Y-105490554D01*
X134727653Y-105500782D01*
X134748170Y-105513079D01*
X134767383Y-105527329D01*
X134785107Y-105543393D01*
X134801171Y-105561117D01*
X134815421Y-105580330D01*
X134827718Y-105600847D01*
X134837946Y-105622471D01*
X134846004Y-105644993D01*
X134851816Y-105668197D01*
X134855326Y-105691858D01*
X134856500Y-105715750D01*
X134856500Y-106628250D01*
X134855326Y-106652142D01*
X134851816Y-106675803D01*
X134846004Y-106699007D01*
X134837946Y-106721529D01*
X134827718Y-106743153D01*
X134815421Y-106763670D01*
X134801171Y-106782883D01*
X134785107Y-106800607D01*
X134767383Y-106816671D01*
X134748170Y-106830921D01*
X134727653Y-106843218D01*
X134706029Y-106853446D01*
X134683507Y-106861504D01*
X134660303Y-106867316D01*
X134636642Y-106870826D01*
X134612750Y-106872000D01*
X134125250Y-106872000D01*
X134101358Y-106870826D01*
X134077697Y-106867316D01*
X134054493Y-106861504D01*
X134031971Y-106853446D01*
X134010347Y-106843218D01*
X133989830Y-106830921D01*
X133970617Y-106816671D01*
X133952893Y-106800607D01*
X133936829Y-106782883D01*
X133922579Y-106763670D01*
X133910282Y-106743153D01*
X133900054Y-106721529D01*
X133891996Y-106699007D01*
X133886184Y-106675803D01*
X133882674Y-106652142D01*
X133881500Y-106628250D01*
X133881500Y-105715750D01*
X133882674Y-105691858D01*
X133886184Y-105668197D01*
X133891996Y-105644993D01*
X133900054Y-105622471D01*
X133910282Y-105600847D01*
X133922579Y-105580330D01*
X133936829Y-105561117D01*
X133952893Y-105543393D01*
X133970617Y-105527329D01*
X133989830Y-105513079D01*
X134010347Y-105500782D01*
X134031971Y-105490554D01*
X134054493Y-105482496D01*
X134077697Y-105476684D01*
X134101358Y-105473174D01*
X134125250Y-105472000D01*
X134612750Y-105472000D01*
X134636642Y-105473174D01*
G37*
%TD.AperFunction*%
%TA.AperFunction,SMDPad,CuDef*%
G36*
X126759642Y-105473174D02*
G01*
X126783303Y-105476684D01*
X126806507Y-105482496D01*
X126829029Y-105490554D01*
X126850653Y-105500782D01*
X126871170Y-105513079D01*
X126890383Y-105527329D01*
X126908107Y-105543393D01*
X126924171Y-105561117D01*
X126938421Y-105580330D01*
X126950718Y-105600847D01*
X126960946Y-105622471D01*
X126969004Y-105644993D01*
X126974816Y-105668197D01*
X126978326Y-105691858D01*
X126979500Y-105715750D01*
X126979500Y-106628250D01*
X126978326Y-106652142D01*
X126974816Y-106675803D01*
X126969004Y-106699007D01*
X126960946Y-106721529D01*
X126950718Y-106743153D01*
X126938421Y-106763670D01*
X126924171Y-106782883D01*
X126908107Y-106800607D01*
X126890383Y-106816671D01*
X126871170Y-106830921D01*
X126850653Y-106843218D01*
X126829029Y-106853446D01*
X126806507Y-106861504D01*
X126783303Y-106867316D01*
X126759642Y-106870826D01*
X126735750Y-106872000D01*
X126248250Y-106872000D01*
X126224358Y-106870826D01*
X126200697Y-106867316D01*
X126177493Y-106861504D01*
X126154971Y-106853446D01*
X126133347Y-106843218D01*
X126112830Y-106830921D01*
X126093617Y-106816671D01*
X126075893Y-106800607D01*
X126059829Y-106782883D01*
X126045579Y-106763670D01*
X126033282Y-106743153D01*
X126023054Y-106721529D01*
X126014996Y-106699007D01*
X126009184Y-106675803D01*
X126005674Y-106652142D01*
X126004500Y-106628250D01*
X126004500Y-105715750D01*
X126005674Y-105691858D01*
X126009184Y-105668197D01*
X126014996Y-105644993D01*
X126023054Y-105622471D01*
X126033282Y-105600847D01*
X126045579Y-105580330D01*
X126059829Y-105561117D01*
X126075893Y-105543393D01*
X126093617Y-105527329D01*
X126112830Y-105513079D01*
X126133347Y-105500782D01*
X126154971Y-105490554D01*
X126177493Y-105482496D01*
X126200697Y-105476684D01*
X126224358Y-105473174D01*
X126248250Y-105472000D01*
X126735750Y-105472000D01*
X126759642Y-105473174D01*
G37*
%TD.AperFunction*%
%TA.AperFunction,SMDPad,CuDef*%
G36*
X124884642Y-105473174D02*
G01*
X124908303Y-105476684D01*
X124931507Y-105482496D01*
X124954029Y-105490554D01*
X124975653Y-105500782D01*
X124996170Y-105513079D01*
X125015383Y-105527329D01*
X125033107Y-105543393D01*
X125049171Y-105561117D01*
X125063421Y-105580330D01*
X125075718Y-105600847D01*
X125085946Y-105622471D01*
X125094004Y-105644993D01*
X125099816Y-105668197D01*
X125103326Y-105691858D01*
X125104500Y-105715750D01*
X125104500Y-106628250D01*
X125103326Y-106652142D01*
X125099816Y-106675803D01*
X125094004Y-106699007D01*
X125085946Y-106721529D01*
X125075718Y-106743153D01*
X125063421Y-106763670D01*
X125049171Y-106782883D01*
X125033107Y-106800607D01*
X125015383Y-106816671D01*
X124996170Y-106830921D01*
X124975653Y-106843218D01*
X124954029Y-106853446D01*
X124931507Y-106861504D01*
X124908303Y-106867316D01*
X124884642Y-106870826D01*
X124860750Y-106872000D01*
X124373250Y-106872000D01*
X124349358Y-106870826D01*
X124325697Y-106867316D01*
X124302493Y-106861504D01*
X124279971Y-106853446D01*
X124258347Y-106843218D01*
X124237830Y-106830921D01*
X124218617Y-106816671D01*
X124200893Y-106800607D01*
X124184829Y-106782883D01*
X124170579Y-106763670D01*
X124158282Y-106743153D01*
X124148054Y-106721529D01*
X124139996Y-106699007D01*
X124134184Y-106675803D01*
X124130674Y-106652142D01*
X124129500Y-106628250D01*
X124129500Y-105715750D01*
X124130674Y-105691858D01*
X124134184Y-105668197D01*
X124139996Y-105644993D01*
X124148054Y-105622471D01*
X124158282Y-105600847D01*
X124170579Y-105580330D01*
X124184829Y-105561117D01*
X124200893Y-105543393D01*
X124218617Y-105527329D01*
X124237830Y-105513079D01*
X124258347Y-105500782D01*
X124279971Y-105490554D01*
X124302493Y-105482496D01*
X124325697Y-105476684D01*
X124349358Y-105473174D01*
X124373250Y-105472000D01*
X124860750Y-105472000D01*
X124884642Y-105473174D01*
G37*
%TD.AperFunction*%
%TA.AperFunction,SMDPad,CuDef*%
G36*
X117466642Y-105473174D02*
G01*
X117490303Y-105476684D01*
X117513507Y-105482496D01*
X117536029Y-105490554D01*
X117557653Y-105500782D01*
X117578170Y-105513079D01*
X117597383Y-105527329D01*
X117615107Y-105543393D01*
X117631171Y-105561117D01*
X117645421Y-105580330D01*
X117657718Y-105600847D01*
X117667946Y-105622471D01*
X117676004Y-105644993D01*
X117681816Y-105668197D01*
X117685326Y-105691858D01*
X117686500Y-105715750D01*
X117686500Y-106628250D01*
X117685326Y-106652142D01*
X117681816Y-106675803D01*
X117676004Y-106699007D01*
X117667946Y-106721529D01*
X117657718Y-106743153D01*
X117645421Y-106763670D01*
X117631171Y-106782883D01*
X117615107Y-106800607D01*
X117597383Y-106816671D01*
X117578170Y-106830921D01*
X117557653Y-106843218D01*
X117536029Y-106853446D01*
X117513507Y-106861504D01*
X117490303Y-106867316D01*
X117466642Y-106870826D01*
X117442750Y-106872000D01*
X116955250Y-106872000D01*
X116931358Y-106870826D01*
X116907697Y-106867316D01*
X116884493Y-106861504D01*
X116861971Y-106853446D01*
X116840347Y-106843218D01*
X116819830Y-106830921D01*
X116800617Y-106816671D01*
X116782893Y-106800607D01*
X116766829Y-106782883D01*
X116752579Y-106763670D01*
X116740282Y-106743153D01*
X116730054Y-106721529D01*
X116721996Y-106699007D01*
X116716184Y-106675803D01*
X116712674Y-106652142D01*
X116711500Y-106628250D01*
X116711500Y-105715750D01*
X116712674Y-105691858D01*
X116716184Y-105668197D01*
X116721996Y-105644993D01*
X116730054Y-105622471D01*
X116740282Y-105600847D01*
X116752579Y-105580330D01*
X116766829Y-105561117D01*
X116782893Y-105543393D01*
X116800617Y-105527329D01*
X116819830Y-105513079D01*
X116840347Y-105500782D01*
X116861971Y-105490554D01*
X116884493Y-105482496D01*
X116907697Y-105476684D01*
X116931358Y-105473174D01*
X116955250Y-105472000D01*
X117442750Y-105472000D01*
X117466642Y-105473174D01*
G37*
%TD.AperFunction*%
%TA.AperFunction,SMDPad,CuDef*%
G36*
X115591642Y-105473174D02*
G01*
X115615303Y-105476684D01*
X115638507Y-105482496D01*
X115661029Y-105490554D01*
X115682653Y-105500782D01*
X115703170Y-105513079D01*
X115722383Y-105527329D01*
X115740107Y-105543393D01*
X115756171Y-105561117D01*
X115770421Y-105580330D01*
X115782718Y-105600847D01*
X115792946Y-105622471D01*
X115801004Y-105644993D01*
X115806816Y-105668197D01*
X115810326Y-105691858D01*
X115811500Y-105715750D01*
X115811500Y-106628250D01*
X115810326Y-106652142D01*
X115806816Y-106675803D01*
X115801004Y-106699007D01*
X115792946Y-106721529D01*
X115782718Y-106743153D01*
X115770421Y-106763670D01*
X115756171Y-106782883D01*
X115740107Y-106800607D01*
X115722383Y-106816671D01*
X115703170Y-106830921D01*
X115682653Y-106843218D01*
X115661029Y-106853446D01*
X115638507Y-106861504D01*
X115615303Y-106867316D01*
X115591642Y-106870826D01*
X115567750Y-106872000D01*
X115080250Y-106872000D01*
X115056358Y-106870826D01*
X115032697Y-106867316D01*
X115009493Y-106861504D01*
X114986971Y-106853446D01*
X114965347Y-106843218D01*
X114944830Y-106830921D01*
X114925617Y-106816671D01*
X114907893Y-106800607D01*
X114891829Y-106782883D01*
X114877579Y-106763670D01*
X114865282Y-106743153D01*
X114855054Y-106721529D01*
X114846996Y-106699007D01*
X114841184Y-106675803D01*
X114837674Y-106652142D01*
X114836500Y-106628250D01*
X114836500Y-105715750D01*
X114837674Y-105691858D01*
X114841184Y-105668197D01*
X114846996Y-105644993D01*
X114855054Y-105622471D01*
X114865282Y-105600847D01*
X114877579Y-105580330D01*
X114891829Y-105561117D01*
X114907893Y-105543393D01*
X114925617Y-105527329D01*
X114944830Y-105513079D01*
X114965347Y-105500782D01*
X114986971Y-105490554D01*
X115009493Y-105482496D01*
X115032697Y-105476684D01*
X115056358Y-105473174D01*
X115080250Y-105472000D01*
X115567750Y-105472000D01*
X115591642Y-105473174D01*
G37*
%TD.AperFunction*%
%TA.AperFunction,SMDPad,CuDef*%
G36*
X108774142Y-105473174D02*
G01*
X108797803Y-105476684D01*
X108821007Y-105482496D01*
X108843529Y-105490554D01*
X108865153Y-105500782D01*
X108885670Y-105513079D01*
X108904883Y-105527329D01*
X108922607Y-105543393D01*
X108938671Y-105561117D01*
X108952921Y-105580330D01*
X108965218Y-105600847D01*
X108975446Y-105622471D01*
X108983504Y-105644993D01*
X108989316Y-105668197D01*
X108992826Y-105691858D01*
X108994000Y-105715750D01*
X108994000Y-106628250D01*
X108992826Y-106652142D01*
X108989316Y-106675803D01*
X108983504Y-106699007D01*
X108975446Y-106721529D01*
X108965218Y-106743153D01*
X108952921Y-106763670D01*
X108938671Y-106782883D01*
X108922607Y-106800607D01*
X108904883Y-106816671D01*
X108885670Y-106830921D01*
X108865153Y-106843218D01*
X108843529Y-106853446D01*
X108821007Y-106861504D01*
X108797803Y-106867316D01*
X108774142Y-106870826D01*
X108750250Y-106872000D01*
X108262750Y-106872000D01*
X108238858Y-106870826D01*
X108215197Y-106867316D01*
X108191993Y-106861504D01*
X108169471Y-106853446D01*
X108147847Y-106843218D01*
X108127330Y-106830921D01*
X108108117Y-106816671D01*
X108090393Y-106800607D01*
X108074329Y-106782883D01*
X108060079Y-106763670D01*
X108047782Y-106743153D01*
X108037554Y-106721529D01*
X108029496Y-106699007D01*
X108023684Y-106675803D01*
X108020174Y-106652142D01*
X108019000Y-106628250D01*
X108019000Y-105715750D01*
X108020174Y-105691858D01*
X108023684Y-105668197D01*
X108029496Y-105644993D01*
X108037554Y-105622471D01*
X108047782Y-105600847D01*
X108060079Y-105580330D01*
X108074329Y-105561117D01*
X108090393Y-105543393D01*
X108108117Y-105527329D01*
X108127330Y-105513079D01*
X108147847Y-105500782D01*
X108169471Y-105490554D01*
X108191993Y-105482496D01*
X108215197Y-105476684D01*
X108238858Y-105473174D01*
X108262750Y-105472000D01*
X108750250Y-105472000D01*
X108774142Y-105473174D01*
G37*
%TD.AperFunction*%
%TA.AperFunction,SMDPad,CuDef*%
G36*
X106899142Y-105473174D02*
G01*
X106922803Y-105476684D01*
X106946007Y-105482496D01*
X106968529Y-105490554D01*
X106990153Y-105500782D01*
X107010670Y-105513079D01*
X107029883Y-105527329D01*
X107047607Y-105543393D01*
X107063671Y-105561117D01*
X107077921Y-105580330D01*
X107090218Y-105600847D01*
X107100446Y-105622471D01*
X107108504Y-105644993D01*
X107114316Y-105668197D01*
X107117826Y-105691858D01*
X107119000Y-105715750D01*
X107119000Y-106628250D01*
X107117826Y-106652142D01*
X107114316Y-106675803D01*
X107108504Y-106699007D01*
X107100446Y-106721529D01*
X107090218Y-106743153D01*
X107077921Y-106763670D01*
X107063671Y-106782883D01*
X107047607Y-106800607D01*
X107029883Y-106816671D01*
X107010670Y-106830921D01*
X106990153Y-106843218D01*
X106968529Y-106853446D01*
X106946007Y-106861504D01*
X106922803Y-106867316D01*
X106899142Y-106870826D01*
X106875250Y-106872000D01*
X106387750Y-106872000D01*
X106363858Y-106870826D01*
X106340197Y-106867316D01*
X106316993Y-106861504D01*
X106294471Y-106853446D01*
X106272847Y-106843218D01*
X106252330Y-106830921D01*
X106233117Y-106816671D01*
X106215393Y-106800607D01*
X106199329Y-106782883D01*
X106185079Y-106763670D01*
X106172782Y-106743153D01*
X106162554Y-106721529D01*
X106154496Y-106699007D01*
X106148684Y-106675803D01*
X106145174Y-106652142D01*
X106144000Y-106628250D01*
X106144000Y-105715750D01*
X106145174Y-105691858D01*
X106148684Y-105668197D01*
X106154496Y-105644993D01*
X106162554Y-105622471D01*
X106172782Y-105600847D01*
X106185079Y-105580330D01*
X106199329Y-105561117D01*
X106215393Y-105543393D01*
X106233117Y-105527329D01*
X106252330Y-105513079D01*
X106272847Y-105500782D01*
X106294471Y-105490554D01*
X106316993Y-105482496D01*
X106340197Y-105476684D01*
X106363858Y-105473174D01*
X106387750Y-105472000D01*
X106875250Y-105472000D01*
X106899142Y-105473174D01*
G37*
%TD.AperFunction*%
D14*
X132778000Y-108636000D03*
X132778000Y-111836000D03*
X137678000Y-108636000D03*
X137678000Y-111836000D03*
X123280000Y-108636000D03*
X123280000Y-111836000D03*
X128180000Y-108636000D03*
X128180000Y-111836000D03*
X113890000Y-108636000D03*
X113890000Y-111836000D03*
X118790000Y-108636000D03*
X118790000Y-111836000D03*
D20*
X106180000Y-82210000D03*
X106180000Y-83480000D03*
X106180000Y-84750000D03*
X106180000Y-86020000D03*
X106180000Y-87290000D03*
X107340000Y-87290000D03*
X107340000Y-86020000D03*
X107340000Y-84750000D03*
X107340000Y-83480000D03*
X107340000Y-82210000D03*
D21*
X156464000Y-107950000D03*
X119126000Y-76200000D03*
X111379000Y-80137000D03*
X121920000Y-80518000D03*
X114300000Y-76200000D03*
X107315000Y-93345000D03*
X103886000Y-83566000D03*
X107188000Y-115062000D03*
X131064000Y-114808000D03*
X113792000Y-92202000D03*
X121793000Y-92075000D03*
X144145000Y-77851000D03*
X131445000Y-77978000D03*
X147701000Y-85725000D03*
X124968000Y-98425000D03*
X145034000Y-96139000D03*
X105537000Y-104140000D03*
X107696000Y-101854000D03*
X126111000Y-82169000D03*
X116078000Y-81280000D03*
X131064000Y-100330000D03*
X136398000Y-80645000D03*
X104013000Y-100203000D03*
X106631500Y-100251500D03*
X109601000Y-83566000D03*
X142748000Y-86233000D03*
X155575000Y-88138000D03*
X110871000Y-106934000D03*
X117602000Y-104140000D03*
X121158000Y-110744000D03*
X123317000Y-100330000D03*
X143764000Y-92202000D03*
X141732000Y-90170000D03*
X134493000Y-94996000D03*
X124079000Y-82804000D03*
X107061000Y-98679000D03*
X122555000Y-103505000D03*
X127762000Y-82550000D03*
X143891000Y-101092000D03*
X149733000Y-103994000D03*
X113792000Y-106807000D03*
X113792000Y-105283000D03*
X145161000Y-102743000D03*
X120142000Y-82296000D03*
X151257000Y-104648000D03*
X133477000Y-99949000D03*
X116332000Y-79756000D03*
X107061000Y-89154000D03*
X105283000Y-89154000D03*
X105283000Y-80973798D03*
X128397000Y-97917000D03*
X123063000Y-96647000D03*
D22*
X105918000Y-111318000D02*
X105900000Y-111300000D01*
X160147000Y-102235000D02*
X158115000Y-102235000D01*
X164338000Y-106426000D02*
X160147000Y-102235000D01*
X147665000Y-106007000D02*
X148569000Y-106007000D01*
X150512000Y-107950000D02*
X156464000Y-107950000D01*
X148569000Y-106007000D02*
X150512000Y-107950000D01*
X106094000Y-83566000D02*
X106180000Y-83480000D01*
X103886000Y-83566000D02*
X106094000Y-83566000D01*
X105900000Y-113774000D02*
X107188000Y-115062000D01*
X105900000Y-111300000D02*
X105900000Y-113774000D01*
X105017000Y-97379000D02*
X104013000Y-97379000D01*
X105664000Y-98026000D02*
X105017000Y-97379000D01*
X105900000Y-110350000D02*
X104996000Y-110350000D01*
X104394000Y-101473000D02*
X105664000Y-100203000D01*
X104394000Y-109748000D02*
X104394000Y-101473000D01*
X104996000Y-110350000D02*
X104394000Y-109748000D01*
X105664000Y-100203000D02*
X105664000Y-98026000D01*
X123280000Y-111082000D02*
X123280000Y-111836000D01*
X120834000Y-108636000D02*
X123280000Y-111082000D01*
X118790000Y-108636000D02*
X120834000Y-108636000D01*
X130332000Y-108636000D02*
X132778000Y-111082000D01*
X132778000Y-111082000D02*
X132778000Y-111836000D01*
X128180000Y-108636000D02*
X130332000Y-108636000D01*
X114809000Y-81280000D02*
X113919000Y-80390000D01*
X116078000Y-81280000D02*
X114809000Y-81280000D01*
X131629685Y-100330000D02*
X131064000Y-100330000D01*
X136997002Y-100603002D02*
X131902687Y-100603002D01*
X131902687Y-100603002D02*
X131629685Y-100330000D01*
X143165000Y-106007000D02*
X142401000Y-106007000D01*
X142401000Y-106007000D02*
X136997002Y-100603002D01*
X143165000Y-107036000D02*
X143165000Y-113957000D01*
X143165000Y-106007000D02*
X143165000Y-107036000D01*
X136095000Y-77597000D02*
X136095000Y-80342000D01*
X136095000Y-80342000D02*
X136398000Y-80645000D01*
X105900000Y-106903500D02*
X106631500Y-106172000D01*
X105900000Y-109400000D02*
X105900000Y-106903500D01*
X104013000Y-98679000D02*
X104013000Y-100203000D01*
X106631500Y-106172000D02*
X106631500Y-100251500D01*
X108457989Y-82280011D02*
X108839000Y-81899000D01*
X108839000Y-81899000D02*
X108839000Y-80390000D01*
X108457989Y-98425011D02*
X108457989Y-82280011D01*
X106631500Y-100251500D02*
X108457989Y-98425011D01*
X108839000Y-81145000D02*
X108839000Y-80390000D01*
X111387000Y-83693000D02*
X108839000Y-81145000D01*
X136462500Y-83693000D02*
X111387000Y-83693000D01*
X136462500Y-83693000D02*
X142367000Y-83693000D01*
X149518000Y-76454000D02*
X150622000Y-76454000D01*
X142367000Y-83605000D02*
X149518000Y-76454000D01*
X142367000Y-83693000D02*
X142367000Y-83605000D01*
X165036723Y-103480723D02*
X165036723Y-89598277D01*
X166878000Y-106426000D02*
X166878000Y-105322000D01*
X166878000Y-105322000D02*
X165036723Y-103480723D01*
X165036723Y-89598277D02*
X166370000Y-88265000D01*
X166370000Y-88265000D02*
X166370000Y-81915000D01*
X160909000Y-76454000D02*
X150622000Y-76454000D01*
X166370000Y-81915000D02*
X160909000Y-76454000D01*
X117786000Y-111836000D02*
X118790000Y-111836000D01*
X115324000Y-109374000D02*
X117786000Y-111836000D01*
X115324000Y-106172000D02*
X115324000Y-109374000D01*
X127176000Y-111836000D02*
X128180000Y-111836000D01*
X125102527Y-109762527D02*
X127176000Y-111836000D01*
X125102527Y-106657527D02*
X125102527Y-109762527D01*
X124617000Y-106172000D02*
X125102527Y-106657527D01*
X123662990Y-105217990D02*
X124617000Y-106172000D01*
X116278010Y-105217990D02*
X123662990Y-105217990D01*
X115324000Y-106172000D02*
X116278010Y-105217990D01*
X133414990Y-105217990D02*
X134369000Y-106172000D01*
X125571010Y-105217990D02*
X133414990Y-105217990D01*
X124617000Y-106172000D02*
X125571010Y-105217990D01*
X136674000Y-111836000D02*
X137678000Y-111836000D01*
X134369000Y-109531000D02*
X136674000Y-111836000D01*
X134369000Y-106172000D02*
X134369000Y-109531000D01*
X108839000Y-104759000D02*
X110232998Y-106152998D01*
X108839000Y-103250000D02*
X108839000Y-104759000D01*
X114836500Y-106172000D02*
X115324000Y-106172000D01*
X110232998Y-106152998D02*
X114817498Y-106152998D01*
X114817498Y-106152998D02*
X114836500Y-106172000D01*
X106180000Y-82210000D02*
X107340000Y-82210000D01*
X108839000Y-84328000D02*
X109601000Y-83566000D01*
X108839000Y-103250000D02*
X108839000Y-84328000D01*
X112268000Y-86233000D02*
X109601000Y-83566000D01*
X139762500Y-86233000D02*
X112268000Y-86233000D01*
X142748000Y-86233000D02*
X139762500Y-86233000D01*
X155575000Y-102235000D02*
X155575000Y-88138000D01*
X109200000Y-109400000D02*
X109200000Y-108605000D01*
X109200000Y-108605000D02*
X110871000Y-106934000D01*
X118109000Y-104140000D02*
X118999000Y-103250000D01*
X117602000Y-104140000D02*
X118109000Y-104140000D01*
X123971001Y-100385797D02*
X130503798Y-93853000D01*
X130503798Y-93853000D02*
X136462500Y-93853000D01*
X123971001Y-100643921D02*
X123971001Y-100385797D01*
X118999000Y-103250000D02*
X121364922Y-103250000D01*
X121364922Y-103250000D02*
X123971001Y-100643921D01*
X140843000Y-93853000D02*
X150622000Y-84074000D01*
X148971000Y-102235000D02*
X140716000Y-93980000D01*
X150495000Y-102235000D02*
X148971000Y-102235000D01*
X136462500Y-93853000D02*
X140716000Y-93980000D01*
X140716000Y-93980000D02*
X140843000Y-93853000D01*
X154686000Y-106426000D02*
X150495000Y-102235000D01*
X159258000Y-106426000D02*
X154686000Y-106426000D01*
X130930000Y-91313000D02*
X139762500Y-91313000D01*
X122293000Y-99950000D02*
X130930000Y-91313000D01*
X121539000Y-99950000D02*
X122293000Y-99950000D01*
X110104001Y-111299999D02*
X112850002Y-114046000D01*
X109200000Y-111300000D02*
X110104001Y-111299999D01*
X112850002Y-114046000D02*
X120523000Y-114046000D01*
X120523000Y-114046000D02*
X121158000Y-113411000D01*
X121158000Y-113411000D02*
X121158000Y-110744000D01*
X121919000Y-100330000D02*
X121539000Y-99950000D01*
X123317000Y-100330000D02*
X121919000Y-100330000D01*
X140843000Y-91313000D02*
X139762500Y-91313000D01*
X153035000Y-102235000D02*
X143764000Y-92964000D01*
X143764000Y-92964000D02*
X143764000Y-92202000D01*
X150622000Y-81534000D02*
X141732000Y-90170000D01*
X141732000Y-90170000D02*
X140843000Y-91313000D01*
X161798000Y-106426000D02*
X159893000Y-104521000D01*
X155321000Y-104521000D02*
X153035000Y-102235000D01*
X159893000Y-104521000D02*
X155321000Y-104521000D01*
X137095298Y-96393000D02*
X135825298Y-95123000D01*
X139762500Y-96393000D02*
X137095298Y-96393000D01*
X135825298Y-95123000D02*
X134620000Y-95123000D01*
X134620000Y-95123000D02*
X134493000Y-94996000D01*
X124079000Y-82804000D02*
X124079000Y-80390000D01*
X106180000Y-87290000D02*
X106180000Y-97798000D01*
X106180000Y-97798000D02*
X107061000Y-98679000D01*
X123824000Y-103505000D02*
X124079000Y-103250000D01*
X122555000Y-103505000D02*
X123824000Y-103505000D01*
X116839000Y-77470000D02*
X116459000Y-77090000D01*
X116459000Y-78599000D02*
X116740999Y-78880999D01*
X116459000Y-77090000D02*
X116459000Y-78599000D01*
X116740999Y-78880999D02*
X124782201Y-78880999D01*
X124782201Y-78880999D02*
X127762000Y-81860798D01*
X127762000Y-81860798D02*
X127762000Y-82550000D01*
X143891000Y-101092000D02*
X146831000Y-101092000D01*
X146831000Y-101092000D02*
X149733000Y-103994000D01*
X113792000Y-103377000D02*
X113919000Y-103250000D01*
X113792000Y-105283000D02*
X113792000Y-103377000D01*
X112395000Y-108204000D02*
X113792000Y-106807000D01*
X112395000Y-110091000D02*
X112395000Y-108204000D01*
X113890000Y-111836000D02*
X114140000Y-111836000D01*
X114140000Y-111836000D02*
X112395000Y-110091000D01*
X119753000Y-80390000D02*
X118999000Y-80390000D01*
X120142000Y-80779000D02*
X119753000Y-80390000D01*
X120142000Y-82296000D02*
X120142000Y-80779000D01*
X145394202Y-102743000D02*
X145161000Y-102743000D01*
X147066000Y-104648000D02*
X145161000Y-102743000D01*
X151257000Y-104648000D02*
X147066000Y-104648000D01*
X139762500Y-100719000D02*
X138992500Y-99949000D01*
X139762500Y-101473000D02*
X139762500Y-100719000D01*
X138992500Y-99949000D02*
X133477000Y-99949000D01*
X113666000Y-77090000D02*
X111379000Y-77090000D01*
X116332000Y-79756000D02*
X113666000Y-77090000D01*
X107340000Y-87290000D02*
X107340000Y-88875000D01*
X107340000Y-88875000D02*
X107061000Y-89154000D01*
X121539000Y-75581000D02*
X121539000Y-77090000D01*
X121142000Y-75184000D02*
X121539000Y-75581000D01*
X106807000Y-79449798D02*
X106807000Y-77724000D01*
X106807000Y-77724000D02*
X109347000Y-75184000D01*
X109347000Y-75184000D02*
X121142000Y-75184000D01*
X105283000Y-80973798D02*
X105283000Y-80973798D01*
X105283000Y-80973798D02*
X106807000Y-79449798D01*
X136462500Y-98933000D02*
X129413000Y-98933000D01*
X129413000Y-98933000D02*
X128397000Y-97917000D01*
X117853001Y-97046999D02*
X116459000Y-98441000D01*
X116459000Y-98441000D02*
X116459000Y-99950000D01*
X122663001Y-97046999D02*
X117853001Y-97046999D01*
X123063000Y-96647000D02*
X122663001Y-97046999D01*
G36*
X108805578Y-74642578D02*
G01*
X108781721Y-74671648D01*
X106294649Y-77158721D01*
X106265579Y-77182578D01*
X106241722Y-77211648D01*
X106241721Y-77211649D01*
X106170355Y-77298608D01*
X106099599Y-77430985D01*
X106056027Y-77574622D01*
X106041314Y-77724000D01*
X106045001Y-77761433D01*
X106045000Y-79134167D01*
X105240370Y-79938798D01*
X105181061Y-79938798D01*
X104981102Y-79978572D01*
X104792744Y-80056593D01*
X104623226Y-80169861D01*
X104479063Y-80314024D01*
X104365795Y-80483542D01*
X104287774Y-80671900D01*
X104248000Y-80871859D01*
X104248000Y-81075737D01*
X104287774Y-81275696D01*
X104365795Y-81464054D01*
X104479063Y-81633572D01*
X104623226Y-81777735D01*
X104792744Y-81891003D01*
X104981102Y-81969024D01*
X105067287Y-81986167D01*
X105045000Y-82098212D01*
X105045000Y-82321788D01*
X105088617Y-82541067D01*
X105174176Y-82747624D01*
X105277280Y-82901930D01*
X105188412Y-82916550D01*
X105097542Y-83120826D01*
X105048269Y-83338905D01*
X105042489Y-83562406D01*
X105080423Y-83782740D01*
X105160613Y-83991440D01*
X105188412Y-84043450D01*
X105277280Y-84058070D01*
X105174176Y-84212376D01*
X105088617Y-84418933D01*
X105045000Y-84638212D01*
X105045000Y-84861788D01*
X105088617Y-85081067D01*
X105174176Y-85287624D01*
X105239241Y-85385000D01*
X105174176Y-85482376D01*
X105088617Y-85688933D01*
X105045000Y-85908212D01*
X105045000Y-86131788D01*
X105088617Y-86351067D01*
X105174176Y-86557624D01*
X105239241Y-86655000D01*
X105174176Y-86752376D01*
X105088617Y-86958933D01*
X105045000Y-87178212D01*
X105045000Y-87401788D01*
X105088617Y-87621067D01*
X105174176Y-87827624D01*
X105298388Y-88013520D01*
X105408568Y-88123700D01*
X105384939Y-88119000D01*
X105181061Y-88119000D01*
X104981102Y-88158774D01*
X104792744Y-88236795D01*
X104623226Y-88350063D01*
X104479063Y-88494226D01*
X104365795Y-88663744D01*
X104287774Y-88852102D01*
X104248000Y-89052061D01*
X104248000Y-89255939D01*
X104287774Y-89455898D01*
X104365795Y-89644256D01*
X104479063Y-89813774D01*
X104623226Y-89957937D01*
X104792744Y-90071205D01*
X104981102Y-90149226D01*
X105181061Y-90189000D01*
X105384939Y-90189000D01*
X105418000Y-90182424D01*
X105418001Y-96729318D01*
X105374040Y-96705820D01*
X105352502Y-96634820D01*
X105293537Y-96524506D01*
X105214185Y-96427815D01*
X105117494Y-96348463D01*
X105007180Y-96289498D01*
X104887482Y-96253188D01*
X104763000Y-96240928D01*
X103263000Y-96240928D01*
X103138518Y-96253188D01*
X103018820Y-96289498D01*
X102908506Y-96348463D01*
X102811815Y-96427815D01*
X102732463Y-96524506D01*
X102673498Y-96634820D01*
X102637188Y-96754518D01*
X102624928Y-96879000D01*
X102624928Y-97879000D01*
X102637188Y-98003482D01*
X102637345Y-98004000D01*
X102637188Y-98004518D01*
X102624928Y-98129000D01*
X102624928Y-98679000D01*
X102627336Y-98703450D01*
X102627336Y-98728009D01*
X102639596Y-98852490D01*
X102658718Y-98948623D01*
X102695027Y-99068319D01*
X102732536Y-99158875D01*
X102791502Y-99269192D01*
X102845958Y-99350691D01*
X102925310Y-99447382D01*
X102994618Y-99516690D01*
X103091309Y-99596042D01*
X103148320Y-99634135D01*
X103095795Y-99712744D01*
X103017774Y-99901102D01*
X102978000Y-100101061D01*
X102978000Y-100304939D01*
X103017774Y-100504898D01*
X103095795Y-100693256D01*
X103209063Y-100862774D01*
X103353226Y-101006937D01*
X103522744Y-101120205D01*
X103684418Y-101187173D01*
X103643027Y-101323622D01*
X103628314Y-101473000D01*
X103632001Y-101510433D01*
X103632000Y-109710577D01*
X103628314Y-109748000D01*
X103632000Y-109785423D01*
X103632000Y-109785425D01*
X103643026Y-109897377D01*
X103686598Y-110041014D01*
X103695134Y-110056984D01*
X103757355Y-110173392D01*
X103781308Y-110202578D01*
X103852578Y-110289422D01*
X103881654Y-110313284D01*
X104430716Y-110862346D01*
X104454578Y-110891422D01*
X104504781Y-110932622D01*
X104570607Y-110986645D01*
X104608663Y-111006986D01*
X104614810Y-111010271D01*
X104615000Y-111014250D01*
X104773750Y-111173000D01*
X104825397Y-111173000D01*
X104895506Y-111230537D01*
X105005820Y-111289502D01*
X105125518Y-111325812D01*
X105250000Y-111338072D01*
X106550000Y-111338072D01*
X106674482Y-111325812D01*
X106794180Y-111289502D01*
X106904494Y-111230537D01*
X106974603Y-111173000D01*
X107026250Y-111173000D01*
X107185000Y-111014250D01*
X107188072Y-110950000D01*
X107175812Y-110825518D01*
X107175655Y-110825000D01*
X107175812Y-110824482D01*
X107188072Y-110700000D01*
X107188072Y-110000000D01*
X107175812Y-109875518D01*
X107175655Y-109875000D01*
X107175812Y-109874482D01*
X107188072Y-109750000D01*
X107188072Y-109050000D01*
X107175812Y-108925518D01*
X107139502Y-108805820D01*
X107080537Y-108695506D01*
X107001185Y-108598815D01*
X106904494Y-108519463D01*
X106794180Y-108460498D01*
X106674482Y-108424188D01*
X106662000Y-108422959D01*
X106662000Y-107510072D01*
X106875250Y-107510072D01*
X107047285Y-107493128D01*
X107212709Y-107442947D01*
X107365164Y-107361458D01*
X107498792Y-107251792D01*
X107504008Y-107245436D01*
X107567815Y-107323185D01*
X107664506Y-107402537D01*
X107774820Y-107461502D01*
X107894518Y-107497812D01*
X108019000Y-107510072D01*
X108220750Y-107507000D01*
X108379500Y-107348250D01*
X108379500Y-106299000D01*
X108359500Y-106299000D01*
X108359500Y-106045000D01*
X108379500Y-106045000D01*
X108379500Y-106025000D01*
X108633500Y-106025000D01*
X108633500Y-106045000D01*
X108653500Y-106045000D01*
X108653500Y-106299000D01*
X108633500Y-106299000D01*
X108633500Y-107348250D01*
X108792250Y-107507000D01*
X108994000Y-107510072D01*
X109118482Y-107497812D01*
X109238180Y-107461502D01*
X109297662Y-107429708D01*
X108687649Y-108039721D01*
X108658579Y-108063578D01*
X108634722Y-108092648D01*
X108634721Y-108092649D01*
X108563355Y-108179608D01*
X108492599Y-108311985D01*
X108459579Y-108420833D01*
X108425518Y-108424188D01*
X108305820Y-108460498D01*
X108195506Y-108519463D01*
X108098815Y-108598815D01*
X108019463Y-108695506D01*
X107960498Y-108805820D01*
X107924188Y-108925518D01*
X107911928Y-109050000D01*
X107911928Y-109750000D01*
X107924188Y-109874482D01*
X107924345Y-109875000D01*
X107924188Y-109875518D01*
X107911928Y-110000000D01*
X107911928Y-110700000D01*
X107924188Y-110824482D01*
X107924345Y-110825000D01*
X107924188Y-110825518D01*
X107911928Y-110950000D01*
X107911928Y-111650000D01*
X107924188Y-111774482D01*
X107960498Y-111894180D01*
X108019463Y-112004494D01*
X108098815Y-112101185D01*
X108195506Y-112180537D01*
X108305820Y-112239502D01*
X108425518Y-112275812D01*
X108550000Y-112288072D01*
X109850000Y-112288072D01*
X109974482Y-112275812D01*
X109995736Y-112269365D01*
X112284723Y-114558352D01*
X112308580Y-114587422D01*
X112337650Y-114611279D01*
X112424609Y-114682645D01*
X112471997Y-114707974D01*
X112556987Y-114753402D01*
X112700624Y-114796974D01*
X112812576Y-114808000D01*
X112812579Y-114808000D01*
X112850002Y-114811686D01*
X112887425Y-114808000D01*
X120485577Y-114808000D01*
X120523000Y-114811686D01*
X120560423Y-114808000D01*
X120560426Y-114808000D01*
X120672378Y-114796974D01*
X120816015Y-114753402D01*
X120948392Y-114682645D01*
X121064422Y-114587422D01*
X121088284Y-114558346D01*
X121670347Y-113976283D01*
X121699422Y-113952422D01*
X121759857Y-113878781D01*
X121794645Y-113836393D01*
X121839227Y-113752985D01*
X121865402Y-113704015D01*
X121908974Y-113560378D01*
X121920000Y-113448426D01*
X121920000Y-113448423D01*
X121923686Y-113411000D01*
X121920000Y-113373577D01*
X121920000Y-112512607D01*
X121940498Y-112580180D01*
X121999463Y-112690494D01*
X122078815Y-112787185D01*
X122175506Y-112866537D01*
X122285820Y-112925502D01*
X122405518Y-112961812D01*
X122530000Y-112974072D01*
X124030000Y-112974072D01*
X124154482Y-112961812D01*
X124274180Y-112925502D01*
X124384494Y-112866537D01*
X124481185Y-112787185D01*
X124560537Y-112690494D01*
X124619502Y-112580180D01*
X124655812Y-112460482D01*
X124668072Y-112336000D01*
X124668072Y-111336000D01*
X124655812Y-111211518D01*
X124619502Y-111091820D01*
X124560537Y-110981506D01*
X124481185Y-110884815D01*
X124384494Y-110805463D01*
X124274180Y-110746498D01*
X124154482Y-110710188D01*
X124030000Y-110697928D01*
X123938731Y-110697928D01*
X123916645Y-110656608D01*
X123821422Y-110540578D01*
X123792353Y-110516722D01*
X123020440Y-109744810D01*
X123153000Y-109612250D01*
X123153000Y-108763000D01*
X123133000Y-108763000D01*
X123133000Y-108509000D01*
X123153000Y-108509000D01*
X123153000Y-107659750D01*
X122994250Y-107501000D01*
X122530000Y-107497928D01*
X122405518Y-107510188D01*
X122285820Y-107546498D01*
X122175506Y-107605463D01*
X122078815Y-107684815D01*
X121999463Y-107781506D01*
X121940498Y-107891820D01*
X121904188Y-108011518D01*
X121891928Y-108136000D01*
X121895000Y-108350250D01*
X122053748Y-108508998D01*
X121895000Y-108508998D01*
X121895000Y-108619370D01*
X121399284Y-108123654D01*
X121375422Y-108094578D01*
X121259392Y-107999355D01*
X121127015Y-107928598D01*
X120983378Y-107885026D01*
X120871426Y-107874000D01*
X120871423Y-107874000D01*
X120834000Y-107870314D01*
X120796577Y-107874000D01*
X120119977Y-107874000D01*
X120070537Y-107781506D01*
X119991185Y-107684815D01*
X119894494Y-107605463D01*
X119784180Y-107546498D01*
X119664482Y-107510188D01*
X119540000Y-107497928D01*
X118040000Y-107497928D01*
X117915518Y-107510188D01*
X117795820Y-107546498D01*
X117685506Y-107605463D01*
X117588815Y-107684815D01*
X117509463Y-107781506D01*
X117450498Y-107891820D01*
X117414188Y-108011518D01*
X117401928Y-108136000D01*
X117401928Y-109136000D01*
X117414188Y-109260482D01*
X117450498Y-109380180D01*
X117509463Y-109490494D01*
X117588815Y-109587185D01*
X117685506Y-109666537D01*
X117795820Y-109725502D01*
X117915518Y-109761812D01*
X118040000Y-109774072D01*
X119540000Y-109774072D01*
X119664482Y-109761812D01*
X119784180Y-109725502D01*
X119894494Y-109666537D01*
X119991185Y-109587185D01*
X120070537Y-109490494D01*
X120119977Y-109398000D01*
X120518370Y-109398000D01*
X120866980Y-109746610D01*
X120856102Y-109748774D01*
X120667744Y-109826795D01*
X120498226Y-109940063D01*
X120354063Y-110084226D01*
X120240795Y-110253744D01*
X120162774Y-110442102D01*
X120123000Y-110642061D01*
X120123000Y-110845939D01*
X120162774Y-111045898D01*
X120240795Y-111234256D01*
X120354063Y-111403774D01*
X120396001Y-111445712D01*
X120396000Y-113095370D01*
X120207370Y-113284000D01*
X113165633Y-113284000D01*
X110669279Y-110787647D01*
X110645422Y-110758577D01*
X110582056Y-110706574D01*
X110529393Y-110663354D01*
X110488072Y-110641268D01*
X110488072Y-110000000D01*
X110475812Y-109875518D01*
X110475655Y-109875000D01*
X110475812Y-109874482D01*
X110488072Y-109750000D01*
X110488072Y-109050000D01*
X110475812Y-108925518D01*
X110439502Y-108805820D01*
X110380537Y-108695506D01*
X110301185Y-108598815D01*
X110291645Y-108590986D01*
X110913631Y-107969000D01*
X110972939Y-107969000D01*
X111172898Y-107929226D01*
X111361256Y-107851205D01*
X111530774Y-107737937D01*
X111674937Y-107593774D01*
X111788205Y-107424256D01*
X111866226Y-107235898D01*
X111906000Y-107035939D01*
X111906000Y-106914998D01*
X112606371Y-106914998D01*
X111882649Y-107638721D01*
X111853579Y-107662578D01*
X111829722Y-107691648D01*
X111829721Y-107691649D01*
X111758355Y-107778608D01*
X111687599Y-107910985D01*
X111644027Y-108054622D01*
X111629314Y-108204000D01*
X111633001Y-108241433D01*
X111633000Y-110053576D01*
X111629314Y-110091000D01*
X111633000Y-110128423D01*
X111633000Y-110128425D01*
X111644026Y-110240377D01*
X111687598Y-110384014D01*
X111689767Y-110388072D01*
X111758355Y-110516392D01*
X111785138Y-110549027D01*
X111853578Y-110632422D01*
X111882654Y-110656284D01*
X112507347Y-111280977D01*
X112501928Y-111336000D01*
X112501928Y-112336000D01*
X112514188Y-112460482D01*
X112550498Y-112580180D01*
X112609463Y-112690494D01*
X112688815Y-112787185D01*
X112785506Y-112866537D01*
X112895820Y-112925502D01*
X113015518Y-112961812D01*
X113140000Y-112974072D01*
X114640000Y-112974072D01*
X114764482Y-112961812D01*
X114884180Y-112925502D01*
X114994494Y-112866537D01*
X115091185Y-112787185D01*
X115170537Y-112690494D01*
X115229502Y-112580180D01*
X115265812Y-112460482D01*
X115278072Y-112336000D01*
X115278072Y-111336000D01*
X115265812Y-111211518D01*
X115229502Y-111091820D01*
X115170537Y-110981506D01*
X115091185Y-110884815D01*
X114994494Y-110805463D01*
X114884180Y-110746498D01*
X114764482Y-110710188D01*
X114640000Y-110697928D01*
X114079558Y-110697928D01*
X113157000Y-109775370D01*
X113157000Y-109773960D01*
X113604250Y-109771000D01*
X113763000Y-109612250D01*
X113763000Y-108763000D01*
X113743000Y-108763000D01*
X113743000Y-108509000D01*
X113763000Y-108509000D01*
X113763000Y-108489000D01*
X114017000Y-108489000D01*
X114017000Y-108509000D01*
X114037000Y-108509000D01*
X114037000Y-108763000D01*
X114017000Y-108763000D01*
X114017000Y-109612250D01*
X114175750Y-109771000D01*
X114640000Y-109774072D01*
X114672130Y-109770908D01*
X114687355Y-109799392D01*
X114749831Y-109875518D01*
X114782579Y-109915422D01*
X114811649Y-109939279D01*
X117220721Y-112348352D01*
X117244578Y-112377422D01*
X117273648Y-112401279D01*
X117360607Y-112472645D01*
X117428960Y-112509180D01*
X117450498Y-112580180D01*
X117509463Y-112690494D01*
X117588815Y-112787185D01*
X117685506Y-112866537D01*
X117795820Y-112925502D01*
X117915518Y-112961812D01*
X118040000Y-112974072D01*
X119540000Y-112974072D01*
X119664482Y-112961812D01*
X119784180Y-112925502D01*
X119894494Y-112866537D01*
X119991185Y-112787185D01*
X120070537Y-112690494D01*
X120129502Y-112580180D01*
X120165812Y-112460482D01*
X120178072Y-112336000D01*
X120178072Y-111336000D01*
X120165812Y-111211518D01*
X120129502Y-111091820D01*
X120070537Y-110981506D01*
X119991185Y-110884815D01*
X119894494Y-110805463D01*
X119784180Y-110746498D01*
X119664482Y-110710188D01*
X119540000Y-110697928D01*
X118040000Y-110697928D01*
X117915518Y-110710188D01*
X117795820Y-110746498D01*
X117781684Y-110754054D01*
X116086000Y-109058370D01*
X116086000Y-107338203D01*
X116191292Y-107251792D01*
X116196508Y-107245436D01*
X116260315Y-107323185D01*
X116357006Y-107402537D01*
X116467320Y-107461502D01*
X116587018Y-107497812D01*
X116711500Y-107510072D01*
X116913250Y-107507000D01*
X117072000Y-107348250D01*
X117072000Y-106299000D01*
X117326000Y-106299000D01*
X117326000Y-107348250D01*
X117484750Y-107507000D01*
X117686500Y-107510072D01*
X117810982Y-107497812D01*
X117930680Y-107461502D01*
X118040994Y-107402537D01*
X118137685Y-107323185D01*
X118217037Y-107226494D01*
X118276002Y-107116180D01*
X118312312Y-106996482D01*
X118324572Y-106872000D01*
X118321500Y-106457750D01*
X118162750Y-106299000D01*
X117326000Y-106299000D01*
X117072000Y-106299000D01*
X117052000Y-106299000D01*
X117052000Y-106045000D01*
X117072000Y-106045000D01*
X117072000Y-106025000D01*
X117326000Y-106025000D01*
X117326000Y-106045000D01*
X118162750Y-106045000D01*
X118227760Y-105979990D01*
X123347360Y-105979990D01*
X123491428Y-106124058D01*
X123491428Y-106628250D01*
X123508372Y-106800285D01*
X123558553Y-106965709D01*
X123640042Y-107118164D01*
X123749708Y-107251792D01*
X123883336Y-107361458D01*
X124035791Y-107442947D01*
X124201215Y-107493128D01*
X124340527Y-107506849D01*
X124340527Y-107581962D01*
X124274180Y-107546498D01*
X124154482Y-107510188D01*
X124030000Y-107497928D01*
X123565750Y-107501000D01*
X123407000Y-107659750D01*
X123407000Y-108509000D01*
X123427000Y-108509000D01*
X123427000Y-108763000D01*
X123407000Y-108763000D01*
X123407000Y-109612250D01*
X123565750Y-109771000D01*
X124030000Y-109774072D01*
X124154482Y-109761812D01*
X124274180Y-109725502D01*
X124340528Y-109690038D01*
X124340528Y-109725094D01*
X124336841Y-109762527D01*
X124351554Y-109911905D01*
X124395126Y-110055542D01*
X124465882Y-110187919D01*
X124519904Y-110253744D01*
X124561106Y-110303949D01*
X124590176Y-110327806D01*
X126610716Y-112348346D01*
X126634578Y-112377422D01*
X126708219Y-112437857D01*
X126750607Y-112472645D01*
X126818960Y-112509180D01*
X126840498Y-112580180D01*
X126899463Y-112690494D01*
X126978815Y-112787185D01*
X127075506Y-112866537D01*
X127185820Y-112925502D01*
X127305518Y-112961812D01*
X127430000Y-112974072D01*
X128930000Y-112974072D01*
X129054482Y-112961812D01*
X129174180Y-112925502D01*
X129284494Y-112866537D01*
X129381185Y-112787185D01*
X129460537Y-112690494D01*
X129519502Y-112580180D01*
X129555812Y-112460482D01*
X129568072Y-112336000D01*
X129568072Y-111336000D01*
X129555812Y-111211518D01*
X129519502Y-111091820D01*
X129460537Y-110981506D01*
X129381185Y-110884815D01*
X129284494Y-110805463D01*
X129174180Y-110746498D01*
X129054482Y-110710188D01*
X128930000Y-110697928D01*
X127430000Y-110697928D01*
X127305518Y-110710188D01*
X127185820Y-110746498D01*
X127171684Y-110754054D01*
X125864527Y-109446897D01*
X125864527Y-108136000D01*
X126791928Y-108136000D01*
X126791928Y-109136000D01*
X126804188Y-109260482D01*
X126840498Y-109380180D01*
X126899463Y-109490494D01*
X126978815Y-109587185D01*
X127075506Y-109666537D01*
X127185820Y-109725502D01*
X127305518Y-109761812D01*
X127430000Y-109774072D01*
X128930000Y-109774072D01*
X129054482Y-109761812D01*
X129174180Y-109725502D01*
X129284494Y-109666537D01*
X129381185Y-109587185D01*
X129460537Y-109490494D01*
X129509977Y-109398000D01*
X130016370Y-109398000D01*
X131543626Y-110925256D01*
X131497463Y-110981506D01*
X131438498Y-111091820D01*
X131402188Y-111211518D01*
X131389928Y-111336000D01*
X131389928Y-112336000D01*
X131402188Y-112460482D01*
X131438498Y-112580180D01*
X131497463Y-112690494D01*
X131576815Y-112787185D01*
X131673506Y-112866537D01*
X131783820Y-112925502D01*
X131903518Y-112961812D01*
X132028000Y-112974072D01*
X133528000Y-112974072D01*
X133652482Y-112961812D01*
X133772180Y-112925502D01*
X133882494Y-112866537D01*
X133979185Y-112787185D01*
X134058537Y-112690494D01*
X134117502Y-112580180D01*
X134153812Y-112460482D01*
X134166072Y-112336000D01*
X134166072Y-111336000D01*
X134153812Y-111211518D01*
X134117502Y-111091820D01*
X134058537Y-110981506D01*
X133979185Y-110884815D01*
X133882494Y-110805463D01*
X133772180Y-110746498D01*
X133652482Y-110710188D01*
X133528000Y-110697928D01*
X133436731Y-110697928D01*
X133414645Y-110656608D01*
X133319422Y-110540578D01*
X133290353Y-110516722D01*
X132518440Y-109744810D01*
X132651000Y-109612250D01*
X132651000Y-108763000D01*
X132631000Y-108763000D01*
X132631000Y-108509000D01*
X132651000Y-108509000D01*
X132651000Y-107659750D01*
X132492250Y-107501000D01*
X132028000Y-107497928D01*
X131903518Y-107510188D01*
X131783820Y-107546498D01*
X131673506Y-107605463D01*
X131576815Y-107684815D01*
X131497463Y-107781506D01*
X131438498Y-107891820D01*
X131402188Y-108011518D01*
X131389928Y-108136000D01*
X131393000Y-108350250D01*
X131551748Y-108508998D01*
X131393000Y-108508998D01*
X131393000Y-108619370D01*
X130897284Y-108123654D01*
X130873422Y-108094578D01*
X130757392Y-107999355D01*
X130625015Y-107928598D01*
X130481378Y-107885026D01*
X130369426Y-107874000D01*
X130369423Y-107874000D01*
X130332000Y-107870314D01*
X130294577Y-107874000D01*
X129509977Y-107874000D01*
X129460537Y-107781506D01*
X129381185Y-107684815D01*
X129284494Y-107605463D01*
X129174180Y-107546498D01*
X129054482Y-107510188D01*
X128930000Y-107497928D01*
X127430000Y-107497928D01*
X127305518Y-107510188D01*
X127185820Y-107546498D01*
X127075506Y-107605463D01*
X126978815Y-107684815D01*
X126899463Y-107781506D01*
X126840498Y-107891820D01*
X126804188Y-108011518D01*
X126791928Y-108136000D01*
X125864527Y-108136000D01*
X125864527Y-107493113D01*
X125880018Y-107497812D01*
X126004500Y-107510072D01*
X126206250Y-107507000D01*
X126365000Y-107348250D01*
X126365000Y-106299000D01*
X126619000Y-106299000D01*
X126619000Y-107348250D01*
X126777750Y-107507000D01*
X126979500Y-107510072D01*
X127103982Y-107497812D01*
X127223680Y-107461502D01*
X127333994Y-107402537D01*
X127430685Y-107323185D01*
X127510037Y-107226494D01*
X127569002Y-107116180D01*
X127605312Y-106996482D01*
X127617572Y-106872000D01*
X127614500Y-106457750D01*
X127455750Y-106299000D01*
X126619000Y-106299000D01*
X126365000Y-106299000D01*
X126345000Y-106299000D01*
X126345000Y-106045000D01*
X126365000Y-106045000D01*
X126365000Y-106025000D01*
X126619000Y-106025000D01*
X126619000Y-106045000D01*
X127455750Y-106045000D01*
X127520760Y-105979990D01*
X133099360Y-105979990D01*
X133243428Y-106124058D01*
X133243428Y-106628250D01*
X133260372Y-106800285D01*
X133310553Y-106965709D01*
X133392042Y-107118164D01*
X133501708Y-107251792D01*
X133607000Y-107338203D01*
X133607000Y-107505709D01*
X133528000Y-107497928D01*
X133063750Y-107501000D01*
X132905000Y-107659750D01*
X132905000Y-108509000D01*
X132925000Y-108509000D01*
X132925000Y-108763000D01*
X132905000Y-108763000D01*
X132905000Y-109612250D01*
X133063750Y-109771000D01*
X133528000Y-109774072D01*
X133643013Y-109762745D01*
X133661599Y-109824015D01*
X133732355Y-109956392D01*
X133801803Y-110041014D01*
X133827579Y-110072422D01*
X133856649Y-110096279D01*
X136108721Y-112348352D01*
X136132578Y-112377422D01*
X136248608Y-112472645D01*
X136316960Y-112509180D01*
X136338498Y-112580180D01*
X136397463Y-112690494D01*
X136476815Y-112787185D01*
X136573506Y-112866537D01*
X136683820Y-112925502D01*
X136803518Y-112961812D01*
X136928000Y-112974072D01*
X138428000Y-112974072D01*
X138552482Y-112961812D01*
X138672180Y-112925502D01*
X138782494Y-112866537D01*
X138879185Y-112787185D01*
X138958537Y-112690494D01*
X139017502Y-112580180D01*
X139053812Y-112460482D01*
X139066072Y-112336000D01*
X139066072Y-111336000D01*
X139053812Y-111211518D01*
X139017502Y-111091820D01*
X138958537Y-110981506D01*
X138879185Y-110884815D01*
X138782494Y-110805463D01*
X138672180Y-110746498D01*
X138552482Y-110710188D01*
X138428000Y-110697928D01*
X136928000Y-110697928D01*
X136803518Y-110710188D01*
X136683820Y-110746498D01*
X136669684Y-110754054D01*
X135131000Y-109215370D01*
X135131000Y-108136000D01*
X136289928Y-108136000D01*
X136289928Y-109136000D01*
X136302188Y-109260482D01*
X136338498Y-109380180D01*
X136397463Y-109490494D01*
X136476815Y-109587185D01*
X136573506Y-109666537D01*
X136683820Y-109725502D01*
X136803518Y-109761812D01*
X136928000Y-109774072D01*
X138428000Y-109774072D01*
X138552482Y-109761812D01*
X138672180Y-109725502D01*
X138782494Y-109666537D01*
X138879185Y-109587185D01*
X138958537Y-109490494D01*
X139017502Y-109380180D01*
X139053812Y-109260482D01*
X139066072Y-109136000D01*
X139066072Y-108136000D01*
X139053812Y-108011518D01*
X139017502Y-107891820D01*
X138958537Y-107781506D01*
X138879185Y-107684815D01*
X138782494Y-107605463D01*
X138672180Y-107546498D01*
X138552482Y-107510188D01*
X138428000Y-107497928D01*
X136928000Y-107497928D01*
X136803518Y-107510188D01*
X136683820Y-107546498D01*
X136573506Y-107605463D01*
X136476815Y-107684815D01*
X136397463Y-107781506D01*
X136338498Y-107891820D01*
X136302188Y-108011518D01*
X136289928Y-108136000D01*
X135131000Y-108136000D01*
X135131000Y-107338203D01*
X135236292Y-107251792D01*
X135241508Y-107245436D01*
X135305315Y-107323185D01*
X135402006Y-107402537D01*
X135512320Y-107461502D01*
X135632018Y-107497812D01*
X135756500Y-107510072D01*
X135958250Y-107507000D01*
X136117000Y-107348250D01*
X136117000Y-106299000D01*
X136371000Y-106299000D01*
X136371000Y-107348250D01*
X136529750Y-107507000D01*
X136731500Y-107510072D01*
X136855982Y-107497812D01*
X136975680Y-107461502D01*
X137085994Y-107402537D01*
X137182685Y-107323185D01*
X137262037Y-107226494D01*
X137321002Y-107116180D01*
X137357312Y-106996482D01*
X137369572Y-106872000D01*
X137366500Y-106457750D01*
X137207750Y-106299000D01*
X136371000Y-106299000D01*
X136117000Y-106299000D01*
X136097000Y-106299000D01*
X136097000Y-106045000D01*
X136117000Y-106045000D01*
X136117000Y-104995750D01*
X136371000Y-104995750D01*
X136371000Y-106045000D01*
X137207750Y-106045000D01*
X137366500Y-105886250D01*
X137369572Y-105472000D01*
X137357312Y-105347518D01*
X137321002Y-105227820D01*
X137262037Y-105117506D01*
X137182685Y-105020815D01*
X137085994Y-104941463D01*
X136975680Y-104882498D01*
X136855982Y-104846188D01*
X136731500Y-104833928D01*
X136529750Y-104837000D01*
X136371000Y-104995750D01*
X136117000Y-104995750D01*
X135958250Y-104837000D01*
X135756500Y-104833928D01*
X135632018Y-104846188D01*
X135512320Y-104882498D01*
X135402006Y-104941463D01*
X135305315Y-105020815D01*
X135241508Y-105098564D01*
X135236292Y-105092208D01*
X135102664Y-104982542D01*
X134950209Y-104901053D01*
X134784785Y-104850872D01*
X134612750Y-104833928D01*
X134125250Y-104833928D01*
X134110055Y-104835425D01*
X133980274Y-104705644D01*
X133956412Y-104676568D01*
X133840382Y-104581345D01*
X133708005Y-104510588D01*
X133564368Y-104467016D01*
X133452416Y-104455990D01*
X133452413Y-104455990D01*
X133414990Y-104452304D01*
X133377567Y-104455990D01*
X125608433Y-104455990D01*
X125571010Y-104452304D01*
X125533587Y-104455990D01*
X125533584Y-104455990D01*
X125421632Y-104467016D01*
X125277995Y-104510588D01*
X125258516Y-104521000D01*
X125213106Y-104545272D01*
X125217072Y-104505000D01*
X125217072Y-101995000D01*
X125204812Y-101870518D01*
X125168502Y-101750820D01*
X125109537Y-101640506D01*
X125030185Y-101543815D01*
X124933494Y-101464463D01*
X124823180Y-101405498D01*
X124703482Y-101369188D01*
X124579000Y-101356928D01*
X124335625Y-101356928D01*
X124483354Y-101209199D01*
X124512423Y-101185343D01*
X124607646Y-101069313D01*
X124678403Y-100936936D01*
X124721975Y-100793299D01*
X124730807Y-100703621D01*
X125480928Y-99953500D01*
X125480928Y-101205000D01*
X125493188Y-101329482D01*
X125529498Y-101449180D01*
X125588463Y-101559494D01*
X125667815Y-101656185D01*
X125764506Y-101735537D01*
X125874820Y-101794502D01*
X125994518Y-101830812D01*
X126119000Y-101843072D01*
X127119000Y-101843072D01*
X127243482Y-101830812D01*
X127363180Y-101794502D01*
X127473494Y-101735537D01*
X127570185Y-101656185D01*
X127649537Y-101559494D01*
X127708502Y-101449180D01*
X127744812Y-101329482D01*
X127757072Y-101205000D01*
X127757072Y-98734198D01*
X127906744Y-98834205D01*
X128095102Y-98912226D01*
X128295061Y-98952000D01*
X128354370Y-98952000D01*
X128847721Y-99445351D01*
X128871578Y-99474422D01*
X128900648Y-99498279D01*
X128987607Y-99569645D01*
X129036993Y-99596042D01*
X129119985Y-99640402D01*
X129263622Y-99683974D01*
X129375574Y-99695000D01*
X129375577Y-99695000D01*
X129413000Y-99698686D01*
X129450423Y-99695000D01*
X130243510Y-99695000D01*
X130146795Y-99839744D01*
X130068774Y-100028102D01*
X130029000Y-100228061D01*
X130029000Y-100431939D01*
X130068774Y-100631898D01*
X130146795Y-100820256D01*
X130260063Y-100989774D01*
X130404226Y-101133937D01*
X130573744Y-101247205D01*
X130762102Y-101325226D01*
X130962061Y-101365000D01*
X131165939Y-101365000D01*
X131365898Y-101325226D01*
X131518863Y-101261865D01*
X131609672Y-101310404D01*
X131753309Y-101353976D01*
X131865261Y-101365002D01*
X131865263Y-101365002D01*
X131902686Y-101368688D01*
X131940109Y-101365002D01*
X136681372Y-101365002D01*
X141835721Y-106519352D01*
X141859578Y-106548422D01*
X141876928Y-106562661D01*
X141876928Y-106782000D01*
X141889188Y-106906482D01*
X141925498Y-107026180D01*
X141984463Y-107136494D01*
X142063815Y-107233185D01*
X142160506Y-107312537D01*
X142270820Y-107371502D01*
X142390518Y-107407812D01*
X142403000Y-107409041D01*
X142403001Y-112554959D01*
X142390518Y-112556188D01*
X142270820Y-112592498D01*
X142160506Y-112651463D01*
X142063815Y-112730815D01*
X141984463Y-112827506D01*
X141925498Y-112937820D01*
X141889188Y-113057518D01*
X141876928Y-113182000D01*
X141876928Y-114732000D01*
X141889188Y-114856482D01*
X141925498Y-114976180D01*
X141984463Y-115086494D01*
X142063815Y-115183185D01*
X142160506Y-115262537D01*
X142270820Y-115321502D01*
X142390518Y-115357812D01*
X142515000Y-115370072D01*
X143815000Y-115370072D01*
X143939482Y-115357812D01*
X144059180Y-115321502D01*
X144169494Y-115262537D01*
X144266185Y-115183185D01*
X144345537Y-115086494D01*
X144404502Y-114976180D01*
X144440812Y-114856482D01*
X144453072Y-114732000D01*
X146376928Y-114732000D01*
X146389188Y-114856482D01*
X146425498Y-114976180D01*
X146484463Y-115086494D01*
X146563815Y-115183185D01*
X146660506Y-115262537D01*
X146770820Y-115321502D01*
X146890518Y-115357812D01*
X147015000Y-115370072D01*
X147379250Y-115367000D01*
X147538000Y-115208250D01*
X147538000Y-114084000D01*
X146538750Y-114084000D01*
X146380000Y-114242750D01*
X146376928Y-114732000D01*
X144453072Y-114732000D01*
X144453072Y-113182000D01*
X146376928Y-113182000D01*
X146380000Y-113671250D01*
X146538750Y-113830000D01*
X147538000Y-113830000D01*
X147538000Y-112705750D01*
X147379250Y-112547000D01*
X147015000Y-112543928D01*
X146890518Y-112556188D01*
X146770820Y-112592498D01*
X146660506Y-112651463D01*
X146563815Y-112730815D01*
X146484463Y-112827506D01*
X146425498Y-112937820D01*
X146389188Y-113057518D01*
X146376928Y-113182000D01*
X144453072Y-113182000D01*
X144440812Y-113057518D01*
X144404502Y-112937820D01*
X144345537Y-112827506D01*
X144266185Y-112730815D01*
X144169494Y-112651463D01*
X144059180Y-112592498D01*
X143939482Y-112556188D01*
X143927000Y-112554959D01*
X143927000Y-107409041D01*
X143939482Y-107407812D01*
X144059180Y-107371502D01*
X144169494Y-107312537D01*
X144266185Y-107233185D01*
X144345537Y-107136494D01*
X144404502Y-107026180D01*
X144440812Y-106906482D01*
X144453072Y-106782000D01*
X146376928Y-106782000D01*
X146389188Y-106906482D01*
X146425498Y-107026180D01*
X146484463Y-107136494D01*
X146563815Y-107233185D01*
X146660506Y-107312537D01*
X146770820Y-107371502D01*
X146890518Y-107407812D01*
X147015000Y-107420072D01*
X147379250Y-107417000D01*
X147538000Y-107258250D01*
X147538000Y-106134000D01*
X146538750Y-106134000D01*
X146380000Y-106292750D01*
X146376928Y-106782000D01*
X144453072Y-106782000D01*
X144453072Y-105232000D01*
X144440812Y-105107518D01*
X144404502Y-104987820D01*
X144345537Y-104877506D01*
X144266185Y-104780815D01*
X144169494Y-104701463D01*
X144059180Y-104642498D01*
X143939482Y-104606188D01*
X143815000Y-104593928D01*
X142515000Y-104593928D01*
X142390518Y-104606188D01*
X142270820Y-104642498D01*
X142168709Y-104697078D01*
X140082702Y-102611072D01*
X140712500Y-102611072D01*
X140836982Y-102598812D01*
X140956680Y-102562502D01*
X141066994Y-102503537D01*
X141163685Y-102424185D01*
X141243037Y-102327494D01*
X141302002Y-102217180D01*
X141338312Y-102097482D01*
X141350572Y-101973000D01*
X141350572Y-100973000D01*
X141338312Y-100848518D01*
X141302002Y-100728820D01*
X141243037Y-100618506D01*
X141163685Y-100521815D01*
X141066994Y-100442463D01*
X140956680Y-100383498D01*
X140836982Y-100347188D01*
X140712500Y-100334928D01*
X140421231Y-100334928D01*
X140399145Y-100293608D01*
X140303922Y-100177578D01*
X140274851Y-100153720D01*
X139557784Y-99436653D01*
X139533922Y-99407578D01*
X139417892Y-99312355D01*
X139285515Y-99241598D01*
X139141878Y-99198026D01*
X139029926Y-99187000D01*
X139029923Y-99187000D01*
X138992500Y-99183314D01*
X138955077Y-99187000D01*
X138050572Y-99187000D01*
X138050572Y-98433000D01*
X138038312Y-98308518D01*
X138002002Y-98188820D01*
X137943037Y-98078506D01*
X137863685Y-97981815D01*
X137766994Y-97902463D01*
X137656680Y-97843498D01*
X137536982Y-97807188D01*
X137412500Y-97794928D01*
X135512500Y-97794928D01*
X135388018Y-97807188D01*
X135268320Y-97843498D01*
X135158006Y-97902463D01*
X135061315Y-97981815D01*
X134981963Y-98078506D01*
X134932523Y-98171000D01*
X129728631Y-98171000D01*
X129432000Y-97874370D01*
X129432000Y-97815061D01*
X129392226Y-97615102D01*
X129314205Y-97426744D01*
X129200937Y-97257226D01*
X129056774Y-97113063D01*
X128887256Y-96999795D01*
X128698898Y-96921774D01*
X128543554Y-96890874D01*
X130819429Y-94615000D01*
X133530539Y-94615000D01*
X133497774Y-94694102D01*
X133458000Y-94894061D01*
X133458000Y-95097939D01*
X133497774Y-95297898D01*
X133575795Y-95486256D01*
X133689063Y-95655774D01*
X133833226Y-95799937D01*
X134002744Y-95913205D01*
X134191102Y-95991226D01*
X134391061Y-96031000D01*
X134594939Y-96031000D01*
X134794898Y-95991226D01*
X134983256Y-95913205D01*
X135025468Y-95885000D01*
X135509668Y-95885000D01*
X136530019Y-96905352D01*
X136553876Y-96934422D01*
X136669906Y-97029645D01*
X136802283Y-97100402D01*
X136945920Y-97143974D01*
X137057872Y-97155000D01*
X137057874Y-97155000D01*
X137095297Y-97158686D01*
X137132720Y-97155000D01*
X138232523Y-97155000D01*
X138281963Y-97247494D01*
X138361315Y-97344185D01*
X138458006Y-97423537D01*
X138568320Y-97482502D01*
X138688018Y-97518812D01*
X138812500Y-97531072D01*
X140712500Y-97531072D01*
X140836982Y-97518812D01*
X140956680Y-97482502D01*
X141066994Y-97423537D01*
X141163685Y-97344185D01*
X141243037Y-97247494D01*
X141302002Y-97137180D01*
X141338312Y-97017482D01*
X141350572Y-96893000D01*
X141350572Y-95893000D01*
X141338312Y-95768518D01*
X141302002Y-95648820D01*
X141296045Y-95637675D01*
X145988369Y-100330000D01*
X144592711Y-100330000D01*
X144550774Y-100288063D01*
X144381256Y-100174795D01*
X144192898Y-100096774D01*
X143992939Y-100057000D01*
X143789061Y-100057000D01*
X143589102Y-100096774D01*
X143400744Y-100174795D01*
X143231226Y-100288063D01*
X143087063Y-100432226D01*
X142973795Y-100601744D01*
X142895774Y-100790102D01*
X142856000Y-100990061D01*
X142856000Y-101193939D01*
X142895774Y-101393898D01*
X142973795Y-101582256D01*
X143087063Y-101751774D01*
X143231226Y-101895937D01*
X143400744Y-102009205D01*
X143589102Y-102087226D01*
X143789061Y-102127000D01*
X143992939Y-102127000D01*
X144192898Y-102087226D01*
X144381256Y-102009205D01*
X144550774Y-101895937D01*
X144592711Y-101854000D01*
X144628532Y-101854000D01*
X144501226Y-101939063D01*
X144357063Y-102083226D01*
X144243795Y-102252744D01*
X144165774Y-102441102D01*
X144126000Y-102641061D01*
X144126000Y-102844939D01*
X144165774Y-103044898D01*
X144243795Y-103233256D01*
X144357063Y-103402774D01*
X144501226Y-103546937D01*
X144670744Y-103660205D01*
X144859102Y-103738226D01*
X145059061Y-103778000D01*
X145118370Y-103778000D01*
X146402850Y-105062481D01*
X146389188Y-105107518D01*
X146376928Y-105232000D01*
X146380000Y-105721250D01*
X146538750Y-105880000D01*
X147538000Y-105880000D01*
X147538000Y-105860000D01*
X147701000Y-105860000D01*
X147701000Y-116434000D01*
X99466000Y-116434000D01*
X99466000Y-111650000D01*
X104611928Y-111650000D01*
X104624188Y-111774482D01*
X104660498Y-111894180D01*
X104719463Y-112004494D01*
X104798815Y-112101185D01*
X104895506Y-112180537D01*
X105005820Y-112239502D01*
X105125518Y-112275812D01*
X105250000Y-112288072D01*
X105614250Y-112285000D01*
X105773000Y-112126250D01*
X105773000Y-111427000D01*
X106027000Y-111427000D01*
X106027000Y-112126250D01*
X106185750Y-112285000D01*
X106550000Y-112288072D01*
X106674482Y-112275812D01*
X106794180Y-112239502D01*
X106904494Y-112180537D01*
X107001185Y-112101185D01*
X107080537Y-112004494D01*
X107139502Y-111894180D01*
X107175812Y-111774482D01*
X107188072Y-111650000D01*
X107185000Y-111585750D01*
X107026250Y-111427000D01*
X106027000Y-111427000D01*
X105773000Y-111427000D01*
X104773750Y-111427000D01*
X104615000Y-111585750D01*
X104611928Y-111650000D01*
X99466000Y-111650000D01*
X99466000Y-74574000D01*
X108889141Y-74574000D01*
X108805578Y-74642578D01*
G37*
X108805578Y-74642578D02*
X108781721Y-74671648D01*
X106294649Y-77158721D01*
X106265579Y-77182578D01*
X106241722Y-77211648D01*
X106241721Y-77211649D01*
X106170355Y-77298608D01*
X106099599Y-77430985D01*
X106056027Y-77574622D01*
X106041314Y-77724000D01*
X106045001Y-77761433D01*
X106045000Y-79134167D01*
X105240370Y-79938798D01*
X105181061Y-79938798D01*
X104981102Y-79978572D01*
X104792744Y-80056593D01*
X104623226Y-80169861D01*
X104479063Y-80314024D01*
X104365795Y-80483542D01*
X104287774Y-80671900D01*
X104248000Y-80871859D01*
X104248000Y-81075737D01*
X104287774Y-81275696D01*
X104365795Y-81464054D01*
X104479063Y-81633572D01*
X104623226Y-81777735D01*
X104792744Y-81891003D01*
X104981102Y-81969024D01*
X105067287Y-81986167D01*
X105045000Y-82098212D01*
X105045000Y-82321788D01*
X105088617Y-82541067D01*
X105174176Y-82747624D01*
X105277280Y-82901930D01*
X105188412Y-82916550D01*
X105097542Y-83120826D01*
X105048269Y-83338905D01*
X105042489Y-83562406D01*
X105080423Y-83782740D01*
X105160613Y-83991440D01*
X105188412Y-84043450D01*
X105277280Y-84058070D01*
X105174176Y-84212376D01*
X105088617Y-84418933D01*
X105045000Y-84638212D01*
X105045000Y-84861788D01*
X105088617Y-85081067D01*
X105174176Y-85287624D01*
X105239241Y-85385000D01*
X105174176Y-85482376D01*
X105088617Y-85688933D01*
X105045000Y-85908212D01*
X105045000Y-86131788D01*
X105088617Y-86351067D01*
X105174176Y-86557624D01*
X105239241Y-86655000D01*
X105174176Y-86752376D01*
X105088617Y-86958933D01*
X105045000Y-87178212D01*
X105045000Y-87401788D01*
X105088617Y-87621067D01*
X105174176Y-87827624D01*
X105298388Y-88013520D01*
X105408568Y-88123700D01*
X105384939Y-88119000D01*
X105181061Y-88119000D01*
X104981102Y-88158774D01*
X104792744Y-88236795D01*
X104623226Y-88350063D01*
X104479063Y-88494226D01*
X104365795Y-88663744D01*
X104287774Y-88852102D01*
X104248000Y-89052061D01*
X104248000Y-89255939D01*
X104287774Y-89455898D01*
X104365795Y-89644256D01*
X104479063Y-89813774D01*
X104623226Y-89957937D01*
X104792744Y-90071205D01*
X104981102Y-90149226D01*
X105181061Y-90189000D01*
X105384939Y-90189000D01*
X105418000Y-90182424D01*
X105418001Y-96729318D01*
X105374040Y-96705820D01*
X105352502Y-96634820D01*
X105293537Y-96524506D01*
X105214185Y-96427815D01*
X105117494Y-96348463D01*
X105007180Y-96289498D01*
X104887482Y-96253188D01*
X104763000Y-96240928D01*
X103263000Y-96240928D01*
X103138518Y-96253188D01*
X103018820Y-96289498D01*
X102908506Y-96348463D01*
X102811815Y-96427815D01*
X102732463Y-96524506D01*
X102673498Y-96634820D01*
X102637188Y-96754518D01*
X102624928Y-96879000D01*
X102624928Y-97879000D01*
X102637188Y-98003482D01*
X102637345Y-98004000D01*
X102637188Y-98004518D01*
X102624928Y-98129000D01*
X102624928Y-98679000D01*
X102627336Y-98703450D01*
X102627336Y-98728009D01*
X102639596Y-98852490D01*
X102658718Y-98948623D01*
X102695027Y-99068319D01*
X102732536Y-99158875D01*
X102791502Y-99269192D01*
X102845958Y-99350691D01*
X102925310Y-99447382D01*
X102994618Y-99516690D01*
X103091309Y-99596042D01*
X103148320Y-99634135D01*
X103095795Y-99712744D01*
X103017774Y-99901102D01*
X102978000Y-100101061D01*
X102978000Y-100304939D01*
X103017774Y-100504898D01*
X103095795Y-100693256D01*
X103209063Y-100862774D01*
X103353226Y-101006937D01*
X103522744Y-101120205D01*
X103684418Y-101187173D01*
X103643027Y-101323622D01*
X103628314Y-101473000D01*
X103632001Y-101510433D01*
X103632000Y-109710577D01*
X103628314Y-109748000D01*
X103632000Y-109785423D01*
X103632000Y-109785425D01*
X103643026Y-109897377D01*
X103686598Y-110041014D01*
X103695134Y-110056984D01*
X103757355Y-110173392D01*
X103781308Y-110202578D01*
X103852578Y-110289422D01*
X103881654Y-110313284D01*
X104430716Y-110862346D01*
X104454578Y-110891422D01*
X104504781Y-110932622D01*
X104570607Y-110986645D01*
X104608663Y-111006986D01*
X104614810Y-111010271D01*
X104615000Y-111014250D01*
X104773750Y-111173000D01*
X104825397Y-111173000D01*
X104895506Y-111230537D01*
X105005820Y-111289502D01*
X105125518Y-111325812D01*
X105250000Y-111338072D01*
X106550000Y-111338072D01*
X106674482Y-111325812D01*
X106794180Y-111289502D01*
X106904494Y-111230537D01*
X106974603Y-111173000D01*
X107026250Y-111173000D01*
X107185000Y-111014250D01*
X107188072Y-110950000D01*
X107175812Y-110825518D01*
X107175655Y-110825000D01*
X107175812Y-110824482D01*
X107188072Y-110700000D01*
X107188072Y-110000000D01*
X107175812Y-109875518D01*
X107175655Y-109875000D01*
X107175812Y-109874482D01*
X107188072Y-109750000D01*
X107188072Y-109050000D01*
X107175812Y-108925518D01*
X107139502Y-108805820D01*
X107080537Y-108695506D01*
X107001185Y-108598815D01*
X106904494Y-108519463D01*
X106794180Y-108460498D01*
X106674482Y-108424188D01*
X106662000Y-108422959D01*
X106662000Y-107510072D01*
X106875250Y-107510072D01*
X107047285Y-107493128D01*
X107212709Y-107442947D01*
X107365164Y-107361458D01*
X107498792Y-107251792D01*
X107504008Y-107245436D01*
X107567815Y-107323185D01*
X107664506Y-107402537D01*
X107774820Y-107461502D01*
X107894518Y-107497812D01*
X108019000Y-107510072D01*
X108220750Y-107507000D01*
X108379500Y-107348250D01*
X108379500Y-106299000D01*
X108359500Y-106299000D01*
X108359500Y-106045000D01*
X108379500Y-106045000D01*
X108379500Y-106025000D01*
X108633500Y-106025000D01*
X108633500Y-106045000D01*
X108653500Y-106045000D01*
X108653500Y-106299000D01*
X108633500Y-106299000D01*
X108633500Y-107348250D01*
X108792250Y-107507000D01*
X108994000Y-107510072D01*
X109118482Y-107497812D01*
X109238180Y-107461502D01*
X109297662Y-107429708D01*
X108687649Y-108039721D01*
X108658579Y-108063578D01*
X108634722Y-108092648D01*
X108634721Y-108092649D01*
X108563355Y-108179608D01*
X108492599Y-108311985D01*
X108459579Y-108420833D01*
X108425518Y-108424188D01*
X108305820Y-108460498D01*
X108195506Y-108519463D01*
X108098815Y-108598815D01*
X108019463Y-108695506D01*
X107960498Y-108805820D01*
X107924188Y-108925518D01*
X107911928Y-109050000D01*
X107911928Y-109750000D01*
X107924188Y-109874482D01*
X107924345Y-109875000D01*
X107924188Y-109875518D01*
X107911928Y-110000000D01*
X107911928Y-110700000D01*
X107924188Y-110824482D01*
X107924345Y-110825000D01*
X107924188Y-110825518D01*
X107911928Y-110950000D01*
X107911928Y-111650000D01*
X107924188Y-111774482D01*
X107960498Y-111894180D01*
X108019463Y-112004494D01*
X108098815Y-112101185D01*
X108195506Y-112180537D01*
X108305820Y-112239502D01*
X108425518Y-112275812D01*
X108550000Y-112288072D01*
X109850000Y-112288072D01*
X109974482Y-112275812D01*
X109995736Y-112269365D01*
X112284723Y-114558352D01*
X112308580Y-114587422D01*
X112337650Y-114611279D01*
X112424609Y-114682645D01*
X112471997Y-114707974D01*
X112556987Y-114753402D01*
X112700624Y-114796974D01*
X112812576Y-114808000D01*
X112812579Y-114808000D01*
X112850002Y-114811686D01*
X112887425Y-114808000D01*
X120485577Y-114808000D01*
X120523000Y-114811686D01*
X120560423Y-114808000D01*
X120560426Y-114808000D01*
X120672378Y-114796974D01*
X120816015Y-114753402D01*
X120948392Y-114682645D01*
X121064422Y-114587422D01*
X121088284Y-114558346D01*
X121670347Y-113976283D01*
X121699422Y-113952422D01*
X121759857Y-113878781D01*
X121794645Y-113836393D01*
X121839227Y-113752985D01*
X121865402Y-113704015D01*
X121908974Y-113560378D01*
X121920000Y-113448426D01*
X121920000Y-113448423D01*
X121923686Y-113411000D01*
X121920000Y-113373577D01*
X121920000Y-112512607D01*
X121940498Y-112580180D01*
X121999463Y-112690494D01*
X122078815Y-112787185D01*
X122175506Y-112866537D01*
X122285820Y-112925502D01*
X122405518Y-112961812D01*
X122530000Y-112974072D01*
X124030000Y-112974072D01*
X124154482Y-112961812D01*
X124274180Y-112925502D01*
X124384494Y-112866537D01*
X124481185Y-112787185D01*
X124560537Y-112690494D01*
X124619502Y-112580180D01*
X124655812Y-112460482D01*
X124668072Y-112336000D01*
X124668072Y-111336000D01*
X124655812Y-111211518D01*
X124619502Y-111091820D01*
X124560537Y-110981506D01*
X124481185Y-110884815D01*
X124384494Y-110805463D01*
X124274180Y-110746498D01*
X124154482Y-110710188D01*
X124030000Y-110697928D01*
X123938731Y-110697928D01*
X123916645Y-110656608D01*
X123821422Y-110540578D01*
X123792353Y-110516722D01*
X123020440Y-109744810D01*
X123153000Y-109612250D01*
X123153000Y-108763000D01*
X123133000Y-108763000D01*
X123133000Y-108509000D01*
X123153000Y-108509000D01*
X123153000Y-107659750D01*
X122994250Y-107501000D01*
X122530000Y-107497928D01*
X122405518Y-107510188D01*
X122285820Y-107546498D01*
X122175506Y-107605463D01*
X122078815Y-107684815D01*
X121999463Y-107781506D01*
X121940498Y-107891820D01*
X121904188Y-108011518D01*
X121891928Y-108136000D01*
X121895000Y-108350250D01*
X122053748Y-108508998D01*
X121895000Y-108508998D01*
X121895000Y-108619370D01*
X121399284Y-108123654D01*
X121375422Y-108094578D01*
X121259392Y-107999355D01*
X121127015Y-107928598D01*
X120983378Y-107885026D01*
X120871426Y-107874000D01*
X120871423Y-107874000D01*
X120834000Y-107870314D01*
X120796577Y-107874000D01*
X120119977Y-107874000D01*
X120070537Y-107781506D01*
X119991185Y-107684815D01*
X119894494Y-107605463D01*
X119784180Y-107546498D01*
X119664482Y-107510188D01*
X119540000Y-107497928D01*
X118040000Y-107497928D01*
X117915518Y-107510188D01*
X117795820Y-107546498D01*
X117685506Y-107605463D01*
X117588815Y-107684815D01*
X117509463Y-107781506D01*
X117450498Y-107891820D01*
X117414188Y-108011518D01*
X117401928Y-108136000D01*
X117401928Y-109136000D01*
X117414188Y-109260482D01*
X117450498Y-109380180D01*
X117509463Y-109490494D01*
X117588815Y-109587185D01*
X117685506Y-109666537D01*
X117795820Y-109725502D01*
X117915518Y-109761812D01*
X118040000Y-109774072D01*
X119540000Y-109774072D01*
X119664482Y-109761812D01*
X119784180Y-109725502D01*
X119894494Y-109666537D01*
X119991185Y-109587185D01*
X120070537Y-109490494D01*
X120119977Y-109398000D01*
X120518370Y-109398000D01*
X120866980Y-109746610D01*
X120856102Y-109748774D01*
X120667744Y-109826795D01*
X120498226Y-109940063D01*
X120354063Y-110084226D01*
X120240795Y-110253744D01*
X120162774Y-110442102D01*
X120123000Y-110642061D01*
X120123000Y-110845939D01*
X120162774Y-111045898D01*
X120240795Y-111234256D01*
X120354063Y-111403774D01*
X120396001Y-111445712D01*
X120396000Y-113095370D01*
X120207370Y-113284000D01*
X113165633Y-113284000D01*
X110669279Y-110787647D01*
X110645422Y-110758577D01*
X110582056Y-110706574D01*
X110529393Y-110663354D01*
X110488072Y-110641268D01*
X110488072Y-110000000D01*
X110475812Y-109875518D01*
X110475655Y-109875000D01*
X110475812Y-109874482D01*
X110488072Y-109750000D01*
X110488072Y-109050000D01*
X110475812Y-108925518D01*
X110439502Y-108805820D01*
X110380537Y-108695506D01*
X110301185Y-108598815D01*
X110291645Y-108590986D01*
X110913631Y-107969000D01*
X110972939Y-107969000D01*
X111172898Y-107929226D01*
X111361256Y-107851205D01*
X111530774Y-107737937D01*
X111674937Y-107593774D01*
X111788205Y-107424256D01*
X111866226Y-107235898D01*
X111906000Y-107035939D01*
X111906000Y-106914998D01*
X112606371Y-106914998D01*
X111882649Y-107638721D01*
X111853579Y-107662578D01*
X111829722Y-107691648D01*
X111829721Y-107691649D01*
X111758355Y-107778608D01*
X111687599Y-107910985D01*
X111644027Y-108054622D01*
X111629314Y-108204000D01*
X111633001Y-108241433D01*
X111633000Y-110053576D01*
X111629314Y-110091000D01*
X111633000Y-110128423D01*
X111633000Y-110128425D01*
X111644026Y-110240377D01*
X111687598Y-110384014D01*
X111689767Y-110388072D01*
X111758355Y-110516392D01*
X111785138Y-110549027D01*
X111853578Y-110632422D01*
X111882654Y-110656284D01*
X112507347Y-111280977D01*
X112501928Y-111336000D01*
X112501928Y-112336000D01*
X112514188Y-112460482D01*
X112550498Y-112580180D01*
X112609463Y-112690494D01*
X112688815Y-112787185D01*
X112785506Y-112866537D01*
X112895820Y-112925502D01*
X113015518Y-112961812D01*
X113140000Y-112974072D01*
X114640000Y-112974072D01*
X114764482Y-112961812D01*
X114884180Y-112925502D01*
X114994494Y-112866537D01*
X115091185Y-112787185D01*
X115170537Y-112690494D01*
X115229502Y-112580180D01*
X115265812Y-112460482D01*
X115278072Y-112336000D01*
X115278072Y-111336000D01*
X115265812Y-111211518D01*
X115229502Y-111091820D01*
X115170537Y-110981506D01*
X115091185Y-110884815D01*
X114994494Y-110805463D01*
X114884180Y-110746498D01*
X114764482Y-110710188D01*
X114640000Y-110697928D01*
X114079558Y-110697928D01*
X113157000Y-109775370D01*
X113157000Y-109773960D01*
X113604250Y-109771000D01*
X113763000Y-109612250D01*
X113763000Y-108763000D01*
X113743000Y-108763000D01*
X113743000Y-108509000D01*
X113763000Y-108509000D01*
X113763000Y-108489000D01*
X114017000Y-108489000D01*
X114017000Y-108509000D01*
X114037000Y-108509000D01*
X114037000Y-108763000D01*
X114017000Y-108763000D01*
X114017000Y-109612250D01*
X114175750Y-109771000D01*
X114640000Y-109774072D01*
X114672130Y-109770908D01*
X114687355Y-109799392D01*
X114749831Y-109875518D01*
X114782579Y-109915422D01*
X114811649Y-109939279D01*
X117220721Y-112348352D01*
X117244578Y-112377422D01*
X117273648Y-112401279D01*
X117360607Y-112472645D01*
X117428960Y-112509180D01*
X117450498Y-112580180D01*
X117509463Y-112690494D01*
X117588815Y-112787185D01*
X117685506Y-112866537D01*
X117795820Y-112925502D01*
X117915518Y-112961812D01*
X118040000Y-112974072D01*
X119540000Y-112974072D01*
X119664482Y-112961812D01*
X119784180Y-112925502D01*
X119894494Y-112866537D01*
X119991185Y-112787185D01*
X120070537Y-112690494D01*
X120129502Y-112580180D01*
X120165812Y-112460482D01*
X120178072Y-112336000D01*
X120178072Y-111336000D01*
X120165812Y-111211518D01*
X120129502Y-111091820D01*
X120070537Y-110981506D01*
X119991185Y-110884815D01*
X119894494Y-110805463D01*
X119784180Y-110746498D01*
X119664482Y-110710188D01*
X119540000Y-110697928D01*
X118040000Y-110697928D01*
X117915518Y-110710188D01*
X117795820Y-110746498D01*
X117781684Y-110754054D01*
X116086000Y-109058370D01*
X116086000Y-107338203D01*
X116191292Y-107251792D01*
X116196508Y-107245436D01*
X116260315Y-107323185D01*
X116357006Y-107402537D01*
X116467320Y-107461502D01*
X116587018Y-107497812D01*
X116711500Y-107510072D01*
X116913250Y-107507000D01*
X117072000Y-107348250D01*
X117072000Y-106299000D01*
X117326000Y-106299000D01*
X117326000Y-107348250D01*
X117484750Y-107507000D01*
X117686500Y-107510072D01*
X117810982Y-107497812D01*
X117930680Y-107461502D01*
X118040994Y-107402537D01*
X118137685Y-107323185D01*
X118217037Y-107226494D01*
X118276002Y-107116180D01*
X118312312Y-106996482D01*
X118324572Y-106872000D01*
X118321500Y-106457750D01*
X118162750Y-106299000D01*
X117326000Y-106299000D01*
X117072000Y-106299000D01*
X117052000Y-106299000D01*
X117052000Y-106045000D01*
X117072000Y-106045000D01*
X117072000Y-106025000D01*
X117326000Y-106025000D01*
X117326000Y-106045000D01*
X118162750Y-106045000D01*
X118227760Y-105979990D01*
X123347360Y-105979990D01*
X123491428Y-106124058D01*
X123491428Y-106628250D01*
X123508372Y-106800285D01*
X123558553Y-106965709D01*
X123640042Y-107118164D01*
X123749708Y-107251792D01*
X123883336Y-107361458D01*
X124035791Y-107442947D01*
X124201215Y-107493128D01*
X124340527Y-107506849D01*
X124340527Y-107581962D01*
X124274180Y-107546498D01*
X124154482Y-107510188D01*
X124030000Y-107497928D01*
X123565750Y-107501000D01*
X123407000Y-107659750D01*
X123407000Y-108509000D01*
X123427000Y-108509000D01*
X123427000Y-108763000D01*
X123407000Y-108763000D01*
X123407000Y-109612250D01*
X123565750Y-109771000D01*
X124030000Y-109774072D01*
X124154482Y-109761812D01*
X124274180Y-109725502D01*
X124340528Y-109690038D01*
X124340528Y-109725094D01*
X124336841Y-109762527D01*
X124351554Y-109911905D01*
X124395126Y-110055542D01*
X124465882Y-110187919D01*
X124519904Y-110253744D01*
X124561106Y-110303949D01*
X124590176Y-110327806D01*
X126610716Y-112348346D01*
X126634578Y-112377422D01*
X126708219Y-112437857D01*
X126750607Y-112472645D01*
X126818960Y-112509180D01*
X126840498Y-112580180D01*
X126899463Y-112690494D01*
X126978815Y-112787185D01*
X127075506Y-112866537D01*
X127185820Y-112925502D01*
X127305518Y-112961812D01*
X127430000Y-112974072D01*
X128930000Y-112974072D01*
X129054482Y-112961812D01*
X129174180Y-112925502D01*
X129284494Y-112866537D01*
X129381185Y-112787185D01*
X129460537Y-112690494D01*
X129519502Y-112580180D01*
X129555812Y-112460482D01*
X129568072Y-112336000D01*
X129568072Y-111336000D01*
X129555812Y-111211518D01*
X129519502Y-111091820D01*
X129460537Y-110981506D01*
X129381185Y-110884815D01*
X129284494Y-110805463D01*
X129174180Y-110746498D01*
X129054482Y-110710188D01*
X128930000Y-110697928D01*
X127430000Y-110697928D01*
X127305518Y-110710188D01*
X127185820Y-110746498D01*
X127171684Y-110754054D01*
X125864527Y-109446897D01*
X125864527Y-108136000D01*
X126791928Y-108136000D01*
X126791928Y-109136000D01*
X126804188Y-109260482D01*
X126840498Y-109380180D01*
X126899463Y-109490494D01*
X126978815Y-109587185D01*
X127075506Y-109666537D01*
X127185820Y-109725502D01*
X127305518Y-109761812D01*
X127430000Y-109774072D01*
X128930000Y-109774072D01*
X129054482Y-109761812D01*
X129174180Y-109725502D01*
X129284494Y-109666537D01*
X129381185Y-109587185D01*
X129460537Y-109490494D01*
X129509977Y-109398000D01*
X130016370Y-109398000D01*
X131543626Y-110925256D01*
X131497463Y-110981506D01*
X131438498Y-111091820D01*
X131402188Y-111211518D01*
X131389928Y-111336000D01*
X131389928Y-112336000D01*
X131402188Y-112460482D01*
X131438498Y-112580180D01*
X131497463Y-112690494D01*
X131576815Y-112787185D01*
X131673506Y-112866537D01*
X131783820Y-112925502D01*
X131903518Y-112961812D01*
X132028000Y-112974072D01*
X133528000Y-112974072D01*
X133652482Y-112961812D01*
X133772180Y-112925502D01*
X133882494Y-112866537D01*
X133979185Y-112787185D01*
X134058537Y-112690494D01*
X134117502Y-112580180D01*
X134153812Y-112460482D01*
X134166072Y-112336000D01*
X134166072Y-111336000D01*
X134153812Y-111211518D01*
X134117502Y-111091820D01*
X134058537Y-110981506D01*
X133979185Y-110884815D01*
X133882494Y-110805463D01*
X133772180Y-110746498D01*
X133652482Y-110710188D01*
X133528000Y-110697928D01*
X133436731Y-110697928D01*
X133414645Y-110656608D01*
X133319422Y-110540578D01*
X133290353Y-110516722D01*
X132518440Y-109744810D01*
X132651000Y-109612250D01*
X132651000Y-108763000D01*
X132631000Y-108763000D01*
X132631000Y-108509000D01*
X132651000Y-108509000D01*
X132651000Y-107659750D01*
X132492250Y-107501000D01*
X132028000Y-107497928D01*
X131903518Y-107510188D01*
X131783820Y-107546498D01*
X131673506Y-107605463D01*
X131576815Y-107684815D01*
X131497463Y-107781506D01*
X131438498Y-107891820D01*
X131402188Y-108011518D01*
X131389928Y-108136000D01*
X131393000Y-108350250D01*
X131551748Y-108508998D01*
X131393000Y-108508998D01*
X131393000Y-108619370D01*
X130897284Y-108123654D01*
X130873422Y-108094578D01*
X130757392Y-107999355D01*
X130625015Y-107928598D01*
X130481378Y-107885026D01*
X130369426Y-107874000D01*
X130369423Y-107874000D01*
X130332000Y-107870314D01*
X130294577Y-107874000D01*
X129509977Y-107874000D01*
X129460537Y-107781506D01*
X129381185Y-107684815D01*
X129284494Y-107605463D01*
X129174180Y-107546498D01*
X129054482Y-107510188D01*
X128930000Y-107497928D01*
X127430000Y-107497928D01*
X127305518Y-107510188D01*
X127185820Y-107546498D01*
X127075506Y-107605463D01*
X126978815Y-107684815D01*
X126899463Y-107781506D01*
X126840498Y-107891820D01*
X126804188Y-108011518D01*
X126791928Y-108136000D01*
X125864527Y-108136000D01*
X125864527Y-107493113D01*
X125880018Y-107497812D01*
X126004500Y-107510072D01*
X126206250Y-107507000D01*
X126365000Y-107348250D01*
X126365000Y-106299000D01*
X126619000Y-106299000D01*
X126619000Y-107348250D01*
X126777750Y-107507000D01*
X126979500Y-107510072D01*
X127103982Y-107497812D01*
X127223680Y-107461502D01*
X127333994Y-107402537D01*
X127430685Y-107323185D01*
X127510037Y-107226494D01*
X127569002Y-107116180D01*
X127605312Y-106996482D01*
X127617572Y-106872000D01*
X127614500Y-106457750D01*
X127455750Y-106299000D01*
X126619000Y-106299000D01*
X126365000Y-106299000D01*
X126345000Y-106299000D01*
X126345000Y-106045000D01*
X126365000Y-106045000D01*
X126365000Y-106025000D01*
X126619000Y-106025000D01*
X126619000Y-106045000D01*
X127455750Y-106045000D01*
X127520760Y-105979990D01*
X133099360Y-105979990D01*
X133243428Y-106124058D01*
X133243428Y-106628250D01*
X133260372Y-106800285D01*
X133310553Y-106965709D01*
X133392042Y-107118164D01*
X133501708Y-107251792D01*
X133607000Y-107338203D01*
X133607000Y-107505709D01*
X133528000Y-107497928D01*
X133063750Y-107501000D01*
X132905000Y-107659750D01*
X132905000Y-108509000D01*
X132925000Y-108509000D01*
X132925000Y-108763000D01*
X132905000Y-108763000D01*
X132905000Y-109612250D01*
X133063750Y-109771000D01*
X133528000Y-109774072D01*
X133643013Y-109762745D01*
X133661599Y-109824015D01*
X133732355Y-109956392D01*
X133801803Y-110041014D01*
X133827579Y-110072422D01*
X133856649Y-110096279D01*
X136108721Y-112348352D01*
X136132578Y-112377422D01*
X136248608Y-112472645D01*
X136316960Y-112509180D01*
X136338498Y-112580180D01*
X136397463Y-112690494D01*
X136476815Y-112787185D01*
X136573506Y-112866537D01*
X136683820Y-112925502D01*
X136803518Y-112961812D01*
X136928000Y-112974072D01*
X138428000Y-112974072D01*
X138552482Y-112961812D01*
X138672180Y-112925502D01*
X138782494Y-112866537D01*
X138879185Y-112787185D01*
X138958537Y-112690494D01*
X139017502Y-112580180D01*
X139053812Y-112460482D01*
X139066072Y-112336000D01*
X139066072Y-111336000D01*
X139053812Y-111211518D01*
X139017502Y-111091820D01*
X138958537Y-110981506D01*
X138879185Y-110884815D01*
X138782494Y-110805463D01*
X138672180Y-110746498D01*
X138552482Y-110710188D01*
X138428000Y-110697928D01*
X136928000Y-110697928D01*
X136803518Y-110710188D01*
X136683820Y-110746498D01*
X136669684Y-110754054D01*
X135131000Y-109215370D01*
X135131000Y-108136000D01*
X136289928Y-108136000D01*
X136289928Y-109136000D01*
X136302188Y-109260482D01*
X136338498Y-109380180D01*
X136397463Y-109490494D01*
X136476815Y-109587185D01*
X136573506Y-109666537D01*
X136683820Y-109725502D01*
X136803518Y-109761812D01*
X136928000Y-109774072D01*
X138428000Y-109774072D01*
X138552482Y-109761812D01*
X138672180Y-109725502D01*
X138782494Y-109666537D01*
X138879185Y-109587185D01*
X138958537Y-109490494D01*
X139017502Y-109380180D01*
X139053812Y-109260482D01*
X139066072Y-109136000D01*
X139066072Y-108136000D01*
X139053812Y-108011518D01*
X139017502Y-107891820D01*
X138958537Y-107781506D01*
X138879185Y-107684815D01*
X138782494Y-107605463D01*
X138672180Y-107546498D01*
X138552482Y-107510188D01*
X138428000Y-107497928D01*
X136928000Y-107497928D01*
X136803518Y-107510188D01*
X136683820Y-107546498D01*
X136573506Y-107605463D01*
X136476815Y-107684815D01*
X136397463Y-107781506D01*
X136338498Y-107891820D01*
X136302188Y-108011518D01*
X136289928Y-108136000D01*
X135131000Y-108136000D01*
X135131000Y-107338203D01*
X135236292Y-107251792D01*
X135241508Y-107245436D01*
X135305315Y-107323185D01*
X135402006Y-107402537D01*
X135512320Y-107461502D01*
X135632018Y-107497812D01*
X135756500Y-107510072D01*
X135958250Y-107507000D01*
X136117000Y-107348250D01*
X136117000Y-106299000D01*
X136371000Y-106299000D01*
X136371000Y-107348250D01*
X136529750Y-107507000D01*
X136731500Y-107510072D01*
X136855982Y-107497812D01*
X136975680Y-107461502D01*
X137085994Y-107402537D01*
X137182685Y-107323185D01*
X137262037Y-107226494D01*
X137321002Y-107116180D01*
X137357312Y-106996482D01*
X137369572Y-106872000D01*
X137366500Y-106457750D01*
X137207750Y-106299000D01*
X136371000Y-106299000D01*
X136117000Y-106299000D01*
X136097000Y-106299000D01*
X136097000Y-106045000D01*
X136117000Y-106045000D01*
X136117000Y-104995750D01*
X136371000Y-104995750D01*
X136371000Y-106045000D01*
X137207750Y-106045000D01*
X137366500Y-105886250D01*
X137369572Y-105472000D01*
X137357312Y-105347518D01*
X137321002Y-105227820D01*
X137262037Y-105117506D01*
X137182685Y-105020815D01*
X137085994Y-104941463D01*
X136975680Y-104882498D01*
X136855982Y-104846188D01*
X136731500Y-104833928D01*
X136529750Y-104837000D01*
X136371000Y-104995750D01*
X136117000Y-104995750D01*
X135958250Y-104837000D01*
X135756500Y-104833928D01*
X135632018Y-104846188D01*
X135512320Y-104882498D01*
X135402006Y-104941463D01*
X135305315Y-105020815D01*
X135241508Y-105098564D01*
X135236292Y-105092208D01*
X135102664Y-104982542D01*
X134950209Y-104901053D01*
X134784785Y-104850872D01*
X134612750Y-104833928D01*
X134125250Y-104833928D01*
X134110055Y-104835425D01*
X133980274Y-104705644D01*
X133956412Y-104676568D01*
X133840382Y-104581345D01*
X133708005Y-104510588D01*
X133564368Y-104467016D01*
X133452416Y-104455990D01*
X133452413Y-104455990D01*
X133414990Y-104452304D01*
X133377567Y-104455990D01*
X125608433Y-104455990D01*
X125571010Y-104452304D01*
X125533587Y-104455990D01*
X125533584Y-104455990D01*
X125421632Y-104467016D01*
X125277995Y-104510588D01*
X125258516Y-104521000D01*
X125213106Y-104545272D01*
X125217072Y-104505000D01*
X125217072Y-101995000D01*
X125204812Y-101870518D01*
X125168502Y-101750820D01*
X125109537Y-101640506D01*
X125030185Y-101543815D01*
X124933494Y-101464463D01*
X124823180Y-101405498D01*
X124703482Y-101369188D01*
X124579000Y-101356928D01*
X124335625Y-101356928D01*
X124483354Y-101209199D01*
X124512423Y-101185343D01*
X124607646Y-101069313D01*
X124678403Y-100936936D01*
X124721975Y-100793299D01*
X124730807Y-100703621D01*
X125480928Y-99953500D01*
X125480928Y-101205000D01*
X125493188Y-101329482D01*
X125529498Y-101449180D01*
X125588463Y-101559494D01*
X125667815Y-101656185D01*
X125764506Y-101735537D01*
X125874820Y-101794502D01*
X125994518Y-101830812D01*
X126119000Y-101843072D01*
X127119000Y-101843072D01*
X127243482Y-101830812D01*
X127363180Y-101794502D01*
X127473494Y-101735537D01*
X127570185Y-101656185D01*
X127649537Y-101559494D01*
X127708502Y-101449180D01*
X127744812Y-101329482D01*
X127757072Y-101205000D01*
X127757072Y-98734198D01*
X127906744Y-98834205D01*
X128095102Y-98912226D01*
X128295061Y-98952000D01*
X128354370Y-98952000D01*
X128847721Y-99445351D01*
X128871578Y-99474422D01*
X128900648Y-99498279D01*
X128987607Y-99569645D01*
X129036993Y-99596042D01*
X129119985Y-99640402D01*
X129263622Y-99683974D01*
X129375574Y-99695000D01*
X129375577Y-99695000D01*
X129413000Y-99698686D01*
X129450423Y-99695000D01*
X130243510Y-99695000D01*
X130146795Y-99839744D01*
X130068774Y-100028102D01*
X130029000Y-100228061D01*
X130029000Y-100431939D01*
X130068774Y-100631898D01*
X130146795Y-100820256D01*
X130260063Y-100989774D01*
X130404226Y-101133937D01*
X130573744Y-101247205D01*
X130762102Y-101325226D01*
X130962061Y-101365000D01*
X131165939Y-101365000D01*
X131365898Y-101325226D01*
X131518863Y-101261865D01*
X131609672Y-101310404D01*
X131753309Y-101353976D01*
X131865261Y-101365002D01*
X131865263Y-101365002D01*
X131902686Y-101368688D01*
X131940109Y-101365002D01*
X136681372Y-101365002D01*
X141835721Y-106519352D01*
X141859578Y-106548422D01*
X141876928Y-106562661D01*
X141876928Y-106782000D01*
X141889188Y-106906482D01*
X141925498Y-107026180D01*
X141984463Y-107136494D01*
X142063815Y-107233185D01*
X142160506Y-107312537D01*
X142270820Y-107371502D01*
X142390518Y-107407812D01*
X142403000Y-107409041D01*
X142403001Y-112554959D01*
X142390518Y-112556188D01*
X142270820Y-112592498D01*
X142160506Y-112651463D01*
X142063815Y-112730815D01*
X141984463Y-112827506D01*
X141925498Y-112937820D01*
X141889188Y-113057518D01*
X141876928Y-113182000D01*
X141876928Y-114732000D01*
X141889188Y-114856482D01*
X141925498Y-114976180D01*
X141984463Y-115086494D01*
X142063815Y-115183185D01*
X142160506Y-115262537D01*
X142270820Y-115321502D01*
X142390518Y-115357812D01*
X142515000Y-115370072D01*
X143815000Y-115370072D01*
X143939482Y-115357812D01*
X144059180Y-115321502D01*
X144169494Y-115262537D01*
X144266185Y-115183185D01*
X144345537Y-115086494D01*
X144404502Y-114976180D01*
X144440812Y-114856482D01*
X144453072Y-114732000D01*
X146376928Y-114732000D01*
X146389188Y-114856482D01*
X146425498Y-114976180D01*
X146484463Y-115086494D01*
X146563815Y-115183185D01*
X146660506Y-115262537D01*
X146770820Y-115321502D01*
X146890518Y-115357812D01*
X147015000Y-115370072D01*
X147379250Y-115367000D01*
X147538000Y-115208250D01*
X147538000Y-114084000D01*
X146538750Y-114084000D01*
X146380000Y-114242750D01*
X146376928Y-114732000D01*
X144453072Y-114732000D01*
X144453072Y-113182000D01*
X146376928Y-113182000D01*
X146380000Y-113671250D01*
X146538750Y-113830000D01*
X147538000Y-113830000D01*
X147538000Y-112705750D01*
X147379250Y-112547000D01*
X147015000Y-112543928D01*
X146890518Y-112556188D01*
X146770820Y-112592498D01*
X146660506Y-112651463D01*
X146563815Y-112730815D01*
X146484463Y-112827506D01*
X146425498Y-112937820D01*
X146389188Y-113057518D01*
X146376928Y-113182000D01*
X144453072Y-113182000D01*
X144440812Y-113057518D01*
X144404502Y-112937820D01*
X144345537Y-112827506D01*
X144266185Y-112730815D01*
X144169494Y-112651463D01*
X144059180Y-112592498D01*
X143939482Y-112556188D01*
X143927000Y-112554959D01*
X143927000Y-107409041D01*
X143939482Y-107407812D01*
X144059180Y-107371502D01*
X144169494Y-107312537D01*
X144266185Y-107233185D01*
X144345537Y-107136494D01*
X144404502Y-107026180D01*
X144440812Y-106906482D01*
X144453072Y-106782000D01*
X146376928Y-106782000D01*
X146389188Y-106906482D01*
X146425498Y-107026180D01*
X146484463Y-107136494D01*
X146563815Y-107233185D01*
X146660506Y-107312537D01*
X146770820Y-107371502D01*
X146890518Y-107407812D01*
X147015000Y-107420072D01*
X147379250Y-107417000D01*
X147538000Y-107258250D01*
X147538000Y-106134000D01*
X146538750Y-106134000D01*
X146380000Y-106292750D01*
X146376928Y-106782000D01*
X144453072Y-106782000D01*
X144453072Y-105232000D01*
X144440812Y-105107518D01*
X144404502Y-104987820D01*
X144345537Y-104877506D01*
X144266185Y-104780815D01*
X144169494Y-104701463D01*
X144059180Y-104642498D01*
X143939482Y-104606188D01*
X143815000Y-104593928D01*
X142515000Y-104593928D01*
X142390518Y-104606188D01*
X142270820Y-104642498D01*
X142168709Y-104697078D01*
X140082702Y-102611072D01*
X140712500Y-102611072D01*
X140836982Y-102598812D01*
X140956680Y-102562502D01*
X141066994Y-102503537D01*
X141163685Y-102424185D01*
X141243037Y-102327494D01*
X141302002Y-102217180D01*
X141338312Y-102097482D01*
X141350572Y-101973000D01*
X141350572Y-100973000D01*
X141338312Y-100848518D01*
X141302002Y-100728820D01*
X141243037Y-100618506D01*
X141163685Y-100521815D01*
X141066994Y-100442463D01*
X140956680Y-100383498D01*
X140836982Y-100347188D01*
X140712500Y-100334928D01*
X140421231Y-100334928D01*
X140399145Y-100293608D01*
X140303922Y-100177578D01*
X140274851Y-100153720D01*
X139557784Y-99436653D01*
X139533922Y-99407578D01*
X139417892Y-99312355D01*
X139285515Y-99241598D01*
X139141878Y-99198026D01*
X139029926Y-99187000D01*
X139029923Y-99187000D01*
X138992500Y-99183314D01*
X138955077Y-99187000D01*
X138050572Y-99187000D01*
X138050572Y-98433000D01*
X138038312Y-98308518D01*
X138002002Y-98188820D01*
X137943037Y-98078506D01*
X137863685Y-97981815D01*
X137766994Y-97902463D01*
X137656680Y-97843498D01*
X137536982Y-97807188D01*
X137412500Y-97794928D01*
X135512500Y-97794928D01*
X135388018Y-97807188D01*
X135268320Y-97843498D01*
X135158006Y-97902463D01*
X135061315Y-97981815D01*
X134981963Y-98078506D01*
X134932523Y-98171000D01*
X129728631Y-98171000D01*
X129432000Y-97874370D01*
X129432000Y-97815061D01*
X129392226Y-97615102D01*
X129314205Y-97426744D01*
X129200937Y-97257226D01*
X129056774Y-97113063D01*
X128887256Y-96999795D01*
X128698898Y-96921774D01*
X128543554Y-96890874D01*
X130819429Y-94615000D01*
X133530539Y-94615000D01*
X133497774Y-94694102D01*
X133458000Y-94894061D01*
X133458000Y-95097939D01*
X133497774Y-95297898D01*
X133575795Y-95486256D01*
X133689063Y-95655774D01*
X133833226Y-95799937D01*
X134002744Y-95913205D01*
X134191102Y-95991226D01*
X134391061Y-96031000D01*
X134594939Y-96031000D01*
X134794898Y-95991226D01*
X134983256Y-95913205D01*
X135025468Y-95885000D01*
X135509668Y-95885000D01*
X136530019Y-96905352D01*
X136553876Y-96934422D01*
X136669906Y-97029645D01*
X136802283Y-97100402D01*
X136945920Y-97143974D01*
X137057872Y-97155000D01*
X137057874Y-97155000D01*
X137095297Y-97158686D01*
X137132720Y-97155000D01*
X138232523Y-97155000D01*
X138281963Y-97247494D01*
X138361315Y-97344185D01*
X138458006Y-97423537D01*
X138568320Y-97482502D01*
X138688018Y-97518812D01*
X138812500Y-97531072D01*
X140712500Y-97531072D01*
X140836982Y-97518812D01*
X140956680Y-97482502D01*
X141066994Y-97423537D01*
X141163685Y-97344185D01*
X141243037Y-97247494D01*
X141302002Y-97137180D01*
X141338312Y-97017482D01*
X141350572Y-96893000D01*
X141350572Y-95893000D01*
X141338312Y-95768518D01*
X141302002Y-95648820D01*
X141296045Y-95637675D01*
X145988369Y-100330000D01*
X144592711Y-100330000D01*
X144550774Y-100288063D01*
X144381256Y-100174795D01*
X144192898Y-100096774D01*
X143992939Y-100057000D01*
X143789061Y-100057000D01*
X143589102Y-100096774D01*
X143400744Y-100174795D01*
X143231226Y-100288063D01*
X143087063Y-100432226D01*
X142973795Y-100601744D01*
X142895774Y-100790102D01*
X142856000Y-100990061D01*
X142856000Y-101193939D01*
X142895774Y-101393898D01*
X142973795Y-101582256D01*
X143087063Y-101751774D01*
X143231226Y-101895937D01*
X143400744Y-102009205D01*
X143589102Y-102087226D01*
X143789061Y-102127000D01*
X143992939Y-102127000D01*
X144192898Y-102087226D01*
X144381256Y-102009205D01*
X144550774Y-101895937D01*
X144592711Y-101854000D01*
X144628532Y-101854000D01*
X144501226Y-101939063D01*
X144357063Y-102083226D01*
X144243795Y-102252744D01*
X144165774Y-102441102D01*
X144126000Y-102641061D01*
X144126000Y-102844939D01*
X144165774Y-103044898D01*
X144243795Y-103233256D01*
X144357063Y-103402774D01*
X144501226Y-103546937D01*
X144670744Y-103660205D01*
X144859102Y-103738226D01*
X145059061Y-103778000D01*
X145118370Y-103778000D01*
X146402850Y-105062481D01*
X146389188Y-105107518D01*
X146376928Y-105232000D01*
X146380000Y-105721250D01*
X146538750Y-105880000D01*
X147538000Y-105880000D01*
X147538000Y-105860000D01*
X147701000Y-105860000D01*
X147701000Y-116434000D01*
X99466000Y-116434000D01*
X99466000Y-111650000D01*
X104611928Y-111650000D01*
X104624188Y-111774482D01*
X104660498Y-111894180D01*
X104719463Y-112004494D01*
X104798815Y-112101185D01*
X104895506Y-112180537D01*
X105005820Y-112239502D01*
X105125518Y-112275812D01*
X105250000Y-112288072D01*
X105614250Y-112285000D01*
X105773000Y-112126250D01*
X105773000Y-111427000D01*
X106027000Y-111427000D01*
X106027000Y-112126250D01*
X106185750Y-112285000D01*
X106550000Y-112288072D01*
X106674482Y-112275812D01*
X106794180Y-112239502D01*
X106904494Y-112180537D01*
X107001185Y-112101185D01*
X107080537Y-112004494D01*
X107139502Y-111894180D01*
X107175812Y-111774482D01*
X107188072Y-111650000D01*
X107185000Y-111585750D01*
X107026250Y-111427000D01*
X106027000Y-111427000D01*
X105773000Y-111427000D01*
X104773750Y-111427000D01*
X104615000Y-111585750D01*
X104611928Y-111650000D01*
X99466000Y-111650000D01*
X99466000Y-74574000D01*
X108889141Y-74574000D01*
X108805578Y-74642578D01*
G36*
X105869500Y-105005797D02*
G01*
X105764208Y-105092208D01*
X105654542Y-105225836D01*
X105573053Y-105378291D01*
X105522872Y-105543715D01*
X105505928Y-105715750D01*
X105505928Y-106219942D01*
X105387649Y-106338221D01*
X105358579Y-106362078D01*
X105334722Y-106391148D01*
X105334721Y-106391149D01*
X105263355Y-106478108D01*
X105192599Y-106610485D01*
X105156000Y-106731135D01*
X105156000Y-101788630D01*
X105869501Y-101075130D01*
X105869500Y-105005797D01*
G37*
X105869500Y-105005797D02*
X105764208Y-105092208D01*
X105654542Y-105225836D01*
X105573053Y-105378291D01*
X105522872Y-105543715D01*
X105505928Y-105715750D01*
X105505928Y-106219942D01*
X105387649Y-106338221D01*
X105358579Y-106362078D01*
X105334722Y-106391148D01*
X105334721Y-106391149D01*
X105263355Y-106478108D01*
X105192599Y-106610485D01*
X105156000Y-106731135D01*
X105156000Y-101788630D01*
X105869501Y-101075130D01*
X105869500Y-105005797D01*
G36*
X165608001Y-82230632D02*
G01*
X165608000Y-87949369D01*
X164784370Y-88773000D01*
X156395490Y-88773000D01*
X156492205Y-88628256D01*
X156570226Y-88439898D01*
X156610000Y-88239939D01*
X156610000Y-88036061D01*
X156570226Y-87836102D01*
X156492205Y-87647744D01*
X156378937Y-87478226D01*
X156234774Y-87334063D01*
X156065256Y-87220795D01*
X155876898Y-87142774D01*
X155676939Y-87103000D01*
X155473061Y-87103000D01*
X155273102Y-87142774D01*
X155084744Y-87220795D01*
X154915226Y-87334063D01*
X154771063Y-87478226D01*
X154657795Y-87647744D01*
X154579774Y-87836102D01*
X154540000Y-88036061D01*
X154540000Y-88239939D01*
X154579774Y-88439898D01*
X154657795Y-88628256D01*
X154754510Y-88773000D01*
X147828000Y-88773000D01*
X147803224Y-88775440D01*
X147779399Y-88782667D01*
X147757443Y-88794403D01*
X147738197Y-88810197D01*
X147722403Y-88829443D01*
X147710667Y-88851399D01*
X147703440Y-88875224D01*
X147701000Y-88900000D01*
X147701000Y-95823370D01*
X144636617Y-92758987D01*
X144681205Y-92692256D01*
X144759226Y-92503898D01*
X144799000Y-92303939D01*
X144799000Y-92100061D01*
X144759226Y-91900102D01*
X144681205Y-91711744D01*
X144567937Y-91542226D01*
X144423774Y-91398063D01*
X144394876Y-91378754D01*
X150257952Y-85515679D01*
X150475740Y-85559000D01*
X150768260Y-85559000D01*
X151055158Y-85501932D01*
X151325411Y-85389990D01*
X151568632Y-85227475D01*
X151775475Y-85020632D01*
X151937990Y-84777411D01*
X152005784Y-84613740D01*
X154471000Y-84613740D01*
X154471000Y-84906260D01*
X154528068Y-85193158D01*
X154640010Y-85463411D01*
X154802525Y-85706632D01*
X155009368Y-85913475D01*
X155252589Y-86075990D01*
X155522842Y-86187932D01*
X155809740Y-86245000D01*
X156102260Y-86245000D01*
X156389158Y-86187932D01*
X156659411Y-86075990D01*
X156902632Y-85913475D01*
X157109475Y-85706632D01*
X157226000Y-85532240D01*
X157342525Y-85706632D01*
X157549368Y-85913475D01*
X157792589Y-86075990D01*
X158062842Y-86187932D01*
X158349740Y-86245000D01*
X158642260Y-86245000D01*
X158929158Y-86187932D01*
X159199411Y-86075990D01*
X159442632Y-85913475D01*
X159567710Y-85788397D01*
X160187208Y-85788397D01*
X160264843Y-86037472D01*
X160528883Y-86163371D01*
X160812411Y-86235339D01*
X161104531Y-86250611D01*
X161394019Y-86208599D01*
X161669747Y-86110919D01*
X161807157Y-86037472D01*
X161884792Y-85788397D01*
X161036000Y-84939605D01*
X160187208Y-85788397D01*
X159567710Y-85788397D01*
X159649475Y-85706632D01*
X159765311Y-85533271D01*
X160007603Y-85608792D01*
X160856395Y-84760000D01*
X161215605Y-84760000D01*
X162064397Y-85608792D01*
X162306689Y-85533271D01*
X162422525Y-85706632D01*
X162629368Y-85913475D01*
X162872589Y-86075990D01*
X163142842Y-86187932D01*
X163429740Y-86245000D01*
X163722260Y-86245000D01*
X164009158Y-86187932D01*
X164279411Y-86075990D01*
X164522632Y-85913475D01*
X164729475Y-85706632D01*
X164891990Y-85463411D01*
X165003932Y-85193158D01*
X165061000Y-84906260D01*
X165061000Y-84613740D01*
X165003932Y-84326842D01*
X164891990Y-84056589D01*
X164729475Y-83813368D01*
X164522632Y-83606525D01*
X164279411Y-83444010D01*
X164009158Y-83332068D01*
X163722260Y-83275000D01*
X163429740Y-83275000D01*
X163142842Y-83332068D01*
X162872589Y-83444010D01*
X162629368Y-83606525D01*
X162422525Y-83813368D01*
X162306689Y-83986729D01*
X162064397Y-83911208D01*
X161215605Y-84760000D01*
X160856395Y-84760000D01*
X160007603Y-83911208D01*
X159765311Y-83986729D01*
X159649475Y-83813368D01*
X159567710Y-83731603D01*
X160187208Y-83731603D01*
X161036000Y-84580395D01*
X161884792Y-83731603D01*
X161807157Y-83482528D01*
X161543117Y-83356629D01*
X161259589Y-83284661D01*
X160967469Y-83269389D01*
X160677981Y-83311401D01*
X160402253Y-83409081D01*
X160264843Y-83482528D01*
X160187208Y-83731603D01*
X159567710Y-83731603D01*
X159442632Y-83606525D01*
X159199411Y-83444010D01*
X158929158Y-83332068D01*
X158642260Y-83275000D01*
X158349740Y-83275000D01*
X158062842Y-83332068D01*
X157792589Y-83444010D01*
X157549368Y-83606525D01*
X157342525Y-83813368D01*
X157226000Y-83987760D01*
X157109475Y-83813368D01*
X156902632Y-83606525D01*
X156659411Y-83444010D01*
X156389158Y-83332068D01*
X156102260Y-83275000D01*
X155809740Y-83275000D01*
X155522842Y-83332068D01*
X155252589Y-83444010D01*
X155009368Y-83606525D01*
X154802525Y-83813368D01*
X154640010Y-84056589D01*
X154528068Y-84326842D01*
X154471000Y-84613740D01*
X152005784Y-84613740D01*
X152049932Y-84507158D01*
X152107000Y-84220260D01*
X152107000Y-83927740D01*
X152049932Y-83640842D01*
X151937990Y-83370589D01*
X151775475Y-83127368D01*
X151568632Y-82920525D01*
X151394240Y-82804000D01*
X151568632Y-82687475D01*
X151775475Y-82480632D01*
X151937990Y-82237411D01*
X152049932Y-81967158D01*
X152107000Y-81680260D01*
X152107000Y-81387740D01*
X152049932Y-81100842D01*
X151937990Y-80830589D01*
X151775475Y-80587368D01*
X151568632Y-80380525D01*
X151395271Y-80264689D01*
X151470792Y-80022397D01*
X150622000Y-79173605D01*
X149773208Y-80022397D01*
X149848729Y-80264689D01*
X149675368Y-80380525D01*
X149468525Y-80587368D01*
X149306010Y-80830589D01*
X149194068Y-81100842D01*
X149137000Y-81387740D01*
X149137000Y-81680260D01*
X149176002Y-81876337D01*
X141703850Y-89135000D01*
X141630061Y-89135000D01*
X141430102Y-89174774D01*
X141241744Y-89252795D01*
X141072226Y-89366063D01*
X140928063Y-89510226D01*
X140814795Y-89679744D01*
X140736774Y-89868102D01*
X140697000Y-90068061D01*
X140697000Y-90174928D01*
X138812500Y-90174928D01*
X138688018Y-90187188D01*
X138568320Y-90223498D01*
X138458006Y-90282463D01*
X138361315Y-90361815D01*
X138281963Y-90458506D01*
X138232523Y-90551000D01*
X130967423Y-90551000D01*
X130930000Y-90547314D01*
X130892577Y-90551000D01*
X130892574Y-90551000D01*
X130780622Y-90562026D01*
X130636985Y-90605598D01*
X130575364Y-90638535D01*
X130504607Y-90676355D01*
X130489787Y-90688518D01*
X130388578Y-90771578D01*
X130364716Y-90800654D01*
X123883733Y-97281637D01*
X123980205Y-97137256D01*
X124058226Y-96948898D01*
X124098000Y-96748939D01*
X124098000Y-96545061D01*
X124058226Y-96345102D01*
X123980205Y-96156744D01*
X123866937Y-95987226D01*
X123722774Y-95843063D01*
X123553256Y-95729795D01*
X123364898Y-95651774D01*
X123164939Y-95612000D01*
X122961061Y-95612000D01*
X122761102Y-95651774D01*
X122572744Y-95729795D01*
X122403226Y-95843063D01*
X122259063Y-95987226D01*
X122145795Y-96156744D01*
X122092670Y-96284999D01*
X117890423Y-96284999D01*
X117853000Y-96281313D01*
X117815577Y-96284999D01*
X117815575Y-96284999D01*
X117703623Y-96296025D01*
X117559986Y-96339597D01*
X117427609Y-96410354D01*
X117311579Y-96505577D01*
X117287722Y-96534647D01*
X115946654Y-97875716D01*
X115917578Y-97899578D01*
X115878350Y-97947378D01*
X115822355Y-98015608D01*
X115795218Y-98066378D01*
X115785820Y-98083960D01*
X115714820Y-98105498D01*
X115604506Y-98164463D01*
X115507815Y-98243815D01*
X115428463Y-98340506D01*
X115369498Y-98450820D01*
X115333188Y-98570518D01*
X115320928Y-98695000D01*
X115320928Y-101205000D01*
X115333188Y-101329482D01*
X115369498Y-101449180D01*
X115428463Y-101559494D01*
X115507815Y-101656185D01*
X115604506Y-101735537D01*
X115714820Y-101794502D01*
X115834518Y-101830812D01*
X115959000Y-101843072D01*
X116959000Y-101843072D01*
X117083482Y-101830812D01*
X117203180Y-101794502D01*
X117313494Y-101735537D01*
X117410185Y-101656185D01*
X117489537Y-101559494D01*
X117548502Y-101449180D01*
X117584812Y-101329482D01*
X117597072Y-101205000D01*
X117597072Y-98695000D01*
X117584812Y-98570518D01*
X117548502Y-98450820D01*
X117540946Y-98436684D01*
X118168632Y-97808999D01*
X122625578Y-97808999D01*
X122663001Y-97812685D01*
X122700424Y-97808999D01*
X122700427Y-97808999D01*
X122812379Y-97797973D01*
X122956016Y-97754401D01*
X123088393Y-97683644D01*
X123090396Y-97682000D01*
X123164939Y-97682000D01*
X123364898Y-97642226D01*
X123553256Y-97564205D01*
X123697637Y-97467733D01*
X122648529Y-98516841D01*
X122628502Y-98450820D01*
X122569537Y-98340506D01*
X122490185Y-98243815D01*
X122393494Y-98164463D01*
X122283180Y-98105498D01*
X122163482Y-98069188D01*
X122039000Y-98056928D01*
X121039000Y-98056928D01*
X120914518Y-98069188D01*
X120794820Y-98105498D01*
X120684506Y-98164463D01*
X120587815Y-98243815D01*
X120508463Y-98340506D01*
X120449498Y-98450820D01*
X120413188Y-98570518D01*
X120400928Y-98695000D01*
X120400928Y-101205000D01*
X120413188Y-101329482D01*
X120449498Y-101449180D01*
X120508463Y-101559494D01*
X120587815Y-101656185D01*
X120684506Y-101735537D01*
X120794820Y-101794502D01*
X120914518Y-101830812D01*
X121039000Y-101843072D01*
X121694220Y-101843072D01*
X121049292Y-102488000D01*
X120137072Y-102488000D01*
X120137072Y-101995000D01*
X120124812Y-101870518D01*
X120088502Y-101750820D01*
X120029537Y-101640506D01*
X119950185Y-101543815D01*
X119853494Y-101464463D01*
X119743180Y-101405498D01*
X119623482Y-101369188D01*
X119499000Y-101356928D01*
X118499000Y-101356928D01*
X118374518Y-101369188D01*
X118254820Y-101405498D01*
X118144506Y-101464463D01*
X118047815Y-101543815D01*
X117968463Y-101640506D01*
X117909498Y-101750820D01*
X117873188Y-101870518D01*
X117860928Y-101995000D01*
X117860928Y-103136227D01*
X117703939Y-103105000D01*
X117500061Y-103105000D01*
X117300102Y-103144774D01*
X117111744Y-103222795D01*
X116942226Y-103336063D01*
X116798063Y-103480226D01*
X116684795Y-103649744D01*
X116606774Y-103838102D01*
X116567000Y-104038061D01*
X116567000Y-104241939D01*
X116606774Y-104441898D01*
X116612611Y-104455990D01*
X116315433Y-104455990D01*
X116278010Y-104452304D01*
X116240587Y-104455990D01*
X116240584Y-104455990D01*
X116128632Y-104467016D01*
X115984995Y-104510588D01*
X115965516Y-104521000D01*
X115852617Y-104581345D01*
X115771398Y-104648000D01*
X115736588Y-104676568D01*
X115712731Y-104705639D01*
X115582945Y-104835425D01*
X115567750Y-104833928D01*
X115080250Y-104833928D01*
X114956698Y-104846097D01*
X115008502Y-104749180D01*
X115044812Y-104629482D01*
X115057072Y-104505000D01*
X115057072Y-101995000D01*
X115044812Y-101870518D01*
X115008502Y-101750820D01*
X114949537Y-101640506D01*
X114870185Y-101543815D01*
X114773494Y-101464463D01*
X114663180Y-101405498D01*
X114543482Y-101369188D01*
X114419000Y-101356928D01*
X113419000Y-101356928D01*
X113294518Y-101369188D01*
X113174820Y-101405498D01*
X113064506Y-101464463D01*
X112967815Y-101543815D01*
X112888463Y-101640506D01*
X112829498Y-101750820D01*
X112793188Y-101870518D01*
X112780928Y-101995000D01*
X112780928Y-104505000D01*
X112793188Y-104629482D01*
X112829498Y-104749180D01*
X112865185Y-104815945D01*
X112796774Y-104981102D01*
X112757000Y-105181061D01*
X112757000Y-105384939D01*
X112758205Y-105390998D01*
X110548629Y-105390998D01*
X109920946Y-104763316D01*
X109928502Y-104749180D01*
X109964812Y-104629482D01*
X109977072Y-104505000D01*
X109977072Y-101995000D01*
X109964812Y-101870518D01*
X109928502Y-101750820D01*
X109869537Y-101640506D01*
X109790185Y-101543815D01*
X109693494Y-101464463D01*
X109601000Y-101415023D01*
X109601000Y-101205000D01*
X110240928Y-101205000D01*
X110253188Y-101329482D01*
X110289498Y-101449180D01*
X110348463Y-101559494D01*
X110427815Y-101656185D01*
X110524506Y-101735537D01*
X110634820Y-101794502D01*
X110754518Y-101830812D01*
X110879000Y-101843072D01*
X111093250Y-101840000D01*
X111252000Y-101681250D01*
X111252000Y-100077000D01*
X111506000Y-100077000D01*
X111506000Y-101681250D01*
X111664750Y-101840000D01*
X111879000Y-101843072D01*
X112003482Y-101830812D01*
X112123180Y-101794502D01*
X112233494Y-101735537D01*
X112330185Y-101656185D01*
X112409537Y-101559494D01*
X112468502Y-101449180D01*
X112504812Y-101329482D01*
X112517072Y-101205000D01*
X112514000Y-100235750D01*
X112355250Y-100077000D01*
X111506000Y-100077000D01*
X111252000Y-100077000D01*
X110402750Y-100077000D01*
X110244000Y-100235750D01*
X110240928Y-101205000D01*
X109601000Y-101205000D01*
X109601000Y-98695000D01*
X110240928Y-98695000D01*
X110244000Y-99664250D01*
X110402750Y-99823000D01*
X111252000Y-99823000D01*
X111252000Y-98218750D01*
X111506000Y-98218750D01*
X111506000Y-99823000D01*
X112355250Y-99823000D01*
X112514000Y-99664250D01*
X112517072Y-98695000D01*
X112504812Y-98570518D01*
X112468502Y-98450820D01*
X112409537Y-98340506D01*
X112330185Y-98243815D01*
X112233494Y-98164463D01*
X112123180Y-98105498D01*
X112003482Y-98069188D01*
X111879000Y-98056928D01*
X111664750Y-98060000D01*
X111506000Y-98218750D01*
X111252000Y-98218750D01*
X111093250Y-98060000D01*
X110879000Y-98056928D01*
X110754518Y-98069188D01*
X110634820Y-98105498D01*
X110524506Y-98164463D01*
X110427815Y-98243815D01*
X110348463Y-98340506D01*
X110289498Y-98450820D01*
X110253188Y-98570518D01*
X110240928Y-98695000D01*
X109601000Y-98695000D01*
X109601000Y-89273000D01*
X134874428Y-89273000D01*
X134886688Y-89397482D01*
X134922998Y-89517180D01*
X134981963Y-89627494D01*
X135061315Y-89724185D01*
X135158006Y-89803537D01*
X135268320Y-89862502D01*
X135388018Y-89898812D01*
X135512500Y-89911072D01*
X136176750Y-89908000D01*
X136335500Y-89749250D01*
X136335500Y-88900000D01*
X136589500Y-88900000D01*
X136589500Y-89749250D01*
X136748250Y-89908000D01*
X137412500Y-89911072D01*
X137536982Y-89898812D01*
X137656680Y-89862502D01*
X137766994Y-89803537D01*
X137863685Y-89724185D01*
X137943037Y-89627494D01*
X138002002Y-89517180D01*
X138038312Y-89397482D01*
X138050572Y-89273000D01*
X138047500Y-89058750D01*
X137888750Y-88900000D01*
X136589500Y-88900000D01*
X136335500Y-88900000D01*
X135036250Y-88900000D01*
X134877500Y-89058750D01*
X134874428Y-89273000D01*
X109601000Y-89273000D01*
X109601000Y-88273000D01*
X134874428Y-88273000D01*
X134877500Y-88487250D01*
X135036250Y-88646000D01*
X136335500Y-88646000D01*
X136335500Y-87796750D01*
X136589500Y-87796750D01*
X136589500Y-88646000D01*
X137888750Y-88646000D01*
X138047500Y-88487250D01*
X138050572Y-88273000D01*
X138038312Y-88148518D01*
X138002002Y-88028820D01*
X137943037Y-87918506D01*
X137863685Y-87821815D01*
X137766994Y-87742463D01*
X137656680Y-87683498D01*
X137536982Y-87647188D01*
X137412500Y-87634928D01*
X136748250Y-87638000D01*
X136589500Y-87796750D01*
X136335500Y-87796750D01*
X136176750Y-87638000D01*
X135512500Y-87634928D01*
X135388018Y-87647188D01*
X135268320Y-87683498D01*
X135158006Y-87742463D01*
X135061315Y-87821815D01*
X134981963Y-87918506D01*
X134922998Y-88028820D01*
X134886688Y-88148518D01*
X134874428Y-88273000D01*
X109601000Y-88273000D01*
X109601000Y-84643630D01*
X111702716Y-86745346D01*
X111726578Y-86774422D01*
X111800219Y-86834857D01*
X111842607Y-86869645D01*
X111885879Y-86892774D01*
X111974985Y-86940402D01*
X112118622Y-86983974D01*
X112230574Y-86995000D01*
X112230577Y-86995000D01*
X112268000Y-86998686D01*
X112305423Y-86995000D01*
X138232523Y-86995000D01*
X138281963Y-87087494D01*
X138361315Y-87184185D01*
X138458006Y-87263537D01*
X138568320Y-87322502D01*
X138688018Y-87358812D01*
X138812500Y-87371072D01*
X140712500Y-87371072D01*
X140836982Y-87358812D01*
X140956680Y-87322502D01*
X141066994Y-87263537D01*
X141163685Y-87184185D01*
X141243037Y-87087494D01*
X141292477Y-86995000D01*
X142046289Y-86995000D01*
X142088226Y-87036937D01*
X142257744Y-87150205D01*
X142446102Y-87228226D01*
X142646061Y-87268000D01*
X142849939Y-87268000D01*
X143049898Y-87228226D01*
X143238256Y-87150205D01*
X143407774Y-87036937D01*
X143551937Y-86892774D01*
X143665205Y-86723256D01*
X143743226Y-86534898D01*
X143783000Y-86334939D01*
X143783000Y-86131061D01*
X143743226Y-85931102D01*
X143665205Y-85742744D01*
X143551937Y-85573226D01*
X143407774Y-85429063D01*
X143238256Y-85315795D01*
X143049898Y-85237774D01*
X142849939Y-85198000D01*
X142646061Y-85198000D01*
X142446102Y-85237774D01*
X142257744Y-85315795D01*
X142088226Y-85429063D01*
X142046289Y-85471000D01*
X141292477Y-85471000D01*
X141243037Y-85378506D01*
X141163685Y-85281815D01*
X141066994Y-85202463D01*
X140956680Y-85143498D01*
X140836982Y-85107188D01*
X140712500Y-85094928D01*
X138812500Y-85094928D01*
X138688018Y-85107188D01*
X138568320Y-85143498D01*
X138458006Y-85202463D01*
X138361315Y-85281815D01*
X138281963Y-85378506D01*
X138232523Y-85471000D01*
X112583630Y-85471000D01*
X111567630Y-84455000D01*
X134932523Y-84455000D01*
X134981963Y-84547494D01*
X135061315Y-84644185D01*
X135158006Y-84723537D01*
X135268320Y-84782502D01*
X135388018Y-84818812D01*
X135512500Y-84831072D01*
X137412500Y-84831072D01*
X137536982Y-84818812D01*
X137656680Y-84782502D01*
X137766994Y-84723537D01*
X137863685Y-84644185D01*
X137943037Y-84547494D01*
X137992477Y-84455000D01*
X142329574Y-84455000D01*
X142367000Y-84458686D01*
X142404425Y-84455000D01*
X142404426Y-84455000D01*
X142516378Y-84443974D01*
X142660015Y-84400402D01*
X142792392Y-84329645D01*
X142908422Y-84234422D01*
X143003645Y-84118392D01*
X143074402Y-83986015D01*
X143079099Y-83970531D01*
X147987099Y-79062531D01*
X149131389Y-79062531D01*
X149173401Y-79352019D01*
X149271081Y-79627747D01*
X149344528Y-79765157D01*
X149593603Y-79842792D01*
X150442395Y-78994000D01*
X150801605Y-78994000D01*
X151650397Y-79842792D01*
X151899472Y-79765157D01*
X152025371Y-79501117D01*
X152097339Y-79217589D01*
X152112611Y-78925469D01*
X152070599Y-78635981D01*
X151972919Y-78360253D01*
X151899472Y-78222843D01*
X151650397Y-78145208D01*
X150801605Y-78994000D01*
X150442395Y-78994000D01*
X149593603Y-78145208D01*
X149344528Y-78222843D01*
X149218629Y-78486883D01*
X149146661Y-78770411D01*
X149131389Y-79062531D01*
X147987099Y-79062531D01*
X149308929Y-77740702D01*
X149320815Y-77755185D01*
X149417506Y-77834537D01*
X149527820Y-77893502D01*
X149647518Y-77929812D01*
X149772000Y-77942072D01*
X149780542Y-77942072D01*
X149773208Y-77965603D01*
X150622000Y-78814395D01*
X151470792Y-77965603D01*
X151463458Y-77942072D01*
X151472000Y-77942072D01*
X151596482Y-77929812D01*
X151716180Y-77893502D01*
X151826494Y-77834537D01*
X151923185Y-77755185D01*
X152002537Y-77658494D01*
X152061502Y-77548180D01*
X152097812Y-77428482D01*
X152110072Y-77304000D01*
X152110072Y-77216000D01*
X160593370Y-77216000D01*
X165608001Y-82230632D01*
G37*
X165608001Y-82230632D02*
X165608000Y-87949369D01*
X164784370Y-88773000D01*
X156395490Y-88773000D01*
X156492205Y-88628256D01*
X156570226Y-88439898D01*
X156610000Y-88239939D01*
X156610000Y-88036061D01*
X156570226Y-87836102D01*
X156492205Y-87647744D01*
X156378937Y-87478226D01*
X156234774Y-87334063D01*
X156065256Y-87220795D01*
X155876898Y-87142774D01*
X155676939Y-87103000D01*
X155473061Y-87103000D01*
X155273102Y-87142774D01*
X155084744Y-87220795D01*
X154915226Y-87334063D01*
X154771063Y-87478226D01*
X154657795Y-87647744D01*
X154579774Y-87836102D01*
X154540000Y-88036061D01*
X154540000Y-88239939D01*
X154579774Y-88439898D01*
X154657795Y-88628256D01*
X154754510Y-88773000D01*
X147828000Y-88773000D01*
X147803224Y-88775440D01*
X147779399Y-88782667D01*
X147757443Y-88794403D01*
X147738197Y-88810197D01*
X147722403Y-88829443D01*
X147710667Y-88851399D01*
X147703440Y-88875224D01*
X147701000Y-88900000D01*
X147701000Y-95823370D01*
X144636617Y-92758987D01*
X144681205Y-92692256D01*
X144759226Y-92503898D01*
X144799000Y-92303939D01*
X144799000Y-92100061D01*
X144759226Y-91900102D01*
X144681205Y-91711744D01*
X144567937Y-91542226D01*
X144423774Y-91398063D01*
X144394876Y-91378754D01*
X150257952Y-85515679D01*
X150475740Y-85559000D01*
X150768260Y-85559000D01*
X151055158Y-85501932D01*
X151325411Y-85389990D01*
X151568632Y-85227475D01*
X151775475Y-85020632D01*
X151937990Y-84777411D01*
X152005784Y-84613740D01*
X154471000Y-84613740D01*
X154471000Y-84906260D01*
X154528068Y-85193158D01*
X154640010Y-85463411D01*
X154802525Y-85706632D01*
X155009368Y-85913475D01*
X155252589Y-86075990D01*
X155522842Y-86187932D01*
X155809740Y-86245000D01*
X156102260Y-86245000D01*
X156389158Y-86187932D01*
X156659411Y-86075990D01*
X156902632Y-85913475D01*
X157109475Y-85706632D01*
X157226000Y-85532240D01*
X157342525Y-85706632D01*
X157549368Y-85913475D01*
X157792589Y-86075990D01*
X158062842Y-86187932D01*
X158349740Y-86245000D01*
X158642260Y-86245000D01*
X158929158Y-86187932D01*
X159199411Y-86075990D01*
X159442632Y-85913475D01*
X159567710Y-85788397D01*
X160187208Y-85788397D01*
X160264843Y-86037472D01*
X160528883Y-86163371D01*
X160812411Y-86235339D01*
X161104531Y-86250611D01*
X161394019Y-86208599D01*
X161669747Y-86110919D01*
X161807157Y-86037472D01*
X161884792Y-85788397D01*
X161036000Y-84939605D01*
X160187208Y-85788397D01*
X159567710Y-85788397D01*
X159649475Y-85706632D01*
X159765311Y-85533271D01*
X160007603Y-85608792D01*
X160856395Y-84760000D01*
X161215605Y-84760000D01*
X162064397Y-85608792D01*
X162306689Y-85533271D01*
X162422525Y-85706632D01*
X162629368Y-85913475D01*
X162872589Y-86075990D01*
X163142842Y-86187932D01*
X163429740Y-86245000D01*
X163722260Y-86245000D01*
X164009158Y-86187932D01*
X164279411Y-86075990D01*
X164522632Y-85913475D01*
X164729475Y-85706632D01*
X164891990Y-85463411D01*
X165003932Y-85193158D01*
X165061000Y-84906260D01*
X165061000Y-84613740D01*
X165003932Y-84326842D01*
X164891990Y-84056589D01*
X164729475Y-83813368D01*
X164522632Y-83606525D01*
X164279411Y-83444010D01*
X164009158Y-83332068D01*
X163722260Y-83275000D01*
X163429740Y-83275000D01*
X163142842Y-83332068D01*
X162872589Y-83444010D01*
X162629368Y-83606525D01*
X162422525Y-83813368D01*
X162306689Y-83986729D01*
X162064397Y-83911208D01*
X161215605Y-84760000D01*
X160856395Y-84760000D01*
X160007603Y-83911208D01*
X159765311Y-83986729D01*
X159649475Y-83813368D01*
X159567710Y-83731603D01*
X160187208Y-83731603D01*
X161036000Y-84580395D01*
X161884792Y-83731603D01*
X161807157Y-83482528D01*
X161543117Y-83356629D01*
X161259589Y-83284661D01*
X160967469Y-83269389D01*
X160677981Y-83311401D01*
X160402253Y-83409081D01*
X160264843Y-83482528D01*
X160187208Y-83731603D01*
X159567710Y-83731603D01*
X159442632Y-83606525D01*
X159199411Y-83444010D01*
X158929158Y-83332068D01*
X158642260Y-83275000D01*
X158349740Y-83275000D01*
X158062842Y-83332068D01*
X157792589Y-83444010D01*
X157549368Y-83606525D01*
X157342525Y-83813368D01*
X157226000Y-83987760D01*
X157109475Y-83813368D01*
X156902632Y-83606525D01*
X156659411Y-83444010D01*
X156389158Y-83332068D01*
X156102260Y-83275000D01*
X155809740Y-83275000D01*
X155522842Y-83332068D01*
X155252589Y-83444010D01*
X155009368Y-83606525D01*
X154802525Y-83813368D01*
X154640010Y-84056589D01*
X154528068Y-84326842D01*
X154471000Y-84613740D01*
X152005784Y-84613740D01*
X152049932Y-84507158D01*
X152107000Y-84220260D01*
X152107000Y-83927740D01*
X152049932Y-83640842D01*
X151937990Y-83370589D01*
X151775475Y-83127368D01*
X151568632Y-82920525D01*
X151394240Y-82804000D01*
X151568632Y-82687475D01*
X151775475Y-82480632D01*
X151937990Y-82237411D01*
X152049932Y-81967158D01*
X152107000Y-81680260D01*
X152107000Y-81387740D01*
X152049932Y-81100842D01*
X151937990Y-80830589D01*
X151775475Y-80587368D01*
X151568632Y-80380525D01*
X151395271Y-80264689D01*
X151470792Y-80022397D01*
X150622000Y-79173605D01*
X149773208Y-80022397D01*
X149848729Y-80264689D01*
X149675368Y-80380525D01*
X149468525Y-80587368D01*
X149306010Y-80830589D01*
X149194068Y-81100842D01*
X149137000Y-81387740D01*
X149137000Y-81680260D01*
X149176002Y-81876337D01*
X141703850Y-89135000D01*
X141630061Y-89135000D01*
X141430102Y-89174774D01*
X141241744Y-89252795D01*
X141072226Y-89366063D01*
X140928063Y-89510226D01*
X140814795Y-89679744D01*
X140736774Y-89868102D01*
X140697000Y-90068061D01*
X140697000Y-90174928D01*
X138812500Y-90174928D01*
X138688018Y-90187188D01*
X138568320Y-90223498D01*
X138458006Y-90282463D01*
X138361315Y-90361815D01*
X138281963Y-90458506D01*
X138232523Y-90551000D01*
X130967423Y-90551000D01*
X130930000Y-90547314D01*
X130892577Y-90551000D01*
X130892574Y-90551000D01*
X130780622Y-90562026D01*
X130636985Y-90605598D01*
X130575364Y-90638535D01*
X130504607Y-90676355D01*
X130489787Y-90688518D01*
X130388578Y-90771578D01*
X130364716Y-90800654D01*
X123883733Y-97281637D01*
X123980205Y-97137256D01*
X124058226Y-96948898D01*
X124098000Y-96748939D01*
X124098000Y-96545061D01*
X124058226Y-96345102D01*
X123980205Y-96156744D01*
X123866937Y-95987226D01*
X123722774Y-95843063D01*
X123553256Y-95729795D01*
X123364898Y-95651774D01*
X123164939Y-95612000D01*
X122961061Y-95612000D01*
X122761102Y-95651774D01*
X122572744Y-95729795D01*
X122403226Y-95843063D01*
X122259063Y-95987226D01*
X122145795Y-96156744D01*
X122092670Y-96284999D01*
X117890423Y-96284999D01*
X117853000Y-96281313D01*
X117815577Y-96284999D01*
X117815575Y-96284999D01*
X117703623Y-96296025D01*
X117559986Y-96339597D01*
X117427609Y-96410354D01*
X117311579Y-96505577D01*
X117287722Y-96534647D01*
X115946654Y-97875716D01*
X115917578Y-97899578D01*
X115878350Y-97947378D01*
X115822355Y-98015608D01*
X115795218Y-98066378D01*
X115785820Y-98083960D01*
X115714820Y-98105498D01*
X115604506Y-98164463D01*
X115507815Y-98243815D01*
X115428463Y-98340506D01*
X115369498Y-98450820D01*
X115333188Y-98570518D01*
X115320928Y-98695000D01*
X115320928Y-101205000D01*
X115333188Y-101329482D01*
X115369498Y-101449180D01*
X115428463Y-101559494D01*
X115507815Y-101656185D01*
X115604506Y-101735537D01*
X115714820Y-101794502D01*
X115834518Y-101830812D01*
X115959000Y-101843072D01*
X116959000Y-101843072D01*
X117083482Y-101830812D01*
X117203180Y-101794502D01*
X117313494Y-101735537D01*
X117410185Y-101656185D01*
X117489537Y-101559494D01*
X117548502Y-101449180D01*
X117584812Y-101329482D01*
X117597072Y-101205000D01*
X117597072Y-98695000D01*
X117584812Y-98570518D01*
X117548502Y-98450820D01*
X117540946Y-98436684D01*
X118168632Y-97808999D01*
X122625578Y-97808999D01*
X122663001Y-97812685D01*
X122700424Y-97808999D01*
X122700427Y-97808999D01*
X122812379Y-97797973D01*
X122956016Y-97754401D01*
X123088393Y-97683644D01*
X123090396Y-97682000D01*
X123164939Y-97682000D01*
X123364898Y-97642226D01*
X123553256Y-97564205D01*
X123697637Y-97467733D01*
X122648529Y-98516841D01*
X122628502Y-98450820D01*
X122569537Y-98340506D01*
X122490185Y-98243815D01*
X122393494Y-98164463D01*
X122283180Y-98105498D01*
X122163482Y-98069188D01*
X122039000Y-98056928D01*
X121039000Y-98056928D01*
X120914518Y-98069188D01*
X120794820Y-98105498D01*
X120684506Y-98164463D01*
X120587815Y-98243815D01*
X120508463Y-98340506D01*
X120449498Y-98450820D01*
X120413188Y-98570518D01*
X120400928Y-98695000D01*
X120400928Y-101205000D01*
X120413188Y-101329482D01*
X120449498Y-101449180D01*
X120508463Y-101559494D01*
X120587815Y-101656185D01*
X120684506Y-101735537D01*
X120794820Y-101794502D01*
X120914518Y-101830812D01*
X121039000Y-101843072D01*
X121694220Y-101843072D01*
X121049292Y-102488000D01*
X120137072Y-102488000D01*
X120137072Y-101995000D01*
X120124812Y-101870518D01*
X120088502Y-101750820D01*
X120029537Y-101640506D01*
X119950185Y-101543815D01*
X119853494Y-101464463D01*
X119743180Y-101405498D01*
X119623482Y-101369188D01*
X119499000Y-101356928D01*
X118499000Y-101356928D01*
X118374518Y-101369188D01*
X118254820Y-101405498D01*
X118144506Y-101464463D01*
X118047815Y-101543815D01*
X117968463Y-101640506D01*
X117909498Y-101750820D01*
X117873188Y-101870518D01*
X117860928Y-101995000D01*
X117860928Y-103136227D01*
X117703939Y-103105000D01*
X117500061Y-103105000D01*
X117300102Y-103144774D01*
X117111744Y-103222795D01*
X116942226Y-103336063D01*
X116798063Y-103480226D01*
X116684795Y-103649744D01*
X116606774Y-103838102D01*
X116567000Y-104038061D01*
X116567000Y-104241939D01*
X116606774Y-104441898D01*
X116612611Y-104455990D01*
X116315433Y-104455990D01*
X116278010Y-104452304D01*
X116240587Y-104455990D01*
X116240584Y-104455990D01*
X116128632Y-104467016D01*
X115984995Y-104510588D01*
X115965516Y-104521000D01*
X115852617Y-104581345D01*
X115771398Y-104648000D01*
X115736588Y-104676568D01*
X115712731Y-104705639D01*
X115582945Y-104835425D01*
X115567750Y-104833928D01*
X115080250Y-104833928D01*
X114956698Y-104846097D01*
X115008502Y-104749180D01*
X115044812Y-104629482D01*
X115057072Y-104505000D01*
X115057072Y-101995000D01*
X115044812Y-101870518D01*
X115008502Y-101750820D01*
X114949537Y-101640506D01*
X114870185Y-101543815D01*
X114773494Y-101464463D01*
X114663180Y-101405498D01*
X114543482Y-101369188D01*
X114419000Y-101356928D01*
X113419000Y-101356928D01*
X113294518Y-101369188D01*
X113174820Y-101405498D01*
X113064506Y-101464463D01*
X112967815Y-101543815D01*
X112888463Y-101640506D01*
X112829498Y-101750820D01*
X112793188Y-101870518D01*
X112780928Y-101995000D01*
X112780928Y-104505000D01*
X112793188Y-104629482D01*
X112829498Y-104749180D01*
X112865185Y-104815945D01*
X112796774Y-104981102D01*
X112757000Y-105181061D01*
X112757000Y-105384939D01*
X112758205Y-105390998D01*
X110548629Y-105390998D01*
X109920946Y-104763316D01*
X109928502Y-104749180D01*
X109964812Y-104629482D01*
X109977072Y-104505000D01*
X109977072Y-101995000D01*
X109964812Y-101870518D01*
X109928502Y-101750820D01*
X109869537Y-101640506D01*
X109790185Y-101543815D01*
X109693494Y-101464463D01*
X109601000Y-101415023D01*
X109601000Y-101205000D01*
X110240928Y-101205000D01*
X110253188Y-101329482D01*
X110289498Y-101449180D01*
X110348463Y-101559494D01*
X110427815Y-101656185D01*
X110524506Y-101735537D01*
X110634820Y-101794502D01*
X110754518Y-101830812D01*
X110879000Y-101843072D01*
X111093250Y-101840000D01*
X111252000Y-101681250D01*
X111252000Y-100077000D01*
X111506000Y-100077000D01*
X111506000Y-101681250D01*
X111664750Y-101840000D01*
X111879000Y-101843072D01*
X112003482Y-101830812D01*
X112123180Y-101794502D01*
X112233494Y-101735537D01*
X112330185Y-101656185D01*
X112409537Y-101559494D01*
X112468502Y-101449180D01*
X112504812Y-101329482D01*
X112517072Y-101205000D01*
X112514000Y-100235750D01*
X112355250Y-100077000D01*
X111506000Y-100077000D01*
X111252000Y-100077000D01*
X110402750Y-100077000D01*
X110244000Y-100235750D01*
X110240928Y-101205000D01*
X109601000Y-101205000D01*
X109601000Y-98695000D01*
X110240928Y-98695000D01*
X110244000Y-99664250D01*
X110402750Y-99823000D01*
X111252000Y-99823000D01*
X111252000Y-98218750D01*
X111506000Y-98218750D01*
X111506000Y-99823000D01*
X112355250Y-99823000D01*
X112514000Y-99664250D01*
X112517072Y-98695000D01*
X112504812Y-98570518D01*
X112468502Y-98450820D01*
X112409537Y-98340506D01*
X112330185Y-98243815D01*
X112233494Y-98164463D01*
X112123180Y-98105498D01*
X112003482Y-98069188D01*
X111879000Y-98056928D01*
X111664750Y-98060000D01*
X111506000Y-98218750D01*
X111252000Y-98218750D01*
X111093250Y-98060000D01*
X110879000Y-98056928D01*
X110754518Y-98069188D01*
X110634820Y-98105498D01*
X110524506Y-98164463D01*
X110427815Y-98243815D01*
X110348463Y-98340506D01*
X110289498Y-98450820D01*
X110253188Y-98570518D01*
X110240928Y-98695000D01*
X109601000Y-98695000D01*
X109601000Y-89273000D01*
X134874428Y-89273000D01*
X134886688Y-89397482D01*
X134922998Y-89517180D01*
X134981963Y-89627494D01*
X135061315Y-89724185D01*
X135158006Y-89803537D01*
X135268320Y-89862502D01*
X135388018Y-89898812D01*
X135512500Y-89911072D01*
X136176750Y-89908000D01*
X136335500Y-89749250D01*
X136335500Y-88900000D01*
X136589500Y-88900000D01*
X136589500Y-89749250D01*
X136748250Y-89908000D01*
X137412500Y-89911072D01*
X137536982Y-89898812D01*
X137656680Y-89862502D01*
X137766994Y-89803537D01*
X137863685Y-89724185D01*
X137943037Y-89627494D01*
X138002002Y-89517180D01*
X138038312Y-89397482D01*
X138050572Y-89273000D01*
X138047500Y-89058750D01*
X137888750Y-88900000D01*
X136589500Y-88900000D01*
X136335500Y-88900000D01*
X135036250Y-88900000D01*
X134877500Y-89058750D01*
X134874428Y-89273000D01*
X109601000Y-89273000D01*
X109601000Y-88273000D01*
X134874428Y-88273000D01*
X134877500Y-88487250D01*
X135036250Y-88646000D01*
X136335500Y-88646000D01*
X136335500Y-87796750D01*
X136589500Y-87796750D01*
X136589500Y-88646000D01*
X137888750Y-88646000D01*
X138047500Y-88487250D01*
X138050572Y-88273000D01*
X138038312Y-88148518D01*
X138002002Y-88028820D01*
X137943037Y-87918506D01*
X137863685Y-87821815D01*
X137766994Y-87742463D01*
X137656680Y-87683498D01*
X137536982Y-87647188D01*
X137412500Y-87634928D01*
X136748250Y-87638000D01*
X136589500Y-87796750D01*
X136335500Y-87796750D01*
X136176750Y-87638000D01*
X135512500Y-87634928D01*
X135388018Y-87647188D01*
X135268320Y-87683498D01*
X135158006Y-87742463D01*
X135061315Y-87821815D01*
X134981963Y-87918506D01*
X134922998Y-88028820D01*
X134886688Y-88148518D01*
X134874428Y-88273000D01*
X109601000Y-88273000D01*
X109601000Y-84643630D01*
X111702716Y-86745346D01*
X111726578Y-86774422D01*
X111800219Y-86834857D01*
X111842607Y-86869645D01*
X111885879Y-86892774D01*
X111974985Y-86940402D01*
X112118622Y-86983974D01*
X112230574Y-86995000D01*
X112230577Y-86995000D01*
X112268000Y-86998686D01*
X112305423Y-86995000D01*
X138232523Y-86995000D01*
X138281963Y-87087494D01*
X138361315Y-87184185D01*
X138458006Y-87263537D01*
X138568320Y-87322502D01*
X138688018Y-87358812D01*
X138812500Y-87371072D01*
X140712500Y-87371072D01*
X140836982Y-87358812D01*
X140956680Y-87322502D01*
X141066994Y-87263537D01*
X141163685Y-87184185D01*
X141243037Y-87087494D01*
X141292477Y-86995000D01*
X142046289Y-86995000D01*
X142088226Y-87036937D01*
X142257744Y-87150205D01*
X142446102Y-87228226D01*
X142646061Y-87268000D01*
X142849939Y-87268000D01*
X143049898Y-87228226D01*
X143238256Y-87150205D01*
X143407774Y-87036937D01*
X143551937Y-86892774D01*
X143665205Y-86723256D01*
X143743226Y-86534898D01*
X143783000Y-86334939D01*
X143783000Y-86131061D01*
X143743226Y-85931102D01*
X143665205Y-85742744D01*
X143551937Y-85573226D01*
X143407774Y-85429063D01*
X143238256Y-85315795D01*
X143049898Y-85237774D01*
X142849939Y-85198000D01*
X142646061Y-85198000D01*
X142446102Y-85237774D01*
X142257744Y-85315795D01*
X142088226Y-85429063D01*
X142046289Y-85471000D01*
X141292477Y-85471000D01*
X141243037Y-85378506D01*
X141163685Y-85281815D01*
X141066994Y-85202463D01*
X140956680Y-85143498D01*
X140836982Y-85107188D01*
X140712500Y-85094928D01*
X138812500Y-85094928D01*
X138688018Y-85107188D01*
X138568320Y-85143498D01*
X138458006Y-85202463D01*
X138361315Y-85281815D01*
X138281963Y-85378506D01*
X138232523Y-85471000D01*
X112583630Y-85471000D01*
X111567630Y-84455000D01*
X134932523Y-84455000D01*
X134981963Y-84547494D01*
X135061315Y-84644185D01*
X135158006Y-84723537D01*
X135268320Y-84782502D01*
X135388018Y-84818812D01*
X135512500Y-84831072D01*
X137412500Y-84831072D01*
X137536982Y-84818812D01*
X137656680Y-84782502D01*
X137766994Y-84723537D01*
X137863685Y-84644185D01*
X137943037Y-84547494D01*
X137992477Y-84455000D01*
X142329574Y-84455000D01*
X142367000Y-84458686D01*
X142404425Y-84455000D01*
X142404426Y-84455000D01*
X142516378Y-84443974D01*
X142660015Y-84400402D01*
X142792392Y-84329645D01*
X142908422Y-84234422D01*
X143003645Y-84118392D01*
X143074402Y-83986015D01*
X143079099Y-83970531D01*
X147987099Y-79062531D01*
X149131389Y-79062531D01*
X149173401Y-79352019D01*
X149271081Y-79627747D01*
X149344528Y-79765157D01*
X149593603Y-79842792D01*
X150442395Y-78994000D01*
X150801605Y-78994000D01*
X151650397Y-79842792D01*
X151899472Y-79765157D01*
X152025371Y-79501117D01*
X152097339Y-79217589D01*
X152112611Y-78925469D01*
X152070599Y-78635981D01*
X151972919Y-78360253D01*
X151899472Y-78222843D01*
X151650397Y-78145208D01*
X150801605Y-78994000D01*
X150442395Y-78994000D01*
X149593603Y-78145208D01*
X149344528Y-78222843D01*
X149218629Y-78486883D01*
X149146661Y-78770411D01*
X149131389Y-79062531D01*
X147987099Y-79062531D01*
X149308929Y-77740702D01*
X149320815Y-77755185D01*
X149417506Y-77834537D01*
X149527820Y-77893502D01*
X149647518Y-77929812D01*
X149772000Y-77942072D01*
X149780542Y-77942072D01*
X149773208Y-77965603D01*
X150622000Y-78814395D01*
X151470792Y-77965603D01*
X151463458Y-77942072D01*
X151472000Y-77942072D01*
X151596482Y-77929812D01*
X151716180Y-77893502D01*
X151826494Y-77834537D01*
X151923185Y-77755185D01*
X152002537Y-77658494D01*
X152061502Y-77548180D01*
X152097812Y-77428482D01*
X152110072Y-77304000D01*
X152110072Y-77216000D01*
X160593370Y-77216000D01*
X165608001Y-82230632D01*
G36*
X108077000Y-101415023D02*
G01*
X107984506Y-101464463D01*
X107887815Y-101543815D01*
X107808463Y-101640506D01*
X107749498Y-101750820D01*
X107713188Y-101870518D01*
X107700928Y-101995000D01*
X107700928Y-104505000D01*
X107713188Y-104629482D01*
X107749498Y-104749180D01*
X107808463Y-104859494D01*
X107816873Y-104869741D01*
X107774820Y-104882498D01*
X107664506Y-104941463D01*
X107567815Y-105020815D01*
X107504008Y-105098564D01*
X107498792Y-105092208D01*
X107393500Y-105005797D01*
X107393500Y-100953211D01*
X107435437Y-100911274D01*
X107548705Y-100741756D01*
X107626726Y-100553398D01*
X107666500Y-100353439D01*
X107666500Y-100294130D01*
X108077000Y-99883630D01*
X108077000Y-101415023D01*
G37*
X108077000Y-101415023D02*
X107984506Y-101464463D01*
X107887815Y-101543815D01*
X107808463Y-101640506D01*
X107749498Y-101750820D01*
X107713188Y-101870518D01*
X107700928Y-101995000D01*
X107700928Y-104505000D01*
X107713188Y-104629482D01*
X107749498Y-104749180D01*
X107808463Y-104859494D01*
X107816873Y-104869741D01*
X107774820Y-104882498D01*
X107664506Y-104941463D01*
X107567815Y-105020815D01*
X107504008Y-105098564D01*
X107498792Y-105092208D01*
X107393500Y-105005797D01*
X107393500Y-100953211D01*
X107435437Y-100911274D01*
X107548705Y-100741756D01*
X107626726Y-100553398D01*
X107666500Y-100353439D01*
X107666500Y-100294130D01*
X108077000Y-99883630D01*
X108077000Y-101415023D01*
G36*
X142960063Y-92861774D02*
G01*
X143002000Y-92903711D01*
X143002000Y-92926577D01*
X142998314Y-92964000D01*
X143002000Y-93001423D01*
X143002000Y-93001425D01*
X143013026Y-93113377D01*
X143056598Y-93257014D01*
X143073011Y-93287721D01*
X143127355Y-93389392D01*
X143158718Y-93427608D01*
X143222578Y-93505422D01*
X143251654Y-93529284D01*
X147701000Y-97978631D01*
X147701000Y-99887369D01*
X141793630Y-93980000D01*
X142940754Y-92832876D01*
X142960063Y-92861774D01*
G37*
X142960063Y-92861774D02*
X143002000Y-92903711D01*
X143002000Y-92926577D01*
X142998314Y-92964000D01*
X143002000Y-93001423D01*
X143002000Y-93001425D01*
X143013026Y-93113377D01*
X143056598Y-93257014D01*
X143073011Y-93287721D01*
X143127355Y-93389392D01*
X143158718Y-93427608D01*
X143222578Y-93505422D01*
X143251654Y-93529284D01*
X147701000Y-97978631D01*
X147701000Y-99887369D01*
X141793630Y-93980000D01*
X142940754Y-92832876D01*
X142960063Y-92861774D01*
G36*
X107695989Y-97858502D02*
G01*
X107551256Y-97761795D01*
X107362898Y-97683774D01*
X107162939Y-97644000D01*
X107103630Y-97644000D01*
X106942000Y-97482370D01*
X106942000Y-90185606D01*
X106959061Y-90189000D01*
X107162939Y-90189000D01*
X107362898Y-90149226D01*
X107551256Y-90071205D01*
X107695990Y-89974497D01*
X107695989Y-97858502D01*
G37*
X107695989Y-97858502D02*
X107551256Y-97761795D01*
X107362898Y-97683774D01*
X107162939Y-97644000D01*
X107103630Y-97644000D01*
X106942000Y-97482370D01*
X106942000Y-90185606D01*
X106959061Y-90189000D01*
X107162939Y-90189000D01*
X107362898Y-90149226D01*
X107551256Y-90071205D01*
X107695990Y-89974497D01*
X107695989Y-97858502D01*
G36*
X149137000Y-84220260D02*
G01*
X149180321Y-84438048D01*
X140409850Y-93208520D01*
X138010514Y-93136881D01*
X138002002Y-93108820D01*
X137943037Y-92998506D01*
X137863685Y-92901815D01*
X137766994Y-92822463D01*
X137656680Y-92763498D01*
X137536982Y-92727188D01*
X137412500Y-92714928D01*
X135512500Y-92714928D01*
X135388018Y-92727188D01*
X135268320Y-92763498D01*
X135158006Y-92822463D01*
X135061315Y-92901815D01*
X134981963Y-92998506D01*
X134932523Y-93091000D01*
X130541220Y-93091000D01*
X130503797Y-93087314D01*
X130466374Y-93091000D01*
X130466372Y-93091000D01*
X130354420Y-93102026D01*
X130210783Y-93145598D01*
X130133980Y-93186650D01*
X131245630Y-92075000D01*
X138232523Y-92075000D01*
X138281963Y-92167494D01*
X138361315Y-92264185D01*
X138458006Y-92343537D01*
X138568320Y-92402502D01*
X138688018Y-92438812D01*
X138812500Y-92451072D01*
X140712500Y-92451072D01*
X140836982Y-92438812D01*
X140956680Y-92402502D01*
X141066994Y-92343537D01*
X141163685Y-92264185D01*
X141243037Y-92167494D01*
X141302002Y-92057180D01*
X141338312Y-91937482D01*
X141342699Y-91892936D01*
X141344073Y-91891965D01*
X141363076Y-91871940D01*
X141384422Y-91854422D01*
X141414626Y-91817618D01*
X141421509Y-91810365D01*
X141438380Y-91788674D01*
X141479645Y-91738392D01*
X141484384Y-91729525D01*
X141903039Y-91191255D01*
X142033898Y-91165226D01*
X142222256Y-91087205D01*
X142391774Y-90973937D01*
X142535937Y-90829774D01*
X142649205Y-90660256D01*
X142727226Y-90471898D01*
X142767000Y-90271939D01*
X142767000Y-90226917D01*
X149137000Y-84038918D01*
X149137000Y-84220260D01*
G37*
X149137000Y-84220260D02*
X149180321Y-84438048D01*
X140409850Y-93208520D01*
X138010514Y-93136881D01*
X138002002Y-93108820D01*
X137943037Y-92998506D01*
X137863685Y-92901815D01*
X137766994Y-92822463D01*
X137656680Y-92763498D01*
X137536982Y-92727188D01*
X137412500Y-92714928D01*
X135512500Y-92714928D01*
X135388018Y-92727188D01*
X135268320Y-92763498D01*
X135158006Y-92822463D01*
X135061315Y-92901815D01*
X134981963Y-92998506D01*
X134932523Y-93091000D01*
X130541220Y-93091000D01*
X130503797Y-93087314D01*
X130466374Y-93091000D01*
X130466372Y-93091000D01*
X130354420Y-93102026D01*
X130210783Y-93145598D01*
X130133980Y-93186650D01*
X131245630Y-92075000D01*
X138232523Y-92075000D01*
X138281963Y-92167494D01*
X138361315Y-92264185D01*
X138458006Y-92343537D01*
X138568320Y-92402502D01*
X138688018Y-92438812D01*
X138812500Y-92451072D01*
X140712500Y-92451072D01*
X140836982Y-92438812D01*
X140956680Y-92402502D01*
X141066994Y-92343537D01*
X141163685Y-92264185D01*
X141243037Y-92167494D01*
X141302002Y-92057180D01*
X141338312Y-91937482D01*
X141342699Y-91892936D01*
X141344073Y-91891965D01*
X141363076Y-91871940D01*
X141384422Y-91854422D01*
X141414626Y-91817618D01*
X141421509Y-91810365D01*
X141438380Y-91788674D01*
X141479645Y-91738392D01*
X141484384Y-91729525D01*
X141903039Y-91191255D01*
X142033898Y-91165226D01*
X142222256Y-91087205D01*
X142391774Y-90973937D01*
X142535937Y-90829774D01*
X142649205Y-90660256D01*
X142727226Y-90471898D01*
X142767000Y-90271939D01*
X142767000Y-90226917D01*
X149137000Y-84038918D01*
X149137000Y-84220260D01*
G36*
X168021000Y-88773000D02*
G01*
X166938851Y-88773000D01*
X167006645Y-88690392D01*
X167077402Y-88558015D01*
X167120974Y-88414378D01*
X167132000Y-88302426D01*
X167132000Y-88302424D01*
X167135686Y-88265001D01*
X167132000Y-88227578D01*
X167132000Y-81952422D01*
X167135686Y-81914999D01*
X167132000Y-81877574D01*
X167120974Y-81765622D01*
X167077402Y-81621985D01*
X167006645Y-81489608D01*
X166911422Y-81373578D01*
X166882352Y-81349721D01*
X162857962Y-77325331D01*
X164638090Y-77325331D01*
X164638090Y-77654669D01*
X164702340Y-77977678D01*
X164828372Y-78281947D01*
X165011342Y-78555781D01*
X165244219Y-78788658D01*
X165518053Y-78971628D01*
X165822322Y-79097660D01*
X166145331Y-79161910D01*
X166474669Y-79161910D01*
X166797678Y-79097660D01*
X167101947Y-78971628D01*
X167375781Y-78788658D01*
X167608658Y-78555781D01*
X167791628Y-78281947D01*
X167917660Y-77977678D01*
X167981910Y-77654669D01*
X167981910Y-77325331D01*
X167917660Y-77002322D01*
X167791628Y-76698053D01*
X167608658Y-76424219D01*
X167375781Y-76191342D01*
X167101947Y-76008372D01*
X166797678Y-75882340D01*
X166474669Y-75818090D01*
X166145331Y-75818090D01*
X165822322Y-75882340D01*
X165518053Y-76008372D01*
X165244219Y-76191342D01*
X165011342Y-76424219D01*
X164828372Y-76698053D01*
X164702340Y-77002322D01*
X164638090Y-77325331D01*
X162857962Y-77325331D01*
X161474284Y-75941654D01*
X161450422Y-75912578D01*
X161334392Y-75817355D01*
X161202015Y-75746598D01*
X161058378Y-75703026D01*
X160946426Y-75692000D01*
X160946423Y-75692000D01*
X160909000Y-75688314D01*
X160871577Y-75692000D01*
X152110072Y-75692000D01*
X152110072Y-75604000D01*
X152097812Y-75479518D01*
X152061502Y-75359820D01*
X152002537Y-75249506D01*
X151923185Y-75152815D01*
X151826494Y-75073463D01*
X151716180Y-75014498D01*
X151596482Y-74978188D01*
X151472000Y-74965928D01*
X149772000Y-74965928D01*
X149647518Y-74978188D01*
X149527820Y-75014498D01*
X149417506Y-75073463D01*
X149320815Y-75152815D01*
X149241463Y-75249506D01*
X149182498Y-75359820D01*
X149146188Y-75479518D01*
X149133928Y-75604000D01*
X149133928Y-75795269D01*
X149092608Y-75817355D01*
X148976578Y-75912578D01*
X148952721Y-75941648D01*
X141963370Y-82931000D01*
X137992477Y-82931000D01*
X137943037Y-82838506D01*
X137863685Y-82741815D01*
X137766994Y-82662463D01*
X137656680Y-82603498D01*
X137536982Y-82567188D01*
X137412500Y-82554928D01*
X135512500Y-82554928D01*
X135388018Y-82567188D01*
X135268320Y-82603498D01*
X135158006Y-82662463D01*
X135061315Y-82741815D01*
X134981963Y-82838506D01*
X134932523Y-82931000D01*
X128724461Y-82931000D01*
X128757226Y-82851898D01*
X128797000Y-82651939D01*
X128797000Y-82448061D01*
X128757226Y-82248102D01*
X128679205Y-82059744D01*
X128565937Y-81890226D01*
X128526722Y-81851011D01*
X128519505Y-81777735D01*
X128512974Y-81711420D01*
X128469402Y-81567783D01*
X128398645Y-81435406D01*
X128303422Y-81319376D01*
X128274353Y-81295520D01*
X125930105Y-78951272D01*
X125994518Y-78970812D01*
X126119000Y-78983072D01*
X127119000Y-78983072D01*
X127243482Y-78970812D01*
X127363180Y-78934502D01*
X127473494Y-78875537D01*
X127570185Y-78796185D01*
X127649537Y-78699494D01*
X127708502Y-78589180D01*
X127744812Y-78469482D01*
X127757072Y-78345000D01*
X127757072Y-76747000D01*
X135006928Y-76747000D01*
X135006928Y-78447000D01*
X135019188Y-78571482D01*
X135055498Y-78691180D01*
X135114463Y-78801494D01*
X135193815Y-78898185D01*
X135290506Y-78977537D01*
X135333001Y-79000251D01*
X135333001Y-80304567D01*
X135329314Y-80342000D01*
X135344027Y-80491378D01*
X135363000Y-80553923D01*
X135363000Y-80746939D01*
X135402774Y-80946898D01*
X135480795Y-81135256D01*
X135594063Y-81304774D01*
X135738226Y-81448937D01*
X135907744Y-81562205D01*
X136096102Y-81640226D01*
X136296061Y-81680000D01*
X136499939Y-81680000D01*
X136699898Y-81640226D01*
X136888256Y-81562205D01*
X137057774Y-81448937D01*
X137201937Y-81304774D01*
X137315205Y-81135256D01*
X137393226Y-80946898D01*
X137433000Y-80746939D01*
X137433000Y-80543061D01*
X137393226Y-80343102D01*
X137315205Y-80154744D01*
X137201937Y-79985226D01*
X137057774Y-79841063D01*
X136888256Y-79727795D01*
X136857000Y-79714848D01*
X136857000Y-79000251D01*
X136899494Y-78977537D01*
X136996185Y-78898185D01*
X137075537Y-78801494D01*
X137134502Y-78691180D01*
X137170812Y-78571482D01*
X137183072Y-78447000D01*
X138406928Y-78447000D01*
X138419188Y-78571482D01*
X138455498Y-78691180D01*
X138514463Y-78801494D01*
X138593815Y-78898185D01*
X138690506Y-78977537D01*
X138800820Y-79036502D01*
X138920518Y-79072812D01*
X139045000Y-79085072D01*
X139209250Y-79082000D01*
X139368000Y-78923250D01*
X139368000Y-77724000D01*
X139622000Y-77724000D01*
X139622000Y-78923250D01*
X139780750Y-79082000D01*
X139945000Y-79085072D01*
X140069482Y-79072812D01*
X140189180Y-79036502D01*
X140299494Y-78977537D01*
X140396185Y-78898185D01*
X140475537Y-78801494D01*
X140534502Y-78691180D01*
X140570812Y-78571482D01*
X140583072Y-78447000D01*
X140580000Y-77882750D01*
X140421250Y-77724000D01*
X139622000Y-77724000D01*
X139368000Y-77724000D01*
X138568750Y-77724000D01*
X138410000Y-77882750D01*
X138406928Y-78447000D01*
X137183072Y-78447000D01*
X137183072Y-76747000D01*
X138406928Y-76747000D01*
X138410000Y-77311250D01*
X138568750Y-77470000D01*
X139368000Y-77470000D01*
X139368000Y-76270750D01*
X139622000Y-76270750D01*
X139622000Y-77470000D01*
X140421250Y-77470000D01*
X140580000Y-77311250D01*
X140583072Y-76747000D01*
X140570812Y-76622518D01*
X140534502Y-76502820D01*
X140475537Y-76392506D01*
X140396185Y-76295815D01*
X140299494Y-76216463D01*
X140189180Y-76157498D01*
X140069482Y-76121188D01*
X139945000Y-76108928D01*
X139780750Y-76112000D01*
X139622000Y-76270750D01*
X139368000Y-76270750D01*
X139209250Y-76112000D01*
X139045000Y-76108928D01*
X138920518Y-76121188D01*
X138800820Y-76157498D01*
X138690506Y-76216463D01*
X138593815Y-76295815D01*
X138514463Y-76392506D01*
X138455498Y-76502820D01*
X138419188Y-76622518D01*
X138406928Y-76747000D01*
X137183072Y-76747000D01*
X137170812Y-76622518D01*
X137134502Y-76502820D01*
X137075537Y-76392506D01*
X136996185Y-76295815D01*
X136899494Y-76216463D01*
X136789180Y-76157498D01*
X136669482Y-76121188D01*
X136545000Y-76108928D01*
X135645000Y-76108928D01*
X135520518Y-76121188D01*
X135400820Y-76157498D01*
X135290506Y-76216463D01*
X135193815Y-76295815D01*
X135114463Y-76392506D01*
X135055498Y-76502820D01*
X135019188Y-76622518D01*
X135006928Y-76747000D01*
X127757072Y-76747000D01*
X127757072Y-75835000D01*
X127744812Y-75710518D01*
X127708502Y-75590820D01*
X127649537Y-75480506D01*
X127570185Y-75383815D01*
X127473494Y-75304463D01*
X127363180Y-75245498D01*
X127243482Y-75209188D01*
X127119000Y-75196928D01*
X126119000Y-75196928D01*
X125994518Y-75209188D01*
X125874820Y-75245498D01*
X125764506Y-75304463D01*
X125667815Y-75383815D01*
X125588463Y-75480506D01*
X125529498Y-75590820D01*
X125493188Y-75710518D01*
X125480928Y-75835000D01*
X125480928Y-78345000D01*
X125493188Y-78469482D01*
X125512728Y-78533896D01*
X125347485Y-78368653D01*
X125323623Y-78339577D01*
X125207593Y-78244354D01*
X125075216Y-78173597D01*
X124931579Y-78130025D01*
X124819627Y-78118999D01*
X124819624Y-78118999D01*
X124782201Y-78115313D01*
X124744778Y-78118999D01*
X122677072Y-78118999D01*
X122677072Y-75835000D01*
X122664812Y-75710518D01*
X122628502Y-75590820D01*
X122569537Y-75480506D01*
X122490185Y-75383815D01*
X122393494Y-75304463D01*
X122283180Y-75245498D01*
X122212180Y-75223960D01*
X122175645Y-75155608D01*
X122080422Y-75039578D01*
X122051347Y-75015717D01*
X121707284Y-74671654D01*
X121683422Y-74642578D01*
X121599859Y-74574000D01*
X168021000Y-74574000D01*
X168021000Y-88773000D01*
G37*
X168021000Y-88773000D02*
X166938851Y-88773000D01*
X167006645Y-88690392D01*
X167077402Y-88558015D01*
X167120974Y-88414378D01*
X167132000Y-88302426D01*
X167132000Y-88302424D01*
X167135686Y-88265001D01*
X167132000Y-88227578D01*
X167132000Y-81952422D01*
X167135686Y-81914999D01*
X167132000Y-81877574D01*
X167120974Y-81765622D01*
X167077402Y-81621985D01*
X167006645Y-81489608D01*
X166911422Y-81373578D01*
X166882352Y-81349721D01*
X162857962Y-77325331D01*
X164638090Y-77325331D01*
X164638090Y-77654669D01*
X164702340Y-77977678D01*
X164828372Y-78281947D01*
X165011342Y-78555781D01*
X165244219Y-78788658D01*
X165518053Y-78971628D01*
X165822322Y-79097660D01*
X166145331Y-79161910D01*
X166474669Y-79161910D01*
X166797678Y-79097660D01*
X167101947Y-78971628D01*
X167375781Y-78788658D01*
X167608658Y-78555781D01*
X167791628Y-78281947D01*
X167917660Y-77977678D01*
X167981910Y-77654669D01*
X167981910Y-77325331D01*
X167917660Y-77002322D01*
X167791628Y-76698053D01*
X167608658Y-76424219D01*
X167375781Y-76191342D01*
X167101947Y-76008372D01*
X166797678Y-75882340D01*
X166474669Y-75818090D01*
X166145331Y-75818090D01*
X165822322Y-75882340D01*
X165518053Y-76008372D01*
X165244219Y-76191342D01*
X165011342Y-76424219D01*
X164828372Y-76698053D01*
X164702340Y-77002322D01*
X164638090Y-77325331D01*
X162857962Y-77325331D01*
X161474284Y-75941654D01*
X161450422Y-75912578D01*
X161334392Y-75817355D01*
X161202015Y-75746598D01*
X161058378Y-75703026D01*
X160946426Y-75692000D01*
X160946423Y-75692000D01*
X160909000Y-75688314D01*
X160871577Y-75692000D01*
X152110072Y-75692000D01*
X152110072Y-75604000D01*
X152097812Y-75479518D01*
X152061502Y-75359820D01*
X152002537Y-75249506D01*
X151923185Y-75152815D01*
X151826494Y-75073463D01*
X151716180Y-75014498D01*
X151596482Y-74978188D01*
X151472000Y-74965928D01*
X149772000Y-74965928D01*
X149647518Y-74978188D01*
X149527820Y-75014498D01*
X149417506Y-75073463D01*
X149320815Y-75152815D01*
X149241463Y-75249506D01*
X149182498Y-75359820D01*
X149146188Y-75479518D01*
X149133928Y-75604000D01*
X149133928Y-75795269D01*
X149092608Y-75817355D01*
X148976578Y-75912578D01*
X148952721Y-75941648D01*
X141963370Y-82931000D01*
X137992477Y-82931000D01*
X137943037Y-82838506D01*
X137863685Y-82741815D01*
X137766994Y-82662463D01*
X137656680Y-82603498D01*
X137536982Y-82567188D01*
X137412500Y-82554928D01*
X135512500Y-82554928D01*
X135388018Y-82567188D01*
X135268320Y-82603498D01*
X135158006Y-82662463D01*
X135061315Y-82741815D01*
X134981963Y-82838506D01*
X134932523Y-82931000D01*
X128724461Y-82931000D01*
X128757226Y-82851898D01*
X128797000Y-82651939D01*
X128797000Y-82448061D01*
X128757226Y-82248102D01*
X128679205Y-82059744D01*
X128565937Y-81890226D01*
X128526722Y-81851011D01*
X128519505Y-81777735D01*
X128512974Y-81711420D01*
X128469402Y-81567783D01*
X128398645Y-81435406D01*
X128303422Y-81319376D01*
X128274353Y-81295520D01*
X125930105Y-78951272D01*
X125994518Y-78970812D01*
X126119000Y-78983072D01*
X127119000Y-78983072D01*
X127243482Y-78970812D01*
X127363180Y-78934502D01*
X127473494Y-78875537D01*
X127570185Y-78796185D01*
X127649537Y-78699494D01*
X127708502Y-78589180D01*
X127744812Y-78469482D01*
X127757072Y-78345000D01*
X127757072Y-76747000D01*
X135006928Y-76747000D01*
X135006928Y-78447000D01*
X135019188Y-78571482D01*
X135055498Y-78691180D01*
X135114463Y-78801494D01*
X135193815Y-78898185D01*
X135290506Y-78977537D01*
X135333001Y-79000251D01*
X135333001Y-80304567D01*
X135329314Y-80342000D01*
X135344027Y-80491378D01*
X135363000Y-80553923D01*
X135363000Y-80746939D01*
X135402774Y-80946898D01*
X135480795Y-81135256D01*
X135594063Y-81304774D01*
X135738226Y-81448937D01*
X135907744Y-81562205D01*
X136096102Y-81640226D01*
X136296061Y-81680000D01*
X136499939Y-81680000D01*
X136699898Y-81640226D01*
X136888256Y-81562205D01*
X137057774Y-81448937D01*
X137201937Y-81304774D01*
X137315205Y-81135256D01*
X137393226Y-80946898D01*
X137433000Y-80746939D01*
X137433000Y-80543061D01*
X137393226Y-80343102D01*
X137315205Y-80154744D01*
X137201937Y-79985226D01*
X137057774Y-79841063D01*
X136888256Y-79727795D01*
X136857000Y-79714848D01*
X136857000Y-79000251D01*
X136899494Y-78977537D01*
X136996185Y-78898185D01*
X137075537Y-78801494D01*
X137134502Y-78691180D01*
X137170812Y-78571482D01*
X137183072Y-78447000D01*
X138406928Y-78447000D01*
X138419188Y-78571482D01*
X138455498Y-78691180D01*
X138514463Y-78801494D01*
X138593815Y-78898185D01*
X138690506Y-78977537D01*
X138800820Y-79036502D01*
X138920518Y-79072812D01*
X139045000Y-79085072D01*
X139209250Y-79082000D01*
X139368000Y-78923250D01*
X139368000Y-77724000D01*
X139622000Y-77724000D01*
X139622000Y-78923250D01*
X139780750Y-79082000D01*
X139945000Y-79085072D01*
X140069482Y-79072812D01*
X140189180Y-79036502D01*
X140299494Y-78977537D01*
X140396185Y-78898185D01*
X140475537Y-78801494D01*
X140534502Y-78691180D01*
X140570812Y-78571482D01*
X140583072Y-78447000D01*
X140580000Y-77882750D01*
X140421250Y-77724000D01*
X139622000Y-77724000D01*
X139368000Y-77724000D01*
X138568750Y-77724000D01*
X138410000Y-77882750D01*
X138406928Y-78447000D01*
X137183072Y-78447000D01*
X137183072Y-76747000D01*
X138406928Y-76747000D01*
X138410000Y-77311250D01*
X138568750Y-77470000D01*
X139368000Y-77470000D01*
X139368000Y-76270750D01*
X139622000Y-76270750D01*
X139622000Y-77470000D01*
X140421250Y-77470000D01*
X140580000Y-77311250D01*
X140583072Y-76747000D01*
X140570812Y-76622518D01*
X140534502Y-76502820D01*
X140475537Y-76392506D01*
X140396185Y-76295815D01*
X140299494Y-76216463D01*
X140189180Y-76157498D01*
X140069482Y-76121188D01*
X139945000Y-76108928D01*
X139780750Y-76112000D01*
X139622000Y-76270750D01*
X139368000Y-76270750D01*
X139209250Y-76112000D01*
X139045000Y-76108928D01*
X138920518Y-76121188D01*
X138800820Y-76157498D01*
X138690506Y-76216463D01*
X138593815Y-76295815D01*
X138514463Y-76392506D01*
X138455498Y-76502820D01*
X138419188Y-76622518D01*
X138406928Y-76747000D01*
X137183072Y-76747000D01*
X137170812Y-76622518D01*
X137134502Y-76502820D01*
X137075537Y-76392506D01*
X136996185Y-76295815D01*
X136899494Y-76216463D01*
X136789180Y-76157498D01*
X136669482Y-76121188D01*
X136545000Y-76108928D01*
X135645000Y-76108928D01*
X135520518Y-76121188D01*
X135400820Y-76157498D01*
X135290506Y-76216463D01*
X135193815Y-76295815D01*
X135114463Y-76392506D01*
X135055498Y-76502820D01*
X135019188Y-76622518D01*
X135006928Y-76747000D01*
X127757072Y-76747000D01*
X127757072Y-75835000D01*
X127744812Y-75710518D01*
X127708502Y-75590820D01*
X127649537Y-75480506D01*
X127570185Y-75383815D01*
X127473494Y-75304463D01*
X127363180Y-75245498D01*
X127243482Y-75209188D01*
X127119000Y-75196928D01*
X126119000Y-75196928D01*
X125994518Y-75209188D01*
X125874820Y-75245498D01*
X125764506Y-75304463D01*
X125667815Y-75383815D01*
X125588463Y-75480506D01*
X125529498Y-75590820D01*
X125493188Y-75710518D01*
X125480928Y-75835000D01*
X125480928Y-78345000D01*
X125493188Y-78469482D01*
X125512728Y-78533896D01*
X125347485Y-78368653D01*
X125323623Y-78339577D01*
X125207593Y-78244354D01*
X125075216Y-78173597D01*
X124931579Y-78130025D01*
X124819627Y-78118999D01*
X124819624Y-78118999D01*
X124782201Y-78115313D01*
X124744778Y-78118999D01*
X122677072Y-78118999D01*
X122677072Y-75835000D01*
X122664812Y-75710518D01*
X122628502Y-75590820D01*
X122569537Y-75480506D01*
X122490185Y-75383815D01*
X122393494Y-75304463D01*
X122283180Y-75245498D01*
X122212180Y-75223960D01*
X122175645Y-75155608D01*
X122080422Y-75039578D01*
X122051347Y-75015717D01*
X121707284Y-74671654D01*
X121683422Y-74642578D01*
X121599859Y-74574000D01*
X168021000Y-74574000D01*
X168021000Y-88773000D01*
G36*
X106202489Y-83562406D02*
G01*
X106211544Y-83615000D01*
X106107110Y-83615000D01*
X105986253Y-83494143D01*
X106000395Y-83480000D01*
X105986253Y-83465858D01*
X106107110Y-83345000D01*
X106208111Y-83345000D01*
X106202489Y-83562406D01*
G37*
X106202489Y-83562406D02*
X106211544Y-83615000D01*
X106107110Y-83615000D01*
X105986253Y-83494143D01*
X106000395Y-83480000D01*
X105986253Y-83465858D01*
X106107110Y-83345000D01*
X106208111Y-83345000D01*
X106202489Y-83562406D01*
G36*
X107533748Y-83465858D02*
G01*
X107519605Y-83480000D01*
X107533748Y-83494143D01*
X107412890Y-83615000D01*
X107311889Y-83615000D01*
X107317511Y-83397594D01*
X107308456Y-83345000D01*
X107412890Y-83345000D01*
X107533748Y-83465858D01*
G37*
X107533748Y-83465858D02*
X107519605Y-83480000D01*
X107533748Y-83494143D01*
X107412890Y-83615000D01*
X107311889Y-83615000D01*
X107317511Y-83397594D01*
X107308456Y-83345000D01*
X107412890Y-83345000D01*
X107533748Y-83465858D01*
G36*
X110240928Y-78345000D02*
G01*
X110253188Y-78469482D01*
X110289498Y-78589180D01*
X110348463Y-78699494D01*
X110427815Y-78796185D01*
X110524506Y-78875537D01*
X110634820Y-78934502D01*
X110754518Y-78970812D01*
X110879000Y-78983072D01*
X111879000Y-78983072D01*
X112003482Y-78970812D01*
X112123180Y-78934502D01*
X112233494Y-78875537D01*
X112330185Y-78796185D01*
X112409537Y-78699494D01*
X112468502Y-78589180D01*
X112504812Y-78469482D01*
X112517072Y-78345000D01*
X112517072Y-77852000D01*
X113350370Y-77852000D01*
X113995298Y-78496928D01*
X113419000Y-78496928D01*
X113294518Y-78509188D01*
X113174820Y-78545498D01*
X113064506Y-78604463D01*
X112967815Y-78683815D01*
X112888463Y-78780506D01*
X112829498Y-78890820D01*
X112793188Y-79010518D01*
X112780928Y-79135000D01*
X112780928Y-81645000D01*
X112793188Y-81769482D01*
X112829498Y-81889180D01*
X112888463Y-81999494D01*
X112967815Y-82096185D01*
X113064506Y-82175537D01*
X113174820Y-82234502D01*
X113294518Y-82270812D01*
X113419000Y-82283072D01*
X114419000Y-82283072D01*
X114543482Y-82270812D01*
X114663180Y-82234502D01*
X114773494Y-82175537D01*
X114870185Y-82096185D01*
X114914653Y-82042000D01*
X115376289Y-82042000D01*
X115418226Y-82083937D01*
X115587744Y-82197205D01*
X115776102Y-82275226D01*
X115976061Y-82315000D01*
X116179939Y-82315000D01*
X116379898Y-82275226D01*
X116568256Y-82197205D01*
X116737774Y-82083937D01*
X116881937Y-81939774D01*
X116995205Y-81770256D01*
X117073226Y-81581898D01*
X117113000Y-81381939D01*
X117113000Y-81178061D01*
X117073226Y-80978102D01*
X116995205Y-80789744D01*
X116887989Y-80629284D01*
X116991774Y-80559937D01*
X117135937Y-80415774D01*
X117249205Y-80246256D01*
X117327226Y-80057898D01*
X117367000Y-79857939D01*
X117367000Y-79654061D01*
X117364800Y-79642999D01*
X117860928Y-79642999D01*
X117860928Y-81645000D01*
X117873188Y-81769482D01*
X117909498Y-81889180D01*
X117968463Y-81999494D01*
X118047815Y-82096185D01*
X118144506Y-82175537D01*
X118254820Y-82234502D01*
X118374518Y-82270812D01*
X118499000Y-82283072D01*
X119107000Y-82283072D01*
X119107000Y-82397939D01*
X119146774Y-82597898D01*
X119224795Y-82786256D01*
X119321510Y-82931000D01*
X111702631Y-82931000D01*
X109977072Y-81205442D01*
X109977072Y-79135000D01*
X109964812Y-79010518D01*
X109928502Y-78890820D01*
X109869537Y-78780506D01*
X109790185Y-78683815D01*
X109693494Y-78604463D01*
X109583180Y-78545498D01*
X109463482Y-78509188D01*
X109339000Y-78496928D01*
X108339000Y-78496928D01*
X108214518Y-78509188D01*
X108094820Y-78545498D01*
X107984506Y-78604463D01*
X107887815Y-78683815D01*
X107808463Y-78780506D01*
X107749498Y-78890820D01*
X107713188Y-79010518D01*
X107700928Y-79135000D01*
X107700928Y-81130986D01*
X107671067Y-81118617D01*
X107451788Y-81075000D01*
X107228212Y-81075000D01*
X107008933Y-81118617D01*
X106802376Y-81204176D01*
X106760000Y-81232491D01*
X106717624Y-81204176D01*
X106511067Y-81118617D01*
X106317143Y-81080043D01*
X106318000Y-81075737D01*
X106318000Y-81016428D01*
X107319353Y-80015076D01*
X107348422Y-79991220D01*
X107443645Y-79875190D01*
X107514402Y-79742813D01*
X107557974Y-79599176D01*
X107569000Y-79487224D01*
X107569000Y-79487222D01*
X107572686Y-79449799D01*
X107569000Y-79412376D01*
X107569000Y-78039630D01*
X109662631Y-75946000D01*
X110240928Y-75946000D01*
X110240928Y-78345000D01*
G37*
X110240928Y-78345000D02*
X110253188Y-78469482D01*
X110289498Y-78589180D01*
X110348463Y-78699494D01*
X110427815Y-78796185D01*
X110524506Y-78875537D01*
X110634820Y-78934502D01*
X110754518Y-78970812D01*
X110879000Y-78983072D01*
X111879000Y-78983072D01*
X112003482Y-78970812D01*
X112123180Y-78934502D01*
X112233494Y-78875537D01*
X112330185Y-78796185D01*
X112409537Y-78699494D01*
X112468502Y-78589180D01*
X112504812Y-78469482D01*
X112517072Y-78345000D01*
X112517072Y-77852000D01*
X113350370Y-77852000D01*
X113995298Y-78496928D01*
X113419000Y-78496928D01*
X113294518Y-78509188D01*
X113174820Y-78545498D01*
X113064506Y-78604463D01*
X112967815Y-78683815D01*
X112888463Y-78780506D01*
X112829498Y-78890820D01*
X112793188Y-79010518D01*
X112780928Y-79135000D01*
X112780928Y-81645000D01*
X112793188Y-81769482D01*
X112829498Y-81889180D01*
X112888463Y-81999494D01*
X112967815Y-82096185D01*
X113064506Y-82175537D01*
X113174820Y-82234502D01*
X113294518Y-82270812D01*
X113419000Y-82283072D01*
X114419000Y-82283072D01*
X114543482Y-82270812D01*
X114663180Y-82234502D01*
X114773494Y-82175537D01*
X114870185Y-82096185D01*
X114914653Y-82042000D01*
X115376289Y-82042000D01*
X115418226Y-82083937D01*
X115587744Y-82197205D01*
X115776102Y-82275226D01*
X115976061Y-82315000D01*
X116179939Y-82315000D01*
X116379898Y-82275226D01*
X116568256Y-82197205D01*
X116737774Y-82083937D01*
X116881937Y-81939774D01*
X116995205Y-81770256D01*
X117073226Y-81581898D01*
X117113000Y-81381939D01*
X117113000Y-81178061D01*
X117073226Y-80978102D01*
X116995205Y-80789744D01*
X116887989Y-80629284D01*
X116991774Y-80559937D01*
X117135937Y-80415774D01*
X117249205Y-80246256D01*
X117327226Y-80057898D01*
X117367000Y-79857939D01*
X117367000Y-79654061D01*
X117364800Y-79642999D01*
X117860928Y-79642999D01*
X117860928Y-81645000D01*
X117873188Y-81769482D01*
X117909498Y-81889180D01*
X117968463Y-81999494D01*
X118047815Y-82096185D01*
X118144506Y-82175537D01*
X118254820Y-82234502D01*
X118374518Y-82270812D01*
X118499000Y-82283072D01*
X119107000Y-82283072D01*
X119107000Y-82397939D01*
X119146774Y-82597898D01*
X119224795Y-82786256D01*
X119321510Y-82931000D01*
X111702631Y-82931000D01*
X109977072Y-81205442D01*
X109977072Y-79135000D01*
X109964812Y-79010518D01*
X109928502Y-78890820D01*
X109869537Y-78780506D01*
X109790185Y-78683815D01*
X109693494Y-78604463D01*
X109583180Y-78545498D01*
X109463482Y-78509188D01*
X109339000Y-78496928D01*
X108339000Y-78496928D01*
X108214518Y-78509188D01*
X108094820Y-78545498D01*
X107984506Y-78604463D01*
X107887815Y-78683815D01*
X107808463Y-78780506D01*
X107749498Y-78890820D01*
X107713188Y-79010518D01*
X107700928Y-79135000D01*
X107700928Y-81130986D01*
X107671067Y-81118617D01*
X107451788Y-81075000D01*
X107228212Y-81075000D01*
X107008933Y-81118617D01*
X106802376Y-81204176D01*
X106760000Y-81232491D01*
X106717624Y-81204176D01*
X106511067Y-81118617D01*
X106317143Y-81080043D01*
X106318000Y-81075737D01*
X106318000Y-81016428D01*
X107319353Y-80015076D01*
X107348422Y-79991220D01*
X107443645Y-79875190D01*
X107514402Y-79742813D01*
X107557974Y-79599176D01*
X107569000Y-79487224D01*
X107569000Y-79487222D01*
X107572686Y-79449799D01*
X107569000Y-79412376D01*
X107569000Y-78039630D01*
X109662631Y-75946000D01*
X110240928Y-75946000D01*
X110240928Y-78345000D01*
G36*
X126860224Y-82036653D02*
G01*
X126844795Y-82059744D01*
X126766774Y-82248102D01*
X126727000Y-82448061D01*
X126727000Y-82651939D01*
X126766774Y-82851898D01*
X126799539Y-82931000D01*
X125109015Y-82931000D01*
X125114000Y-82905939D01*
X125114000Y-82702061D01*
X125074226Y-82502102D01*
X124996205Y-82313744D01*
X124911657Y-82187209D01*
X124933494Y-82175537D01*
X125030185Y-82096185D01*
X125109537Y-81999494D01*
X125168502Y-81889180D01*
X125204812Y-81769482D01*
X125217072Y-81645000D01*
X125217072Y-80393500D01*
X126860224Y-82036653D01*
G37*
X126860224Y-82036653D02*
X126844795Y-82059744D01*
X126766774Y-82248102D01*
X126727000Y-82448061D01*
X126727000Y-82651939D01*
X126766774Y-82851898D01*
X126799539Y-82931000D01*
X125109015Y-82931000D01*
X125114000Y-82905939D01*
X125114000Y-82702061D01*
X125074226Y-82502102D01*
X124996205Y-82313744D01*
X124911657Y-82187209D01*
X124933494Y-82175537D01*
X125030185Y-82096185D01*
X125109537Y-81999494D01*
X125168502Y-81889180D01*
X125204812Y-81769482D01*
X125217072Y-81645000D01*
X125217072Y-80393500D01*
X126860224Y-82036653D01*
G36*
X122940928Y-81645000D02*
G01*
X122953188Y-81769482D01*
X122989498Y-81889180D01*
X123048463Y-81999494D01*
X123127815Y-82096185D01*
X123224506Y-82175537D01*
X123246343Y-82187209D01*
X123161795Y-82313744D01*
X123083774Y-82502102D01*
X123044000Y-82702061D01*
X123044000Y-82905939D01*
X123048985Y-82931000D01*
X120962490Y-82931000D01*
X121059205Y-82786256D01*
X121137226Y-82597898D01*
X121177000Y-82397939D01*
X121177000Y-82194061D01*
X121137226Y-81994102D01*
X121059205Y-81805744D01*
X120945937Y-81636226D01*
X120904000Y-81594289D01*
X120904000Y-80816422D01*
X120907686Y-80778999D01*
X120903705Y-80738578D01*
X120892974Y-80629622D01*
X120849402Y-80485985D01*
X120778645Y-80353608D01*
X120683422Y-80237578D01*
X120654346Y-80213716D01*
X120318284Y-79877654D01*
X120294422Y-79848578D01*
X120178392Y-79753355D01*
X120137072Y-79731269D01*
X120137072Y-79642999D01*
X122940928Y-79642999D01*
X122940928Y-81645000D01*
G37*
X122940928Y-81645000D02*
X122953188Y-81769482D01*
X122989498Y-81889180D01*
X123048463Y-81999494D01*
X123127815Y-82096185D01*
X123224506Y-82175537D01*
X123246343Y-82187209D01*
X123161795Y-82313744D01*
X123083774Y-82502102D01*
X123044000Y-82702061D01*
X123044000Y-82905939D01*
X123048985Y-82931000D01*
X120962490Y-82931000D01*
X121059205Y-82786256D01*
X121137226Y-82597898D01*
X121177000Y-82397939D01*
X121177000Y-82194061D01*
X121137226Y-81994102D01*
X121059205Y-81805744D01*
X120945937Y-81636226D01*
X120904000Y-81594289D01*
X120904000Y-80816422D01*
X120907686Y-80778999D01*
X120903705Y-80738578D01*
X120892974Y-80629622D01*
X120849402Y-80485985D01*
X120778645Y-80353608D01*
X120683422Y-80237578D01*
X120654346Y-80213716D01*
X120318284Y-79877654D01*
X120294422Y-79848578D01*
X120178392Y-79753355D01*
X120137072Y-79731269D01*
X120137072Y-79642999D01*
X122940928Y-79642999D01*
X122940928Y-81645000D01*
G36*
X120400928Y-78118999D02*
G01*
X117597072Y-78118999D01*
X117597072Y-77547303D01*
X117604686Y-77469999D01*
X117597072Y-77392696D01*
X117597072Y-75946000D01*
X120400928Y-75946000D01*
X120400928Y-78118999D01*
G37*
X120400928Y-78118999D02*
X117597072Y-78118999D01*
X117597072Y-77547303D01*
X117604686Y-77469999D01*
X117597072Y-77392696D01*
X117597072Y-75946000D01*
X120400928Y-75946000D01*
X120400928Y-78118999D01*
G36*
X115320928Y-77667298D02*
G01*
X114231284Y-76577654D01*
X114207422Y-76548578D01*
X114091392Y-76453355D01*
X113959015Y-76382598D01*
X113815378Y-76339026D01*
X113703426Y-76328000D01*
X113703423Y-76328000D01*
X113666000Y-76324314D01*
X113628577Y-76328000D01*
X112517072Y-76328000D01*
X112517072Y-75946000D01*
X115320928Y-75946000D01*
X115320928Y-77667298D01*
G37*
X115320928Y-77667298D02*
X114231284Y-76577654D01*
X114207422Y-76548578D01*
X114091392Y-76453355D01*
X113959015Y-76382598D01*
X113815378Y-76339026D01*
X113703426Y-76328000D01*
X113703423Y-76328000D01*
X113666000Y-76324314D01*
X113628577Y-76328000D01*
X112517072Y-76328000D01*
X112517072Y-75946000D01*
X115320928Y-75946000D01*
X115320928Y-77667298D01*
M02*
