%TF.GenerationSoftware,KiCad,Pcbnew,(5.1.5)-3*%
%TF.CreationDate,2020-03-09T23:17:30+02:00*%
%TF.ProjectId,iaq_device,6961715f-6465-4766-9963-652e6b696361,rev?*%
%TF.SameCoordinates,Original*%
%TF.FileFunction,Legend,Top*%
%TF.FilePolarity,Positive*%
%FSLAX46Y46*%
G04 Gerber Fmt 4.6, Leading zero omitted, Abs format (unit mm)*
G04 Created by KiCad (PCBNEW (5.1.5)-3) date 2020-03-09 23:17:30*
%MOMM*%
%LPD*%
G04 APERTURE LIST*
%ADD10C,0.150000*%
%ADD11C,0.120000*%
%ADD12C,0.200000*%
G04 APERTURE END LIST*
D10*
X105251214Y-82621380D02*
X104679785Y-82621380D01*
X104965500Y-82621380D02*
X104965500Y-81621380D01*
X104870261Y-81764238D01*
X104775023Y-81859476D01*
X104679785Y-81907095D01*
X136405880Y-102147595D02*
X135405880Y-102147595D01*
X135405880Y-101909500D01*
X135453500Y-101766642D01*
X135548738Y-101671404D01*
X135643976Y-101623785D01*
X135834452Y-101576166D01*
X135977309Y-101576166D01*
X136167785Y-101623785D01*
X136263023Y-101671404D01*
X136358261Y-101766642D01*
X136405880Y-101909500D01*
X136405880Y-102147595D01*
X135834452Y-101004738D02*
X135786833Y-101099976D01*
X135739214Y-101147595D01*
X135643976Y-101195214D01*
X135596357Y-101195214D01*
X135501119Y-101147595D01*
X135453500Y-101099976D01*
X135405880Y-101004738D01*
X135405880Y-100814261D01*
X135453500Y-100719023D01*
X135501119Y-100671404D01*
X135596357Y-100623785D01*
X135643976Y-100623785D01*
X135739214Y-100671404D01*
X135786833Y-100719023D01*
X135834452Y-100814261D01*
X135834452Y-101004738D01*
X135882071Y-101099976D01*
X135929690Y-101147595D01*
X136024928Y-101195214D01*
X136215404Y-101195214D01*
X136310642Y-101147595D01*
X136358261Y-101099976D01*
X136405880Y-101004738D01*
X136405880Y-100814261D01*
X136358261Y-100719023D01*
X136310642Y-100671404D01*
X136215404Y-100623785D01*
X136024928Y-100623785D01*
X135929690Y-100671404D01*
X135882071Y-100719023D01*
X135834452Y-100814261D01*
X140850880Y-99544095D02*
X139850880Y-99544095D01*
X139850880Y-99306000D01*
X139898500Y-99163142D01*
X139993738Y-99067904D01*
X140088976Y-99020285D01*
X140279452Y-98972666D01*
X140422309Y-98972666D01*
X140612785Y-99020285D01*
X140708023Y-99067904D01*
X140803261Y-99163142D01*
X140850880Y-99306000D01*
X140850880Y-99544095D01*
X139850880Y-98639333D02*
X139850880Y-98020285D01*
X140231833Y-98353619D01*
X140231833Y-98210761D01*
X140279452Y-98115523D01*
X140327071Y-98067904D01*
X140422309Y-98020285D01*
X140660404Y-98020285D01*
X140755642Y-98067904D01*
X140803261Y-98115523D01*
X140850880Y-98210761D01*
X140850880Y-98496476D01*
X140803261Y-98591714D01*
X140755642Y-98639333D01*
X135993166Y-96853285D02*
X135993166Y-96377095D01*
X136278880Y-96948523D02*
X135278880Y-96615190D01*
X136278880Y-96281857D01*
X135278880Y-95758047D02*
X135278880Y-95662809D01*
X135326500Y-95567571D01*
X135374119Y-95519952D01*
X135469357Y-95472333D01*
X135659833Y-95424714D01*
X135897928Y-95424714D01*
X136088404Y-95472333D01*
X136183642Y-95519952D01*
X136231261Y-95567571D01*
X136278880Y-95662809D01*
X136278880Y-95758047D01*
X136231261Y-95853285D01*
X136183642Y-95900904D01*
X136088404Y-95948523D01*
X135897928Y-95996142D01*
X135659833Y-95996142D01*
X135469357Y-95948523D01*
X135374119Y-95900904D01*
X135326500Y-95853285D01*
X135278880Y-95758047D01*
X140803261Y-94813285D02*
X140850880Y-94670428D01*
X140850880Y-94432333D01*
X140803261Y-94337095D01*
X140755642Y-94289476D01*
X140660404Y-94241857D01*
X140565166Y-94241857D01*
X140469928Y-94289476D01*
X140422309Y-94337095D01*
X140374690Y-94432333D01*
X140327071Y-94622809D01*
X140279452Y-94718047D01*
X140231833Y-94765666D01*
X140136595Y-94813285D01*
X140041357Y-94813285D01*
X139946119Y-94765666D01*
X139898500Y-94718047D01*
X139850880Y-94622809D01*
X139850880Y-94384714D01*
X139898500Y-94241857D01*
X140850880Y-93813285D02*
X139850880Y-93813285D01*
X139850880Y-93575190D01*
X139898500Y-93432333D01*
X139993738Y-93337095D01*
X140088976Y-93289476D01*
X140279452Y-93241857D01*
X140422309Y-93241857D01*
X140612785Y-93289476D01*
X140708023Y-93337095D01*
X140803261Y-93432333D01*
X140850880Y-93575190D01*
X140850880Y-93813285D01*
X140565166Y-92860904D02*
X140565166Y-92384714D01*
X140850880Y-92956142D02*
X139850880Y-92622809D01*
X140850880Y-92289476D01*
X136231261Y-92122476D02*
X136278880Y-91979619D01*
X136278880Y-91741523D01*
X136231261Y-91646285D01*
X136183642Y-91598666D01*
X136088404Y-91551047D01*
X135993166Y-91551047D01*
X135897928Y-91598666D01*
X135850309Y-91646285D01*
X135802690Y-91741523D01*
X135755071Y-91932000D01*
X135707452Y-92027238D01*
X135659833Y-92074857D01*
X135564595Y-92122476D01*
X135469357Y-92122476D01*
X135374119Y-92074857D01*
X135326500Y-92027238D01*
X135278880Y-91932000D01*
X135278880Y-91693904D01*
X135326500Y-91551047D01*
X136183642Y-90551047D02*
X136231261Y-90598666D01*
X136278880Y-90741523D01*
X136278880Y-90836761D01*
X136231261Y-90979619D01*
X136136023Y-91074857D01*
X136040785Y-91122476D01*
X135850309Y-91170095D01*
X135707452Y-91170095D01*
X135516976Y-91122476D01*
X135421738Y-91074857D01*
X135326500Y-90979619D01*
X135278880Y-90836761D01*
X135278880Y-90741523D01*
X135326500Y-90598666D01*
X135374119Y-90551047D01*
X136278880Y-89646285D02*
X136278880Y-90122476D01*
X135278880Y-90122476D01*
X139898500Y-89280904D02*
X139850880Y-89376142D01*
X139850880Y-89519000D01*
X139898500Y-89661857D01*
X139993738Y-89757095D01*
X140088976Y-89804714D01*
X140279452Y-89852333D01*
X140422309Y-89852333D01*
X140612785Y-89804714D01*
X140708023Y-89757095D01*
X140803261Y-89661857D01*
X140850880Y-89519000D01*
X140850880Y-89423761D01*
X140803261Y-89280904D01*
X140755642Y-89233285D01*
X140422309Y-89233285D01*
X140422309Y-89423761D01*
X140850880Y-88804714D02*
X139850880Y-88804714D01*
X140850880Y-88233285D01*
X139850880Y-88233285D01*
X140850880Y-87757095D02*
X139850880Y-87757095D01*
X139850880Y-87519000D01*
X139898500Y-87376142D01*
X139993738Y-87280904D01*
X140088976Y-87233285D01*
X140279452Y-87185666D01*
X140422309Y-87185666D01*
X140612785Y-87233285D01*
X140708023Y-87280904D01*
X140803261Y-87376142D01*
X140850880Y-87519000D01*
X140850880Y-87757095D01*
X135405880Y-86042476D02*
X135405880Y-86518666D01*
X135882071Y-86566285D01*
X135834452Y-86518666D01*
X135786833Y-86423428D01*
X135786833Y-86185333D01*
X135834452Y-86090095D01*
X135882071Y-86042476D01*
X135977309Y-85994857D01*
X136215404Y-85994857D01*
X136310642Y-86042476D01*
X136358261Y-86090095D01*
X136405880Y-86185333D01*
X136405880Y-86423428D01*
X136358261Y-86518666D01*
X136310642Y-86566285D01*
X135405880Y-85709142D02*
X136405880Y-85375809D01*
X135405880Y-85042476D01*
X139850880Y-84915190D02*
X139850880Y-84296142D01*
X140231833Y-84629476D01*
X140231833Y-84486619D01*
X140279452Y-84391380D01*
X140327071Y-84343761D01*
X140422309Y-84296142D01*
X140660404Y-84296142D01*
X140755642Y-84343761D01*
X140803261Y-84391380D01*
X140850880Y-84486619D01*
X140850880Y-84772333D01*
X140803261Y-84867571D01*
X140755642Y-84915190D01*
X140755642Y-83867571D02*
X140803261Y-83819952D01*
X140850880Y-83867571D01*
X140803261Y-83915190D01*
X140755642Y-83867571D01*
X140850880Y-83867571D01*
X139850880Y-83486619D02*
X139850880Y-82867571D01*
X140231833Y-83200904D01*
X140231833Y-83058047D01*
X140279452Y-82962809D01*
X140327071Y-82915190D01*
X140422309Y-82867571D01*
X140660404Y-82867571D01*
X140755642Y-82915190D01*
X140803261Y-82962809D01*
X140850880Y-83058047D01*
X140850880Y-83343761D01*
X140803261Y-83439000D01*
X140755642Y-83486619D01*
X139850880Y-82581857D02*
X140850880Y-82248523D01*
X139850880Y-81915190D01*
X135884714Y-80331428D02*
X135841857Y-80374285D01*
X135713285Y-80417142D01*
X135627571Y-80417142D01*
X135499000Y-80374285D01*
X135413285Y-80288571D01*
X135370428Y-80202857D01*
X135327571Y-80031428D01*
X135327571Y-79902857D01*
X135370428Y-79731428D01*
X135413285Y-79645714D01*
X135499000Y-79560000D01*
X135627571Y-79517142D01*
X135713285Y-79517142D01*
X135841857Y-79560000D01*
X135884714Y-79602857D01*
X136441857Y-79517142D02*
X136613285Y-79517142D01*
X136699000Y-79560000D01*
X136784714Y-79645714D01*
X136827571Y-79817142D01*
X136827571Y-80117142D01*
X136784714Y-80288571D01*
X136699000Y-80374285D01*
X136613285Y-80417142D01*
X136441857Y-80417142D01*
X136356142Y-80374285D01*
X136270428Y-80288571D01*
X136227571Y-80117142D01*
X136227571Y-79817142D01*
X136270428Y-79645714D01*
X136356142Y-79560000D01*
X136441857Y-79517142D01*
X137170428Y-79602857D02*
X137213285Y-79560000D01*
X137299000Y-79517142D01*
X137513285Y-79517142D01*
X137599000Y-79560000D01*
X137641857Y-79602857D01*
X137684714Y-79688571D01*
X137684714Y-79774285D01*
X137641857Y-79902857D01*
X137127571Y-80417142D01*
X137684714Y-80417142D01*
X139270428Y-80331428D02*
X139227571Y-80374285D01*
X139099000Y-80417142D01*
X139013285Y-80417142D01*
X138884714Y-80374285D01*
X138799000Y-80288571D01*
X138756142Y-80202857D01*
X138713285Y-80031428D01*
X138713285Y-79902857D01*
X138756142Y-79731428D01*
X138799000Y-79645714D01*
X138884714Y-79560000D01*
X139013285Y-79517142D01*
X139099000Y-79517142D01*
X139227571Y-79560000D01*
X139270428Y-79602857D01*
X139613285Y-80160000D02*
X140041857Y-80160000D01*
X139527571Y-80417142D02*
X139827571Y-79517142D01*
X140127571Y-80417142D01*
X140856142Y-80417142D02*
X140427571Y-80417142D01*
X140427571Y-79517142D01*
X133700000Y-114244380D02*
X133223809Y-114244380D01*
X133223809Y-113244380D01*
X134033333Y-113720571D02*
X134366666Y-113720571D01*
X134509523Y-114244380D02*
X134033333Y-114244380D01*
X134033333Y-113244380D01*
X134509523Y-113244380D01*
X134938095Y-114244380D02*
X134938095Y-113244380D01*
X135176190Y-113244380D01*
X135319047Y-113292000D01*
X135414285Y-113387238D01*
X135461904Y-113482476D01*
X135509523Y-113672952D01*
X135509523Y-113815809D01*
X135461904Y-114006285D01*
X135414285Y-114101523D01*
X135319047Y-114196761D01*
X135176190Y-114244380D01*
X134938095Y-114244380D01*
X136604761Y-113244380D02*
X137223809Y-113244380D01*
X136890476Y-113625333D01*
X137033333Y-113625333D01*
X137128571Y-113672952D01*
X137176190Y-113720571D01*
X137223809Y-113815809D01*
X137223809Y-114053904D01*
X137176190Y-114149142D01*
X137128571Y-114196761D01*
X137033333Y-114244380D01*
X136747619Y-114244380D01*
X136652380Y-114196761D01*
X136604761Y-114149142D01*
X124300000Y-114244380D02*
X123823809Y-114244380D01*
X123823809Y-113244380D01*
X124633333Y-113720571D02*
X124966666Y-113720571D01*
X125109523Y-114244380D02*
X124633333Y-114244380D01*
X124633333Y-113244380D01*
X125109523Y-113244380D01*
X125538095Y-114244380D02*
X125538095Y-113244380D01*
X125776190Y-113244380D01*
X125919047Y-113292000D01*
X126014285Y-113387238D01*
X126061904Y-113482476D01*
X126109523Y-113672952D01*
X126109523Y-113815809D01*
X126061904Y-114006285D01*
X126014285Y-114101523D01*
X125919047Y-114196761D01*
X125776190Y-114244380D01*
X125538095Y-114244380D01*
X127252380Y-113339619D02*
X127300000Y-113292000D01*
X127395238Y-113244380D01*
X127633333Y-113244380D01*
X127728571Y-113292000D01*
X127776190Y-113339619D01*
X127823809Y-113434857D01*
X127823809Y-113530095D01*
X127776190Y-113672952D01*
X127204761Y-114244380D01*
X127823809Y-114244380D01*
X115000000Y-114244380D02*
X114523809Y-114244380D01*
X114523809Y-113244380D01*
X115333333Y-113720571D02*
X115666666Y-113720571D01*
X115809523Y-114244380D02*
X115333333Y-114244380D01*
X115333333Y-113244380D01*
X115809523Y-113244380D01*
X116238095Y-114244380D02*
X116238095Y-113244380D01*
X116476190Y-113244380D01*
X116619047Y-113292000D01*
X116714285Y-113387238D01*
X116761904Y-113482476D01*
X116809523Y-113672952D01*
X116809523Y-113815809D01*
X116761904Y-114006285D01*
X116714285Y-114101523D01*
X116619047Y-114196761D01*
X116476190Y-114244380D01*
X116238095Y-114244380D01*
X118523809Y-114244380D02*
X117952380Y-114244380D01*
X118238095Y-114244380D02*
X118238095Y-113244380D01*
X118142857Y-113387238D01*
X118047619Y-113482476D01*
X117952380Y-113530095D01*
D11*
X168402000Y-104902000D02*
X168402000Y-116586000D01*
X152654000Y-104902000D02*
X168402000Y-104902000D01*
X152654000Y-116586000D02*
X152654000Y-104902000D01*
X168402000Y-116586000D02*
X152654000Y-116586000D01*
X168021000Y-75565000D02*
X141605000Y-75565000D01*
X168021000Y-103505000D02*
X168021000Y-75565000D01*
X167315000Y-77485000D02*
G75*
G03X167315000Y-77485000I-1000000J0D01*
G01*
X167315000Y-101485000D02*
G75*
G03X167315000Y-101485000I-1000000J0D01*
G01*
X141605000Y-103505000D02*
X141605000Y-75565000D01*
X154305000Y-103505000D02*
X141605000Y-103505000D01*
X154305000Y-103505000D02*
X168021000Y-103505000D01*
X142215000Y-113132000D02*
X141965000Y-113132000D01*
X141965000Y-113132000D02*
X141965000Y-106832000D01*
X141965000Y-106832000D02*
X142215000Y-106832000D01*
X146715000Y-113132000D02*
X144115000Y-113132000D01*
X148615000Y-106832000D02*
X148865000Y-106832000D01*
X148865000Y-106832000D02*
X148865000Y-113132000D01*
X148865000Y-113132000D02*
X148615000Y-113132000D01*
X144115000Y-106832000D02*
X146715000Y-106832000D01*
X103713000Y-99429000D02*
G75*
G02X103013000Y-98729000I0J700000D01*
G01*
X105013000Y-98729000D02*
G75*
G02X104313000Y-99429000I-700000J0D01*
G01*
X104313000Y-95329000D02*
G75*
G02X105013000Y-96029000I0J-700000D01*
G01*
X103013000Y-96029000D02*
G75*
G02X103713000Y-95329000I700000J0D01*
G01*
X103013000Y-98779000D02*
X103013000Y-95979000D01*
X103713000Y-95329000D02*
X104313000Y-95329000D01*
X105013000Y-95979000D02*
X105013000Y-98779000D01*
X104313000Y-99429000D02*
X103713000Y-99429000D01*
X135572500Y-82933000D02*
X136782500Y-82933000D01*
X136782500Y-99693000D02*
X136782500Y-102903000D01*
X136782500Y-94613000D02*
X136782500Y-98173000D01*
X136782500Y-89533000D02*
X136782500Y-93093000D01*
X136782500Y-84453000D02*
X136782500Y-88013000D01*
X136782500Y-82263000D02*
X136782500Y-82933000D01*
X136782500Y-102903000D02*
X139442500Y-102903000D01*
X139442500Y-102233000D02*
X139442500Y-102903000D01*
X139442500Y-97153000D02*
X139442500Y-100713000D01*
X139442500Y-92073000D02*
X139442500Y-95633000D01*
X139442500Y-86993000D02*
X139442500Y-90553000D01*
X139442500Y-82263000D02*
X139442500Y-85473000D01*
X136782500Y-82263000D02*
X139442500Y-82263000D01*
X109450000Y-111700000D02*
X105650000Y-111700000D01*
X105650000Y-110750000D02*
X105650000Y-110900000D01*
X105650000Y-109925000D02*
X105650000Y-109950000D01*
X105650000Y-109800000D02*
X105650000Y-109925000D01*
X109450000Y-110750000D02*
X109450000Y-110900000D01*
X109450000Y-109800000D02*
X109450000Y-109950000D01*
X105650000Y-109000000D02*
X109450000Y-109000000D01*
X125044200Y-103124000D02*
X132816600Y-103124000D01*
X100499000Y-79780000D02*
X100499000Y-103100000D01*
X134959000Y-100980000D02*
X134959000Y-79370000D01*
X107399000Y-77240000D02*
X107399000Y-79780000D01*
X107399000Y-79780000D02*
X100499000Y-79780000D01*
X132829000Y-77240000D02*
G75*
G02X134959000Y-79370000I0J-2130000D01*
G01*
X134959000Y-100970000D02*
G75*
G02X132829000Y-103100000I-2130000J0D01*
G01*
X107406440Y-77243940D02*
X110332520Y-77243940D01*
X112334040Y-77238860D02*
X115478560Y-77238860D01*
X117411500Y-77216000D02*
X120523000Y-77216000D01*
X122491500Y-77216000D02*
X125666500Y-77216000D01*
X127571500Y-77216000D02*
X133096000Y-77216000D01*
X107823000Y-103124000D02*
X100507800Y-103124000D01*
X109804200Y-103124000D02*
X112953800Y-103124000D01*
X114884200Y-103124000D02*
X118033800Y-103124000D01*
X119964200Y-103124000D02*
X123113800Y-103124000D01*
X139445000Y-76197000D02*
X139445000Y-76497000D01*
X136145000Y-76197000D02*
X139445000Y-76197000D01*
X136145000Y-76497000D02*
X136145000Y-76197000D01*
X139445000Y-78997000D02*
X139445000Y-78697000D01*
X136145000Y-78997000D02*
X139445000Y-78997000D01*
X136145000Y-78697000D02*
X136145000Y-78997000D01*
X135047922Y-106882000D02*
X135565078Y-106882000D01*
X135047922Y-105462000D02*
X135565078Y-105462000D01*
X125295922Y-106882000D02*
X125813078Y-106882000D01*
X125295922Y-105462000D02*
X125813078Y-105462000D01*
X116002922Y-106882000D02*
X116520078Y-106882000D01*
X116002922Y-105462000D02*
X116520078Y-105462000D01*
X107310422Y-106882000D02*
X107827578Y-106882000D01*
X107310422Y-105462000D02*
X107827578Y-105462000D01*
X132608000Y-107936000D02*
X132608000Y-107616000D01*
X132728000Y-112856000D02*
X137728000Y-112856000D01*
X132608000Y-107616000D02*
X137728000Y-107616000D01*
X123110000Y-107936000D02*
X123110000Y-107616000D01*
X123230000Y-112856000D02*
X128230000Y-112856000D01*
X123110000Y-107616000D02*
X128230000Y-107616000D01*
X113720000Y-107936000D02*
X113720000Y-107616000D01*
X113840000Y-112856000D02*
X118840000Y-112856000D01*
X113720000Y-107616000D02*
X118840000Y-107616000D01*
D10*
X166370095Y-115022380D02*
X166370095Y-115831904D01*
X166417714Y-115927142D01*
X166465333Y-115974761D01*
X166560571Y-116022380D01*
X166751047Y-116022380D01*
X166846285Y-115974761D01*
X166893904Y-115927142D01*
X166941523Y-115831904D01*
X166941523Y-115022380D01*
X167846285Y-115355714D02*
X167846285Y-116022380D01*
X167608190Y-114974761D02*
X167370095Y-115689047D01*
X167989142Y-115689047D01*
X153471571Y-110586833D02*
X153519190Y-110443976D01*
X153566809Y-110396357D01*
X153662047Y-110348738D01*
X153804904Y-110348738D01*
X153900142Y-110396357D01*
X153947761Y-110443976D01*
X153995380Y-110539214D01*
X153995380Y-110920166D01*
X152995380Y-110920166D01*
X152995380Y-110586833D01*
X153043000Y-110491595D01*
X153090619Y-110443976D01*
X153185857Y-110396357D01*
X153281095Y-110396357D01*
X153376333Y-110443976D01*
X153423952Y-110491595D01*
X153471571Y-110586833D01*
X153471571Y-110920166D01*
X153995380Y-109920166D02*
X152995380Y-109920166D01*
X153709666Y-109586833D01*
X152995380Y-109253500D01*
X153995380Y-109253500D01*
X153471571Y-108777309D02*
X153471571Y-108443976D01*
X153995380Y-108301119D02*
X153995380Y-108777309D01*
X152995380Y-108777309D01*
X152995380Y-108301119D01*
X153090619Y-107920166D02*
X153043000Y-107872547D01*
X152995380Y-107777309D01*
X152995380Y-107539214D01*
X153043000Y-107443976D01*
X153090619Y-107396357D01*
X153185857Y-107348738D01*
X153281095Y-107348738D01*
X153423952Y-107396357D01*
X153995380Y-107967785D01*
X153995380Y-107348738D01*
X153423952Y-106777309D02*
X153376333Y-106872547D01*
X153328714Y-106920166D01*
X153233476Y-106967785D01*
X153185857Y-106967785D01*
X153090619Y-106920166D01*
X153043000Y-106872547D01*
X152995380Y-106777309D01*
X152995380Y-106586833D01*
X153043000Y-106491595D01*
X153090619Y-106443976D01*
X153185857Y-106396357D01*
X153233476Y-106396357D01*
X153328714Y-106443976D01*
X153376333Y-106491595D01*
X153423952Y-106586833D01*
X153423952Y-106777309D01*
X153471571Y-106872547D01*
X153519190Y-106920166D01*
X153614428Y-106967785D01*
X153804904Y-106967785D01*
X153900142Y-106920166D01*
X153947761Y-106872547D01*
X153995380Y-106777309D01*
X153995380Y-106586833D01*
X153947761Y-106491595D01*
X153900142Y-106443976D01*
X153804904Y-106396357D01*
X153614428Y-106396357D01*
X153519190Y-106443976D01*
X153471571Y-106491595D01*
X153423952Y-106586833D01*
X152995380Y-105777309D02*
X152995380Y-105682071D01*
X153043000Y-105586833D01*
X153090619Y-105539214D01*
X153185857Y-105491595D01*
X153376333Y-105443976D01*
X153614428Y-105443976D01*
X153804904Y-105491595D01*
X153900142Y-105539214D01*
X153947761Y-105586833D01*
X153995380Y-105682071D01*
X153995380Y-105777309D01*
X153947761Y-105872547D01*
X153900142Y-105920166D01*
X153804904Y-105967785D01*
X153614428Y-106015404D01*
X153376333Y-106015404D01*
X153185857Y-105967785D01*
X153090619Y-105920166D01*
X153043000Y-105872547D01*
X152995380Y-105777309D01*
X159662761Y-110688285D02*
X159710380Y-110545428D01*
X159710380Y-110307333D01*
X159662761Y-110212095D01*
X159615142Y-110164476D01*
X159519904Y-110116857D01*
X159424666Y-110116857D01*
X159329428Y-110164476D01*
X159281809Y-110212095D01*
X159234190Y-110307333D01*
X159186571Y-110497809D01*
X159138952Y-110593047D01*
X159091333Y-110640666D01*
X158996095Y-110688285D01*
X158900857Y-110688285D01*
X158805619Y-110640666D01*
X158758000Y-110593047D01*
X158710380Y-110497809D01*
X158710380Y-110259714D01*
X158758000Y-110116857D01*
X159710380Y-109688285D02*
X158710380Y-109688285D01*
X158710380Y-109450190D01*
X158758000Y-109307333D01*
X158853238Y-109212095D01*
X158948476Y-109164476D01*
X159138952Y-109116857D01*
X159281809Y-109116857D01*
X159472285Y-109164476D01*
X159567523Y-109212095D01*
X159662761Y-109307333D01*
X159710380Y-109450190D01*
X159710380Y-109688285D01*
X159424666Y-108735904D02*
X159424666Y-108259714D01*
X159710380Y-108831142D02*
X158710380Y-108497809D01*
X159710380Y-108164476D01*
X162202761Y-110664476D02*
X162250380Y-110521619D01*
X162250380Y-110283523D01*
X162202761Y-110188285D01*
X162155142Y-110140666D01*
X162059904Y-110093047D01*
X161964666Y-110093047D01*
X161869428Y-110140666D01*
X161821809Y-110188285D01*
X161774190Y-110283523D01*
X161726571Y-110474000D01*
X161678952Y-110569238D01*
X161631333Y-110616857D01*
X161536095Y-110664476D01*
X161440857Y-110664476D01*
X161345619Y-110616857D01*
X161298000Y-110569238D01*
X161250380Y-110474000D01*
X161250380Y-110235904D01*
X161298000Y-110093047D01*
X162155142Y-109093047D02*
X162202761Y-109140666D01*
X162250380Y-109283523D01*
X162250380Y-109378761D01*
X162202761Y-109521619D01*
X162107523Y-109616857D01*
X162012285Y-109664476D01*
X161821809Y-109712095D01*
X161678952Y-109712095D01*
X161488476Y-109664476D01*
X161393238Y-109616857D01*
X161298000Y-109521619D01*
X161250380Y-109378761D01*
X161250380Y-109283523D01*
X161298000Y-109140666D01*
X161345619Y-109093047D01*
X162250380Y-108188285D02*
X162250380Y-108664476D01*
X161250380Y-108664476D01*
X163838000Y-110235904D02*
X163790380Y-110331142D01*
X163790380Y-110474000D01*
X163838000Y-110616857D01*
X163933238Y-110712095D01*
X164028476Y-110759714D01*
X164218952Y-110807333D01*
X164361809Y-110807333D01*
X164552285Y-110759714D01*
X164647523Y-110712095D01*
X164742761Y-110616857D01*
X164790380Y-110474000D01*
X164790380Y-110378761D01*
X164742761Y-110235904D01*
X164695142Y-110188285D01*
X164361809Y-110188285D01*
X164361809Y-110378761D01*
X164790380Y-109759714D02*
X163790380Y-109759714D01*
X164790380Y-109188285D01*
X163790380Y-109188285D01*
X164790380Y-108712095D02*
X163790380Y-108712095D01*
X163790380Y-108474000D01*
X163838000Y-108331142D01*
X163933238Y-108235904D01*
X164028476Y-108188285D01*
X164218952Y-108140666D01*
X164361809Y-108140666D01*
X164552285Y-108188285D01*
X164647523Y-108235904D01*
X164742761Y-108331142D01*
X164790380Y-108474000D01*
X164790380Y-108712095D01*
X166330380Y-110664476D02*
X167330380Y-110331142D01*
X166330380Y-109997809D01*
X167282761Y-109235904D02*
X167330380Y-109331142D01*
X167330380Y-109521619D01*
X167282761Y-109616857D01*
X167235142Y-109664476D01*
X167139904Y-109712095D01*
X166854190Y-109712095D01*
X166758952Y-109664476D01*
X166711333Y-109616857D01*
X166663714Y-109521619D01*
X166663714Y-109331142D01*
X166711333Y-109235904D01*
X167282761Y-108378761D02*
X167330380Y-108474000D01*
X167330380Y-108664476D01*
X167282761Y-108759714D01*
X167235142Y-108807333D01*
X167139904Y-108854952D01*
X166854190Y-108854952D01*
X166758952Y-108807333D01*
X166711333Y-108759714D01*
X166663714Y-108664476D01*
X166663714Y-108474000D01*
X166711333Y-108378761D01*
D12*
X142180571Y-102996857D02*
X143394857Y-102996857D01*
X143537714Y-102925428D01*
X143609142Y-102854000D01*
X143680571Y-102711142D01*
X143680571Y-102425428D01*
X143609142Y-102282571D01*
X143537714Y-102211142D01*
X143394857Y-102139714D01*
X142180571Y-102139714D01*
X142180571Y-101568285D02*
X142180571Y-100639714D01*
X142752000Y-101139714D01*
X142752000Y-100925428D01*
X142823428Y-100782571D01*
X142894857Y-100711142D01*
X143037714Y-100639714D01*
X143394857Y-100639714D01*
X143537714Y-100711142D01*
X143609142Y-100782571D01*
X143680571Y-100925428D01*
X143680571Y-101354000D01*
X143609142Y-101496857D01*
X143537714Y-101568285D01*
D10*
X150899761Y-100401285D02*
X150947380Y-100258428D01*
X150947380Y-100020333D01*
X150899761Y-99925095D01*
X150852142Y-99877476D01*
X150756904Y-99829857D01*
X150661666Y-99829857D01*
X150566428Y-99877476D01*
X150518809Y-99925095D01*
X150471190Y-100020333D01*
X150423571Y-100210809D01*
X150375952Y-100306047D01*
X150328333Y-100353666D01*
X150233095Y-100401285D01*
X150137857Y-100401285D01*
X150042619Y-100353666D01*
X149995000Y-100306047D01*
X149947380Y-100210809D01*
X149947380Y-99972714D01*
X149995000Y-99829857D01*
X150947380Y-99401285D02*
X149947380Y-99401285D01*
X149947380Y-99163190D01*
X149995000Y-99020333D01*
X150090238Y-98925095D01*
X150185476Y-98877476D01*
X150375952Y-98829857D01*
X150518809Y-98829857D01*
X150709285Y-98877476D01*
X150804523Y-98925095D01*
X150899761Y-99020333D01*
X150947380Y-99163190D01*
X150947380Y-99401285D01*
X150661666Y-98448904D02*
X150661666Y-97972714D01*
X150947380Y-98544142D02*
X149947380Y-98210809D01*
X150947380Y-97877476D01*
X153439761Y-100377476D02*
X153487380Y-100234619D01*
X153487380Y-99996523D01*
X153439761Y-99901285D01*
X153392142Y-99853666D01*
X153296904Y-99806047D01*
X153201666Y-99806047D01*
X153106428Y-99853666D01*
X153058809Y-99901285D01*
X153011190Y-99996523D01*
X152963571Y-100187000D01*
X152915952Y-100282238D01*
X152868333Y-100329857D01*
X152773095Y-100377476D01*
X152677857Y-100377476D01*
X152582619Y-100329857D01*
X152535000Y-100282238D01*
X152487380Y-100187000D01*
X152487380Y-99948904D01*
X152535000Y-99806047D01*
X153392142Y-98806047D02*
X153439761Y-98853666D01*
X153487380Y-98996523D01*
X153487380Y-99091761D01*
X153439761Y-99234619D01*
X153344523Y-99329857D01*
X153249285Y-99377476D01*
X153058809Y-99425095D01*
X152915952Y-99425095D01*
X152725476Y-99377476D01*
X152630238Y-99329857D01*
X152535000Y-99234619D01*
X152487380Y-99091761D01*
X152487380Y-98996523D01*
X152535000Y-98853666D01*
X152582619Y-98806047D01*
X153487380Y-97901285D02*
X153487380Y-98377476D01*
X152487380Y-98377476D01*
X155027380Y-100520333D02*
X156027380Y-100187000D01*
X155027380Y-99853666D01*
X155932142Y-98948904D02*
X155979761Y-98996523D01*
X156027380Y-99139380D01*
X156027380Y-99234619D01*
X155979761Y-99377476D01*
X155884523Y-99472714D01*
X155789285Y-99520333D01*
X155598809Y-99567952D01*
X155455952Y-99567952D01*
X155265476Y-99520333D01*
X155170238Y-99472714D01*
X155075000Y-99377476D01*
X155027380Y-99234619D01*
X155027380Y-99139380D01*
X155075000Y-98996523D01*
X155122619Y-98948904D01*
X155932142Y-97948904D02*
X155979761Y-97996523D01*
X156027380Y-98139380D01*
X156027380Y-98234619D01*
X155979761Y-98377476D01*
X155884523Y-98472714D01*
X155789285Y-98520333D01*
X155598809Y-98567952D01*
X155455952Y-98567952D01*
X155265476Y-98520333D01*
X155170238Y-98472714D01*
X155075000Y-98377476D01*
X155027380Y-98234619D01*
X155027380Y-98139380D01*
X155075000Y-97996523D01*
X155122619Y-97948904D01*
X157615000Y-99948904D02*
X157567380Y-100044142D01*
X157567380Y-100187000D01*
X157615000Y-100329857D01*
X157710238Y-100425095D01*
X157805476Y-100472714D01*
X157995952Y-100520333D01*
X158138809Y-100520333D01*
X158329285Y-100472714D01*
X158424523Y-100425095D01*
X158519761Y-100329857D01*
X158567380Y-100187000D01*
X158567380Y-100091761D01*
X158519761Y-99948904D01*
X158472142Y-99901285D01*
X158138809Y-99901285D01*
X158138809Y-100091761D01*
X158567380Y-99472714D02*
X157567380Y-99472714D01*
X158567380Y-98901285D01*
X157567380Y-98901285D01*
X158567380Y-98425095D02*
X157567380Y-98425095D01*
X157567380Y-98187000D01*
X157615000Y-98044142D01*
X157710238Y-97948904D01*
X157805476Y-97901285D01*
X157995952Y-97853666D01*
X158138809Y-97853666D01*
X158329285Y-97901285D01*
X158424523Y-97948904D01*
X158519761Y-98044142D01*
X158567380Y-98187000D01*
X158567380Y-98425095D01*
D12*
X143609142Y-94955142D02*
X143680571Y-94740857D01*
X143680571Y-94383714D01*
X143609142Y-94240857D01*
X143537714Y-94169428D01*
X143394857Y-94098000D01*
X143252000Y-94098000D01*
X143109142Y-94169428D01*
X143037714Y-94240857D01*
X142966285Y-94383714D01*
X142894857Y-94669428D01*
X142823428Y-94812285D01*
X142752000Y-94883714D01*
X142609142Y-94955142D01*
X142466285Y-94955142D01*
X142323428Y-94883714D01*
X142252000Y-94812285D01*
X142180571Y-94669428D01*
X142180571Y-94312285D01*
X142252000Y-94098000D01*
X143609142Y-93526571D02*
X143680571Y-93312285D01*
X143680571Y-92955142D01*
X143609142Y-92812285D01*
X143537714Y-92740857D01*
X143394857Y-92669428D01*
X143252000Y-92669428D01*
X143109142Y-92740857D01*
X143037714Y-92812285D01*
X142966285Y-92955142D01*
X142894857Y-93240857D01*
X142823428Y-93383714D01*
X142752000Y-93455142D01*
X142609142Y-93526571D01*
X142466285Y-93526571D01*
X142323428Y-93455142D01*
X142252000Y-93383714D01*
X142180571Y-93240857D01*
X142180571Y-92883714D01*
X142252000Y-92669428D01*
X143680571Y-92026571D02*
X142180571Y-92026571D01*
X142180571Y-91669428D01*
X142252000Y-91455142D01*
X142394857Y-91312285D01*
X142537714Y-91240857D01*
X142823428Y-91169428D01*
X143037714Y-91169428D01*
X143323428Y-91240857D01*
X143466285Y-91312285D01*
X143609142Y-91455142D01*
X143680571Y-91669428D01*
X143680571Y-92026571D01*
X143680571Y-89740857D02*
X143680571Y-90598000D01*
X143680571Y-90169428D02*
X142180571Y-90169428D01*
X142394857Y-90312285D01*
X142537714Y-90455142D01*
X142609142Y-90598000D01*
X142180571Y-89240857D02*
X142180571Y-88312285D01*
X142752000Y-88812285D01*
X142752000Y-88598000D01*
X142823428Y-88455142D01*
X142894857Y-88383714D01*
X143037714Y-88312285D01*
X143394857Y-88312285D01*
X143537714Y-88383714D01*
X143609142Y-88455142D01*
X143680571Y-88598000D01*
X143680571Y-89026571D01*
X143609142Y-89169428D01*
X143537714Y-89240857D01*
X142180571Y-87383714D02*
X142180571Y-87240857D01*
X142252000Y-87098000D01*
X142323428Y-87026571D01*
X142466285Y-86955142D01*
X142752000Y-86883714D01*
X143109142Y-86883714D01*
X143394857Y-86955142D01*
X143537714Y-87026571D01*
X143609142Y-87098000D01*
X143680571Y-87240857D01*
X143680571Y-87383714D01*
X143609142Y-87526571D01*
X143537714Y-87598000D01*
X143394857Y-87669428D01*
X143109142Y-87740857D01*
X142752000Y-87740857D01*
X142466285Y-87669428D01*
X142323428Y-87598000D01*
X142252000Y-87526571D01*
X142180571Y-87383714D01*
X142180571Y-85598000D02*
X142180571Y-85883714D01*
X142252000Y-86026571D01*
X142323428Y-86098000D01*
X142537714Y-86240857D01*
X142823428Y-86312285D01*
X143394857Y-86312285D01*
X143537714Y-86240857D01*
X143609142Y-86169428D01*
X143680571Y-86026571D01*
X143680571Y-85740857D01*
X143609142Y-85598000D01*
X143537714Y-85526571D01*
X143394857Y-85455142D01*
X143037714Y-85455142D01*
X142894857Y-85526571D01*
X142823428Y-85598000D01*
X142752000Y-85740857D01*
X142752000Y-86026571D01*
X142823428Y-86169428D01*
X142894857Y-86240857D01*
X143037714Y-86312285D01*
X143680571Y-83669428D02*
X142180571Y-83669428D01*
X142180571Y-83312285D01*
X142252000Y-83098000D01*
X142394857Y-82955142D01*
X142537714Y-82883714D01*
X142823428Y-82812285D01*
X143037714Y-82812285D01*
X143323428Y-82883714D01*
X143466285Y-82955142D01*
X143609142Y-83098000D01*
X143680571Y-83312285D01*
X143680571Y-83669428D01*
X143680571Y-82169428D02*
X142680571Y-82169428D01*
X142180571Y-82169428D02*
X142252000Y-82240857D01*
X142323428Y-82169428D01*
X142252000Y-82098000D01*
X142180571Y-82169428D01*
X142323428Y-82169428D01*
X143609142Y-81526571D02*
X143680571Y-81383714D01*
X143680571Y-81098000D01*
X143609142Y-80955142D01*
X143466285Y-80883714D01*
X143394857Y-80883714D01*
X143252000Y-80955142D01*
X143180571Y-81098000D01*
X143180571Y-81312285D01*
X143109142Y-81455142D01*
X142966285Y-81526571D01*
X142894857Y-81526571D01*
X142752000Y-81455142D01*
X142680571Y-81312285D01*
X142680571Y-81098000D01*
X142752000Y-80955142D01*
X142680571Y-80240857D02*
X144180571Y-80240857D01*
X142752000Y-80240857D02*
X142680571Y-80098000D01*
X142680571Y-79812285D01*
X142752000Y-79669428D01*
X142823428Y-79598000D01*
X142966285Y-79526571D01*
X143394857Y-79526571D01*
X143537714Y-79598000D01*
X143609142Y-79669428D01*
X143680571Y-79812285D01*
X143680571Y-80098000D01*
X143609142Y-80240857D01*
X143680571Y-78669428D02*
X143609142Y-78812285D01*
X143466285Y-78883714D01*
X142180571Y-78883714D01*
X143680571Y-77455142D02*
X142894857Y-77455142D01*
X142752000Y-77526571D01*
X142680571Y-77669428D01*
X142680571Y-77955142D01*
X142752000Y-78098000D01*
X143609142Y-77455142D02*
X143680571Y-77598000D01*
X143680571Y-77955142D01*
X143609142Y-78098000D01*
X143466285Y-78169428D01*
X143323428Y-78169428D01*
X143180571Y-78098000D01*
X143109142Y-77955142D01*
X143109142Y-77598000D01*
X143037714Y-77455142D01*
X142680571Y-76883714D02*
X143680571Y-76526571D01*
X142680571Y-76169428D02*
X143680571Y-76526571D01*
X144037714Y-76669428D01*
X144109142Y-76740857D01*
X144180571Y-76883714D01*
D10*
X144081666Y-106322761D02*
X144224523Y-106370380D01*
X144462619Y-106370380D01*
X144557857Y-106322761D01*
X144605476Y-106275142D01*
X144653095Y-106179904D01*
X144653095Y-106084666D01*
X144605476Y-105989428D01*
X144557857Y-105941809D01*
X144462619Y-105894190D01*
X144272142Y-105846571D01*
X144176904Y-105798952D01*
X144129285Y-105751333D01*
X144081666Y-105656095D01*
X144081666Y-105560857D01*
X144129285Y-105465619D01*
X144176904Y-105418000D01*
X144272142Y-105370380D01*
X144510238Y-105370380D01*
X144653095Y-105418000D01*
X144986428Y-105370380D02*
X145224523Y-106370380D01*
X145415000Y-105656095D01*
X145605476Y-106370380D01*
X145843571Y-105370380D01*
X146748333Y-106370380D02*
X146176904Y-106370380D01*
X146462619Y-106370380D02*
X146462619Y-105370380D01*
X146367380Y-105513238D01*
X146272142Y-105608476D01*
X146176904Y-105656095D01*
X101665380Y-98212333D02*
X102379666Y-98212333D01*
X102522523Y-98259952D01*
X102617761Y-98355190D01*
X102665380Y-98498047D01*
X102665380Y-98593285D01*
X102665380Y-97736142D02*
X101665380Y-97736142D01*
X101665380Y-97355190D01*
X101713000Y-97259952D01*
X101760619Y-97212333D01*
X101855857Y-97164714D01*
X101998714Y-97164714D01*
X102093952Y-97212333D01*
X102141571Y-97259952D01*
X102189190Y-97355190D01*
X102189190Y-97736142D01*
X102665380Y-96212333D02*
X102665380Y-96783761D01*
X102665380Y-96498047D02*
X101665380Y-96498047D01*
X101808238Y-96593285D01*
X101903476Y-96688523D01*
X101951095Y-96783761D01*
X102663809Y-99752380D02*
X103282857Y-99752380D01*
X102949523Y-100133333D01*
X103092380Y-100133333D01*
X103187619Y-100180952D01*
X103235238Y-100228571D01*
X103282857Y-100323809D01*
X103282857Y-100561904D01*
X103235238Y-100657142D01*
X103187619Y-100704761D01*
X103092380Y-100752380D01*
X102806666Y-100752380D01*
X102711428Y-100704761D01*
X102663809Y-100657142D01*
X103711428Y-100657142D02*
X103759047Y-100704761D01*
X103711428Y-100752380D01*
X103663809Y-100704761D01*
X103711428Y-100657142D01*
X103711428Y-100752380D01*
X104092380Y-99752380D02*
X104711428Y-99752380D01*
X104378095Y-100133333D01*
X104520952Y-100133333D01*
X104616190Y-100180952D01*
X104663809Y-100228571D01*
X104711428Y-100323809D01*
X104711428Y-100561904D01*
X104663809Y-100657142D01*
X104616190Y-100704761D01*
X104520952Y-100752380D01*
X104235238Y-100752380D01*
X104140000Y-100704761D01*
X104092380Y-100657142D01*
X104997142Y-99752380D02*
X105330476Y-100752380D01*
X105663809Y-99752380D01*
X103251095Y-94085000D02*
X103155857Y-94037380D01*
X103013000Y-94037380D01*
X102870142Y-94085000D01*
X102774904Y-94180238D01*
X102727285Y-94275476D01*
X102679666Y-94465952D01*
X102679666Y-94608809D01*
X102727285Y-94799285D01*
X102774904Y-94894523D01*
X102870142Y-94989761D01*
X103013000Y-95037380D01*
X103108238Y-95037380D01*
X103251095Y-94989761D01*
X103298714Y-94942142D01*
X103298714Y-94608809D01*
X103108238Y-94608809D01*
X103727285Y-95037380D02*
X103727285Y-94037380D01*
X104298714Y-95037380D01*
X104298714Y-94037380D01*
X104774904Y-95037380D02*
X104774904Y-94037380D01*
X105013000Y-94037380D01*
X105155857Y-94085000D01*
X105251095Y-94180238D01*
X105298714Y-94275476D01*
X105346333Y-94465952D01*
X105346333Y-94608809D01*
X105298714Y-94799285D01*
X105251095Y-94894523D01*
X105155857Y-94989761D01*
X105013000Y-95037380D01*
X104774904Y-95037380D01*
X106934095Y-107529380D02*
X106934095Y-108338904D01*
X106981714Y-108434142D01*
X107029333Y-108481761D01*
X107124571Y-108529380D01*
X107315047Y-108529380D01*
X107410285Y-108481761D01*
X107457904Y-108434142D01*
X107505523Y-108338904D01*
X107505523Y-107529380D01*
X107886476Y-107529380D02*
X108553142Y-107529380D01*
X108124571Y-108529380D01*
X103400190Y-113228380D02*
X102924000Y-113228380D01*
X102924000Y-112228380D01*
X103733523Y-113228380D02*
X103733523Y-112561714D01*
X103733523Y-112228380D02*
X103685904Y-112276000D01*
X103733523Y-112323619D01*
X103781142Y-112276000D01*
X103733523Y-112228380D01*
X103733523Y-112323619D01*
X104638285Y-112561714D02*
X104638285Y-113371238D01*
X104590666Y-113466476D01*
X104543047Y-113514095D01*
X104447809Y-113561714D01*
X104304952Y-113561714D01*
X104209714Y-113514095D01*
X104638285Y-113180761D02*
X104543047Y-113228380D01*
X104352571Y-113228380D01*
X104257333Y-113180761D01*
X104209714Y-113133142D01*
X104162095Y-113037904D01*
X104162095Y-112752190D01*
X104209714Y-112656952D01*
X104257333Y-112609333D01*
X104352571Y-112561714D01*
X104543047Y-112561714D01*
X104638285Y-112609333D01*
X105114476Y-113228380D02*
X105114476Y-112228380D01*
X105543047Y-113228380D02*
X105543047Y-112704571D01*
X105495428Y-112609333D01*
X105400190Y-112561714D01*
X105257333Y-112561714D01*
X105162095Y-112609333D01*
X105114476Y-112656952D01*
X105876380Y-112561714D02*
X106257333Y-112561714D01*
X106019238Y-112228380D02*
X106019238Y-113085523D01*
X106066857Y-113180761D01*
X106162095Y-113228380D01*
X106257333Y-113228380D01*
X107304952Y-113180761D02*
X107447809Y-113228380D01*
X107685904Y-113228380D01*
X107781142Y-113180761D01*
X107828761Y-113133142D01*
X107876380Y-113037904D01*
X107876380Y-112942666D01*
X107828761Y-112847428D01*
X107781142Y-112799809D01*
X107685904Y-112752190D01*
X107495428Y-112704571D01*
X107400190Y-112656952D01*
X107352571Y-112609333D01*
X107304952Y-112514095D01*
X107304952Y-112418857D01*
X107352571Y-112323619D01*
X107400190Y-112276000D01*
X107495428Y-112228380D01*
X107733523Y-112228380D01*
X107876380Y-112276000D01*
X108685904Y-113180761D02*
X108590666Y-113228380D01*
X108400190Y-113228380D01*
X108304952Y-113180761D01*
X108257333Y-113085523D01*
X108257333Y-112704571D01*
X108304952Y-112609333D01*
X108400190Y-112561714D01*
X108590666Y-112561714D01*
X108685904Y-112609333D01*
X108733523Y-112704571D01*
X108733523Y-112799809D01*
X108257333Y-112895047D01*
X109162095Y-112561714D02*
X109162095Y-113228380D01*
X109162095Y-112656952D02*
X109209714Y-112609333D01*
X109304952Y-112561714D01*
X109447809Y-112561714D01*
X109543047Y-112609333D01*
X109590666Y-112704571D01*
X109590666Y-113228380D01*
X110019238Y-113180761D02*
X110114476Y-113228380D01*
X110304952Y-113228380D01*
X110400190Y-113180761D01*
X110447809Y-113085523D01*
X110447809Y-113037904D01*
X110400190Y-112942666D01*
X110304952Y-112895047D01*
X110162095Y-112895047D01*
X110066857Y-112847428D01*
X110019238Y-112752190D01*
X110019238Y-112704571D01*
X110066857Y-112609333D01*
X110162095Y-112561714D01*
X110304952Y-112561714D01*
X110400190Y-112609333D01*
X111019238Y-113228380D02*
X110924000Y-113180761D01*
X110876380Y-113133142D01*
X110828761Y-113037904D01*
X110828761Y-112752190D01*
X110876380Y-112656952D01*
X110924000Y-112609333D01*
X111019238Y-112561714D01*
X111162095Y-112561714D01*
X111257333Y-112609333D01*
X111304952Y-112656952D01*
X111352571Y-112752190D01*
X111352571Y-113037904D01*
X111304952Y-113133142D01*
X111257333Y-113180761D01*
X111162095Y-113228380D01*
X111019238Y-113228380D01*
X111781142Y-113228380D02*
X111781142Y-112561714D01*
X111781142Y-112752190D02*
X111828761Y-112656952D01*
X111876380Y-112609333D01*
X111971619Y-112561714D01*
X112066857Y-112561714D01*
X100965095Y-80224380D02*
X100965095Y-81033904D01*
X101012714Y-81129142D01*
X101060333Y-81176761D01*
X101155571Y-81224380D01*
X101346047Y-81224380D01*
X101441285Y-81176761D01*
X101488904Y-81129142D01*
X101536523Y-81033904D01*
X101536523Y-80224380D01*
X102536523Y-81224380D02*
X101965095Y-81224380D01*
X102250809Y-81224380D02*
X102250809Y-80224380D01*
X102155571Y-80367238D01*
X102060333Y-80462476D01*
X101965095Y-80510095D01*
D12*
X110209285Y-90110571D02*
X110566428Y-91610571D01*
X110852142Y-90539142D01*
X111137857Y-91610571D01*
X111495000Y-90110571D01*
X112066428Y-90824857D02*
X112566428Y-90824857D01*
X112780714Y-91610571D02*
X112066428Y-91610571D01*
X112066428Y-90110571D01*
X112780714Y-90110571D01*
X113423571Y-91610571D02*
X113423571Y-90110571D01*
X113923571Y-91182000D01*
X114423571Y-90110571D01*
X114423571Y-91610571D01*
X115423571Y-90110571D02*
X115709285Y-90110571D01*
X115852142Y-90182000D01*
X115995000Y-90324857D01*
X116066428Y-90610571D01*
X116066428Y-91110571D01*
X115995000Y-91396285D01*
X115852142Y-91539142D01*
X115709285Y-91610571D01*
X115423571Y-91610571D01*
X115280714Y-91539142D01*
X115137857Y-91396285D01*
X115066428Y-91110571D01*
X115066428Y-90610571D01*
X115137857Y-90324857D01*
X115280714Y-90182000D01*
X115423571Y-90110571D01*
X116637857Y-91539142D02*
X116852142Y-91610571D01*
X117209285Y-91610571D01*
X117352142Y-91539142D01*
X117423571Y-91467714D01*
X117495000Y-91324857D01*
X117495000Y-91182000D01*
X117423571Y-91039142D01*
X117352142Y-90967714D01*
X117209285Y-90896285D01*
X116923571Y-90824857D01*
X116780714Y-90753428D01*
X116709285Y-90682000D01*
X116637857Y-90539142D01*
X116637857Y-90396285D01*
X116709285Y-90253428D01*
X116780714Y-90182000D01*
X116923571Y-90110571D01*
X117280714Y-90110571D01*
X117495000Y-90182000D01*
X119280714Y-91610571D02*
X119280714Y-90110571D01*
X119637857Y-90110571D01*
X119852142Y-90182000D01*
X119995000Y-90324857D01*
X120066428Y-90467714D01*
X120137857Y-90753428D01*
X120137857Y-90967714D01*
X120066428Y-91253428D01*
X119995000Y-91396285D01*
X119852142Y-91539142D01*
X119637857Y-91610571D01*
X119280714Y-91610571D01*
X121566428Y-91610571D02*
X120709285Y-91610571D01*
X121137857Y-91610571D02*
X121137857Y-90110571D01*
X120995000Y-90324857D01*
X120852142Y-90467714D01*
X120709285Y-90539142D01*
X123352142Y-91610571D02*
X123352142Y-90110571D01*
X123852142Y-91182000D01*
X124352142Y-90110571D01*
X124352142Y-91610571D01*
X125066428Y-91610571D02*
X125066428Y-90610571D01*
X125066428Y-90110571D02*
X124995000Y-90182000D01*
X125066428Y-90253428D01*
X125137857Y-90182000D01*
X125066428Y-90110571D01*
X125066428Y-90253428D01*
X125780714Y-90610571D02*
X125780714Y-91610571D01*
X125780714Y-90753428D02*
X125852142Y-90682000D01*
X125995000Y-90610571D01*
X126209285Y-90610571D01*
X126352142Y-90682000D01*
X126423571Y-90824857D01*
X126423571Y-91610571D01*
X127137857Y-91610571D02*
X127137857Y-90610571D01*
X127137857Y-90110571D02*
X127066428Y-90182000D01*
X127137857Y-90253428D01*
X127209285Y-90182000D01*
X127137857Y-90110571D01*
X127137857Y-90253428D01*
D10*
X136461666Y-75715761D02*
X136604523Y-75763380D01*
X136842619Y-75763380D01*
X136937857Y-75715761D01*
X136985476Y-75668142D01*
X137033095Y-75572904D01*
X137033095Y-75477666D01*
X136985476Y-75382428D01*
X136937857Y-75334809D01*
X136842619Y-75287190D01*
X136652142Y-75239571D01*
X136556904Y-75191952D01*
X136509285Y-75144333D01*
X136461666Y-75049095D01*
X136461666Y-74953857D01*
X136509285Y-74858619D01*
X136556904Y-74811000D01*
X136652142Y-74763380D01*
X136890238Y-74763380D01*
X137033095Y-74811000D01*
X137366428Y-74763380D02*
X137604523Y-75763380D01*
X137795000Y-75049095D01*
X137985476Y-75763380D01*
X138223571Y-74763380D01*
X138556904Y-74858619D02*
X138604523Y-74811000D01*
X138699761Y-74763380D01*
X138937857Y-74763380D01*
X139033095Y-74811000D01*
X139080714Y-74858619D01*
X139128333Y-74953857D01*
X139128333Y-75049095D01*
X139080714Y-75191952D01*
X138509285Y-75763380D01*
X139128333Y-75763380D01*
X135139833Y-104879142D02*
X135092214Y-104926761D01*
X134949357Y-104974380D01*
X134854119Y-104974380D01*
X134711261Y-104926761D01*
X134616023Y-104831523D01*
X134568404Y-104736285D01*
X134520785Y-104545809D01*
X134520785Y-104402952D01*
X134568404Y-104212476D01*
X134616023Y-104117238D01*
X134711261Y-104022000D01*
X134854119Y-103974380D01*
X134949357Y-103974380D01*
X135092214Y-104022000D01*
X135139833Y-104069619D01*
X135996976Y-104307714D02*
X135996976Y-104974380D01*
X135758880Y-103926761D02*
X135520785Y-104641047D01*
X136139833Y-104641047D01*
X125387833Y-104879142D02*
X125340214Y-104926761D01*
X125197357Y-104974380D01*
X125102119Y-104974380D01*
X124959261Y-104926761D01*
X124864023Y-104831523D01*
X124816404Y-104736285D01*
X124768785Y-104545809D01*
X124768785Y-104402952D01*
X124816404Y-104212476D01*
X124864023Y-104117238D01*
X124959261Y-104022000D01*
X125102119Y-103974380D01*
X125197357Y-103974380D01*
X125340214Y-104022000D01*
X125387833Y-104069619D01*
X125721166Y-103974380D02*
X126340214Y-103974380D01*
X126006880Y-104355333D01*
X126149738Y-104355333D01*
X126244976Y-104402952D01*
X126292595Y-104450571D01*
X126340214Y-104545809D01*
X126340214Y-104783904D01*
X126292595Y-104879142D01*
X126244976Y-104926761D01*
X126149738Y-104974380D01*
X125864023Y-104974380D01*
X125768785Y-104926761D01*
X125721166Y-104879142D01*
X116094833Y-104879142D02*
X116047214Y-104926761D01*
X115904357Y-104974380D01*
X115809119Y-104974380D01*
X115666261Y-104926761D01*
X115571023Y-104831523D01*
X115523404Y-104736285D01*
X115475785Y-104545809D01*
X115475785Y-104402952D01*
X115523404Y-104212476D01*
X115571023Y-104117238D01*
X115666261Y-104022000D01*
X115809119Y-103974380D01*
X115904357Y-103974380D01*
X116047214Y-104022000D01*
X116094833Y-104069619D01*
X116475785Y-104069619D02*
X116523404Y-104022000D01*
X116618642Y-103974380D01*
X116856738Y-103974380D01*
X116951976Y-104022000D01*
X116999595Y-104069619D01*
X117047214Y-104164857D01*
X117047214Y-104260095D01*
X116999595Y-104402952D01*
X116428166Y-104974380D01*
X117047214Y-104974380D01*
X107311833Y-104878142D02*
X107264214Y-104925761D01*
X107121357Y-104973380D01*
X107026119Y-104973380D01*
X106883261Y-104925761D01*
X106788023Y-104830523D01*
X106740404Y-104735285D01*
X106692785Y-104544809D01*
X106692785Y-104401952D01*
X106740404Y-104211476D01*
X106788023Y-104116238D01*
X106883261Y-104021000D01*
X107026119Y-103973380D01*
X107121357Y-103973380D01*
X107264214Y-104021000D01*
X107311833Y-104068619D01*
X108264214Y-104973380D02*
X107692785Y-104973380D01*
X107978500Y-104973380D02*
X107978500Y-103973380D01*
X107883261Y-104116238D01*
X107788023Y-104211476D01*
X107692785Y-104259095D01*
X130833904Y-110688380D02*
X130833904Y-109688380D01*
X131072000Y-109688380D01*
X131214857Y-109736000D01*
X131310095Y-109831238D01*
X131357714Y-109926476D01*
X131405333Y-110116952D01*
X131405333Y-110259809D01*
X131357714Y-110450285D01*
X131310095Y-110545523D01*
X131214857Y-110640761D01*
X131072000Y-110688380D01*
X130833904Y-110688380D01*
X131738666Y-109688380D02*
X132357714Y-109688380D01*
X132024380Y-110069333D01*
X132167238Y-110069333D01*
X132262476Y-110116952D01*
X132310095Y-110164571D01*
X132357714Y-110259809D01*
X132357714Y-110497904D01*
X132310095Y-110593142D01*
X132262476Y-110640761D01*
X132167238Y-110688380D01*
X131881523Y-110688380D01*
X131786285Y-110640761D01*
X131738666Y-110593142D01*
X121308904Y-110688380D02*
X121308904Y-109688380D01*
X121547000Y-109688380D01*
X121689857Y-109736000D01*
X121785095Y-109831238D01*
X121832714Y-109926476D01*
X121880333Y-110116952D01*
X121880333Y-110259809D01*
X121832714Y-110450285D01*
X121785095Y-110545523D01*
X121689857Y-110640761D01*
X121547000Y-110688380D01*
X121308904Y-110688380D01*
X122261285Y-109783619D02*
X122308904Y-109736000D01*
X122404142Y-109688380D01*
X122642238Y-109688380D01*
X122737476Y-109736000D01*
X122785095Y-109783619D01*
X122832714Y-109878857D01*
X122832714Y-109974095D01*
X122785095Y-110116952D01*
X122213666Y-110688380D01*
X122832714Y-110688380D01*
X112037904Y-110688380D02*
X112037904Y-109688380D01*
X112276000Y-109688380D01*
X112418857Y-109736000D01*
X112514095Y-109831238D01*
X112561714Y-109926476D01*
X112609333Y-110116952D01*
X112609333Y-110259809D01*
X112561714Y-110450285D01*
X112514095Y-110545523D01*
X112418857Y-110640761D01*
X112276000Y-110688380D01*
X112037904Y-110688380D01*
X113561714Y-110688380D02*
X112990285Y-110688380D01*
X113276000Y-110688380D02*
X113276000Y-109688380D01*
X113180761Y-109831238D01*
X113085523Y-109926476D01*
X112990285Y-109974095D01*
M02*
